<svg xmlns="http://www.w3.org/2000/svg" viewBox="0 0 24.26 14.62"><title>ortala</title><g id="Layer_2" data-name="Layer 2"><g id="Layer_1-2" data-name="Layer 1"><path d="M12.78,9.91l0,0a.37.37,0,0,0-.18-.08h-.05a.52.52,0,0,0-.25,0h0l0,0a.33.33,0,0,0-.1.06l-1.51,1.36a.5.5,0,0,0,0,.71.49.49,0,0,0,.37.16.46.46,0,0,0,.33-.13l.68-.61v2.71a.5.5,0,0,0,.5.5h0a.5.5,0,0,0,.5-.5V11.39l.73.64a.5.5,0,0,0,.66-.76Z"/><path d="M12.19,4.71s.06,0,.09.06,0,0,.05,0a.58.58,0,0,0,.19,0,.43.43,0,0,0,.19,0h0l0,0,.1-.06,1.51-1.37a.5.5,0,0,0-.67-.74L13,3.21V.5a.5.5,0,0,0-.5-.5h0a.51.51,0,0,0-.5.5V3.23l-.73-.64a.51.51,0,0,0-.71.05.51.51,0,0,0,0,.71Z"/><path d="M9.79,7.09v0l0,0a.73.73,0,0,0,0-.09L8.34,5.44a.5.5,0,1,0-.74.67l.61.67H.5a.5.5,0,0,0-.5.5.5.5,0,0,0,.5.5H8.24l-.65.74a.5.5,0,0,0,.76.66L9.71,7.61l0,0a.48.48,0,0,0,.08-.18s0,0,0-.06A.51.51,0,0,0,9.79,7.09Z"/><path d="M23.76,6.83H16l.64-.74a.49.49,0,0,0,0-.7.51.51,0,0,0-.71,0L14.55,7l0,0a.66.66,0,0,0-.09.19s0,0,0,0a.41.41,0,0,0,0,.24v0l0,0a.47.47,0,0,0,.05.1l1.37,1.5a.5.5,0,0,0,.37.17.46.46,0,0,0,.33-.13.5.5,0,0,0,0-.71l-.61-.67h7.71a.5.5,0,0,0,0-1Z"/><path d="M11,7.3A1.35,1.35,0,1,0,12.29,6,1.35,1.35,0,0,0,11,7.3Z"/></g></g></svg>