<svg id="Layer_1" data-name="Layer 1" xmlns="http://www.w3.org/2000/svg" viewBox="0 0 28.41 17.95"><title>folder</title><path d="M29.16,13.88A7,7,0,0,0,17.08,9.14H6V7.54a.5.5,0,0,0-.5-.5H1.24a.5.5,0,0,0-.5.5V22.26a2.61,2.61,0,0,0,2.61,2.6H19.12a3.66,3.66,0,0,0,3.65-3.65v-.38A7,7,0,0,0,29.16,13.88ZM5,13.85v8.41a1.61,1.61,0,0,1-3.21,0V8H5v1.6a.5.5,0,0,0,.5.5H16.31a6.92,6.92,0,0,0-1.07,3.21H5.45A.5.5,0,0,0,5,13.85Zm14.17,10H5.4A2.62,2.62,0,0,0,6,22.26V14.35h9.28a7,7,0,0,0,6.54,6.49v.37A2.65,2.65,0,0,1,19.12,23.86Zm3.06-4a6,6,0,1,1,6-6A6,6,0,0,1,22.18,19.86Z" transform="translate(-0.74 -6.91)"/><path d="M25.32,13.42H22.77V10.88a.5.5,0,0,0-.5-.5.5.5,0,0,0-.5.5v2.54H19.23a.5.5,0,0,0-.5.5.5.5,0,0,0,.5.5h2.54V17a.5.5,0,0,0,.5.5.5.5,0,0,0,.5-.5V14.42h2.55a.5.5,0,0,0,.5-.5A.51.51,0,0,0,25.32,13.42Z" transform="translate(-0.74 -6.91)"/></svg>