<svg xmlns="http://www.w3.org/2000/svg" viewBox="0 0 26.29 25.19"><title>aynala</title><g id="Layer_2" data-name="Layer 2"><g id="Layer_1-2" data-name="Layer 1"><path d="M13.39,5.78a.5.5,0,0,0-.5.5V24.69a.5.5,0,0,0,.5.5.5.5,0,0,0,.5-.5V6.28A.5.5,0,0,0,13.39,5.78Z"/><path d="M26,6.57a.5.5,0,0,0-.56.16l-.92,1.18a.5.5,0,0,0,.08.7.52.52,0,0,0,.71-.08l0,0v0a.5.5,0,0,0,.5.5.51.51,0,0,0,.5-.5V7A.5.5,0,0,0,26,6.57Z"/><path d="M25.79,10.88a.5.5,0,0,0-.5.5v2.83a.5.5,0,0,0,.5.5.5.5,0,0,0,.5-.5V11.38A.5.5,0,0,0,25.79,10.88Z"/><path d="M25.79,16.55a.5.5,0,0,0-.5.5v2.84a.5.5,0,0,0,.5.5.51.51,0,0,0,.5-.5V17.05A.5.5,0,0,0,25.79,16.55Z"/><path d="M25.79,22.22a.5.5,0,0,0-.5.5v.06l0,0a.5.5,0,1,0-.79.61l.92,1.18a.5.5,0,0,0,.4.19.44.44,0,0,0,.16,0,.51.51,0,0,0,.34-.48v-1.5A.51.51,0,0,0,25.79,22.22Z"/><path d="M22,18.58a.5.5,0,0,0-.79.62l1.63,2.08a.52.52,0,0,0,.39.19.51.51,0,0,0,.31-.11.5.5,0,0,0,.09-.7Z"/><path d="M20.29,14.06a.51.51,0,0,0-.71.08l-.92,1.18a.51.51,0,0,0,0,.62l.92,1.18a.5.5,0,0,0,.4.19.54.54,0,0,0,.31-.1.52.52,0,0,0,.08-.71l-.68-.87.68-.87A.5.5,0,0,0,20.29,14.06Z"/><path d="M21.3,12.77a.51.51,0,0,0,.7-.09l1.63-2.08a.5.5,0,1,0-.79-.61l-1.63,2.07A.51.51,0,0,0,21.3,12.77Z"/><path d="M.89,6.79a.49.49,0,0,0-.55-.17A.51.51,0,0,0,0,7.09V24.28a.51.51,0,0,0,.34.47.45.45,0,0,0,.16,0,.49.49,0,0,0,.39-.19L7.63,16a.51.51,0,0,0,0-.62Zm.11,16V8.54l5.6,7.15Z"/><path d="M22.27,3.91a.5.5,0,0,0-.7.08l-1.1,1.42A6.7,6.7,0,0,0,7.19,6.7a.5.5,0,0,0,.5.5.5.5,0,0,0,.5-.5,5.7,5.7,0,0,1,11.34-.81L17.9,5.14a.5.5,0,0,0-.42.91l2.41,1.11h0a.71.71,0,0,0,.21,0,.46.46,0,0,0,.2,0s0,0,.05,0A.27.27,0,0,0,20.47,7l0,0,1.87-2.4A.5.5,0,0,0,22.27,3.91Z"/></g></g></svg>