<svg xmlns="http://www.w3.org/2000/svg" viewBox="0 0 27.86 24.88"><defs><style>.cls-1{fill:#231f20;}</style></defs><title>cogalt</title><g id="Layer_2" data-name="Layer 2"><g id="Layer_1-2" data-name="Layer 1"><path class="cls-1" d="M18.42,17h0a.49.49,0,0,0-.16-.16s0,0,0,0l-4.11-2.37a.5.5,0,0,0-.5,0l-4.1,2.37s0,0,0,0a.49.49,0,0,0-.16.16h0a.6.6,0,0,0-.06.22V22a.48.48,0,0,0,.25.43l4.1,2.37h0a.55.55,0,0,0,.22.06h0a.56.56,0,0,0,.23-.06h0l4.11-2.37a.5.5,0,0,0,.25-.43V17.27s0,0,0,0A.46.46,0,0,0,18.42,17Zm-4.54-1.55L17,17.27,13.9,19.06l-3.12-1.8Zm-3.6,2.66,3.12,1.8v3.58l-3.11-1.79Zm4.11,5.38V19.93l3.09-1.8v3.59Z"/><path class="cls-1" d="M18,5.61a.5.5,0,0,0-.5.5V7.32l-1,.61a.5.5,0,0,0,.25.93.45.45,0,0,0,.25-.07L18.24,8a.5.5,0,0,0,.25-.43V6.11A.5.5,0,0,0,18,5.61Z"/><path class="cls-1" d="M12.59,1.75a.42.42,0,0,0,.24-.07l1.05-.6,1,.6a.5.5,0,1,0,.5-.86L14.13.07a.5.5,0,0,0-.5,0l-1.3.75a.5.5,0,0,0,.26.93Z"/><path class="cls-1" d="M9.78,4.87a.5.5,0,0,0,.5-.5V3.73l.55.32a.45.45,0,0,0,.25.07.5.5,0,0,0,.43-.25.51.51,0,0,0-.18-.69l-.55-.31.55-.32a.5.5,0,1,0-.5-.86l-1.3.75h0a.65.65,0,0,0-.16.17h0a.6.6,0,0,0-.06.23V4.37A.5.5,0,0,0,9.78,4.87Z"/><path class="cls-1" d="M10.83,8.79a.45.45,0,0,0,.25.07.5.5,0,0,0,.25-.93l-1.05-.61V6.11a.5.5,0,0,0-.5-.5.5.5,0,0,0-.5.5v1.5A.48.48,0,0,0,9.53,8Z"/><path class="cls-1" d="M12.33,9.66l1.3.75h0a.43.43,0,0,0,.22.06h0a.44.44,0,0,0,.23-.06h0l1.3-.75a.5.5,0,1,0-.5-.86l-.54.31V8.48a.5.5,0,0,0-.5-.5h0a.5.5,0,0,0-.5.5v.64l-.56-.32a.5.5,0,0,0-.5.86Z"/><path class="cls-1" d="M18.42,2.62h0a.65.65,0,0,0-.16-.17h0l-1.3-.75a.5.5,0,0,0-.5.86l.55.32-.55.32a.5.5,0,0,0,.25.93.54.54,0,0,0,.25-.06l.55-.32v.63a.5.5,0,1,0,1,0V2.87a0,0,0,0,0,0,0A.46.46,0,0,0,18.42,2.62Z"/><path class="cls-1" d="M13.9,7.24h0a.5.5,0,0,0,.5-.5V5.53l1-.61a.49.49,0,0,0,.18-.68A.5.5,0,0,0,15,4.05l-1,.61-1.05-.6a.49.49,0,0,0-.68.18.51.51,0,0,0,.18.69l1.05.6V6.74A.5.5,0,0,0,13.9,7.24Z"/><path class="cls-1" d="M27.36,12.93a.5.5,0,0,0-.5.5v1.21l-1.05.6a.51.51,0,0,0-.18.69.5.5,0,0,0,.44.25.42.42,0,0,0,.24-.07l1.3-.75a.48.48,0,0,0,.25-.43v-1.5A.5.5,0,0,0,27.36,12.93Z"/><path class="cls-1" d="M27.86,10.16a.6.6,0,0,0-.06-.22h0a.4.4,0,0,0-.17-.17l0,0L26.31,9a.51.51,0,0,0-.68.19.5.5,0,0,0,.18.68l.56.32-.55.32a.51.51,0,0,0-.19.68.51.51,0,0,0,.44.25.47.47,0,0,0,.25-.07l.54-.32v.64a.51.51,0,0,0,.5.5.5.5,0,0,0,.5-.5V10.16Z"/><path class="cls-1" d="M22.21,9l1.05-.61,1,.61a.55.55,0,0,0,.25.07A.5.5,0,0,0,25,8.82a.51.51,0,0,0-.18-.69l-1.3-.75a.5.5,0,0,0-.5,0l-1.3.75a.51.51,0,0,0-.18.69A.5.5,0,0,0,22.21,9Z"/><path class="cls-1" d="M20.7,15.24l-1.05-.6V13.43a.5.5,0,0,0-.5-.5.5.5,0,0,0-.5.5v1.5a.5.5,0,0,0,.25.43l1.3.75a.47.47,0,0,0,.25.07.5.5,0,0,0,.43-.25A.51.51,0,0,0,20.7,15.24Z"/><path class="cls-1" d="M24.31,16.11l-.55.32V15.8a.49.49,0,0,0-.49-.5h0a.51.51,0,0,0-.5.5v.63l-.55-.32a.5.5,0,0,0-.68.19.49.49,0,0,0,.18.68l1.3.75h0a.56.56,0,0,0,.23.06h0a.51.51,0,0,0,.22-.06h0l1.3-.75A.49.49,0,0,0,25,16.3.51.51,0,0,0,24.31,16.11Z"/><path class="cls-1" d="M20.7,10.5l-.55-.31.55-.32a.49.49,0,0,0,.18-.68A.5.5,0,0,0,20.2,9l-1.3.75v0a.44.44,0,0,0-.17.16h0a.46.46,0,0,0-.06.22v1.53a.51.51,0,0,0,.5.5.5.5,0,0,0,.5-.5v-.64l.55.32a.57.57,0,0,0,.25.06.51.51,0,0,0,.44-.25A.51.51,0,0,0,20.7,10.5Z"/><path class="cls-1" d="M24.32,11.37l-1,.61-1.05-.6a.5.5,0,1,0-.5.86l1.05.61v1.2a.5.5,0,0,0,.5.51h0a.5.5,0,0,0,.5-.5V12.85l1-.61a.51.51,0,0,0,.18-.69A.51.51,0,0,0,24.32,11.37Z"/><path class="cls-1" d="M8.71,12.6a.51.51,0,0,0-.5.5v1.21l-1.05.61a.5.5,0,0,0,.25.93.45.45,0,0,0,.25-.07L9,15a.47.47,0,0,0,.25-.43V13.1A.5.5,0,0,0,8.71,12.6Z"/><path class="cls-1" d="M3.56,8.67l1.05-.6,1,.6a.47.47,0,0,0,.25.07.5.5,0,0,0,.25-.93L4.86,7.06a.5.5,0,0,0-.5,0l-1.3.75a.5.5,0,1,0,.5.86Z"/><path class="cls-1" d="M2.05,14.92l-1-.61V13.1a.5.5,0,0,0-1,0v1.5A.49.49,0,0,0,.25,15l1.3.75a.45.45,0,0,0,.25.07.5.5,0,0,0,.25-.93Z"/><path class="cls-1" d="M5.65,15.79l-.54.31v-.63a.5.5,0,0,0-1,0v.64l-.55-.32a.51.51,0,0,0-.69.18.52.52,0,0,0,.19.69l1.3.75h0a.43.43,0,0,0,.44,0h0l1.29-.75a.5.5,0,1,0-.5-.87Z"/><path class="cls-1" d="M2.05,10.17,1.5,9.86l.55-.32a.5.5,0,0,0-.5-.86l-1.3.75,0,0a.49.49,0,0,0-.16.16h0A.46.46,0,0,0,0,9.84v1.52a.5.5,0,0,0,.5.5.5.5,0,0,0,.5-.5v-.64l.55.32a.47.47,0,0,0,.25.07.5.5,0,0,0,.43-.25A.51.51,0,0,0,2.05,10.17Z"/><path class="cls-1" d="M5.67,11.05l-1,.6-1.05-.6a.49.49,0,0,0-.68.19.5.5,0,0,0,.19.68l1,.6v1.21a.5.5,0,0,0,.5.5h0a.5.5,0,0,0,.5-.5V12.52l1-.61a.5.5,0,1,0-.5-.86Z"/><path class="cls-1" d="M9.14,9.61h0A.49.49,0,0,0,9,9.45l0,0-1.3-.75a.5.5,0,0,0-.5.86l.55.32-.55.32a.5.5,0,0,0,.25.93.51.51,0,0,0,.25-.06l.55-.32v.63a.5.5,0,0,0,.5.5.5.5,0,0,0,.5-.5V9.84A.48.48,0,0,0,9.14,9.61Z"/></g></g></svg>