<svg xmlns="http://www.w3.org/2000/svg" viewBox="0 0 26.71 26.81"><defs><style>.cls-1{fill:#231f20;}</style></defs><title>dondurcevir</title><g id="Layer_2" data-name="Layer 2"><g id="Layer_1-2" data-name="Layer 1"><path class="cls-1" d="M9,7.88a.5.5,0,0,0,.57-.41C10.27,3.26,11.74,1,12.77,1h0c.66,0,1.34,1.11,1.83,1.91a15.77,15.77,0,0,1,2.11,8.5l-1-.93a.49.49,0,0,0-.7,0,.5.5,0,0,0,0,.71l1.84,1.73a.48.48,0,0,0,.34.13.49.49,0,0,0,.35-.14l1.79-1.73a.48.48,0,0,0,0-.7.49.49,0,0,0-.7,0l-1,.92a16.68,16.68,0,0,0-2.26-9C14.81,1.33,14,0,12.79,0,11,0,9.32,2.85,8.58,7.3A.5.5,0,0,0,9,7.88Z"/><path class="cls-1" d="M19.41,8.33a.5.5,0,1,0-.17,1c4.22.71,6.48,2.19,6.47,3.22,0,.67-1.11,1.34-1.91,1.83a15.77,15.77,0,0,1-8.5,2.11l.93-1a.49.49,0,0,0,0-.7.5.5,0,0,0-.71,0l-1.73,1.84a.5.5,0,0,0,0,.69l1.73,1.79a.52.52,0,0,0,.36.16.49.49,0,0,0,.34-.14.5.5,0,0,0,0-.71l-.92-.95h.27a16.64,16.64,0,0,0,8.74-2.28c1.06-.64,2.38-1.45,2.39-2.67C26.73,10.73,23.86,9.08,19.41,8.33Z"/><path class="cls-1" d="M17.72,18.93a.49.49,0,0,0-.57.41c-.71,4.2-2.18,6.47-3.21,6.47h0c-.67,0-1.34-1.11-1.83-1.91A15.77,15.77,0,0,1,10,15.4l1,.93a.49.49,0,0,0,.7,0,.5.5,0,0,0,0-.71L9.82,13.87a.51.51,0,0,0-.69,0L7.34,15.6a.5.5,0,0,0,0,.71.48.48,0,0,0,.36.15A.45.45,0,0,0,8,16.32l1-.92a16.72,16.72,0,0,0,2.26,9c.65,1.06,1.45,2.37,2.67,2.39h0c1.8,0,3.45-2.87,4.19-7.3A.5.5,0,0,0,17.72,18.93Z"/><path class="cls-1" d="M7.47,17.49C3.25,16.79,1,15.31,1,14.28c0-.67,1.11-1.34,1.91-1.83a15.78,15.78,0,0,1,8.5-2.12l-.93,1a.49.49,0,0,0,.36.84.51.51,0,0,0,.37-.15l1.73-1.84a.5.5,0,0,0,0-.69L11.2,7.68a.5.5,0,0,0-.72.7l.92.95a16.86,16.86,0,0,0-9,2.26C1.33,12.24,0,13.05,0,14.27c0,1.81,2.85,3.46,7.3,4.21h.08a.5.5,0,0,0,.09-1Z"/></g></g></svg>