<?xml version="1.0" encoding="utf-8"?>
<!-- Generator: Adobe Illustrator 23.0.1, SVG Export Plug-In . SVG Version: 6.00 Build 0)  -->
<svg version="1.1" id="Layer_1" xmlns="http://www.w3.org/2000/svg" xmlns:xlink="http://www.w3.org/1999/xlink" x="0px" y="0px"
	 viewBox="0 0 25.2 22.2" style="enable-background:new 0 0 25.2 22.2;" xml:space="preserve">
<g>
	<path d="M24.8,12.6l-8.7-5.2c-0.2-0.1-0.5-0.1-0.7,0.2c-0.1,0.2-0.1,0.5,0.2,0.7l8,4.8l-11.1,6.4L1.5,13l8.2-4.8
		c0.2-0.1,0.3-0.4,0.2-0.7C9.8,7.4,9.5,7.3,9.3,7.4l-8.9,5.2c-0.1,0.1-0.2,0.2-0.2,0.4s0.1,0.3,0.2,0.4l11.9,7
		c0.1,0,0.2,0.1,0.2,0.1c0.1,0,0.2,0,0.2-0.1l12-7c0.1-0.1,0.2-0.2,0.2-0.4S24.9,12.7,24.8,12.6z"/>
	<path d="M6.1,2.1c2.6,0.8,4.7,2.6,5.9,5c1.1,2.2,1.4,4.7,0.8,7.1L9.9,12c-0.2-0.2-0.5-0.1-0.7,0.1c-0.2,0.2-0.1,0.5,0.1,0.7
		l3.5,2.6c0,0,0,0,0,0c0,0,0.1,0,0.1,0.1c0,0,0.1,0,0.1,0c0.1,0,0.2,0,0.3-0.1l3.7-2.6c0.2-0.2,0.3-0.4,0.1-0.7
		c-0.2-0.2-0.4-0.3-0.7-0.1l-2.7,1.8c0.5-2.4,0.1-4.9-1-7.2C11.5,4,9.2,2.1,6.4,1.1C6.1,1.1,5.9,1.2,5.8,1.5C5.7,1.7,5.8,2,6.1,2.1z
		"/>
</g>
</svg>
