<svg id="Layer_1" data-name="Layer 1" xmlns="http://www.w3.org/2000/svg" viewBox="0 0 25.19 22.24"><defs><style>.cls-1{fill:#231f20;}</style></defs><title>reset</title><path class="cls-1" d="M9.88,20.14c-.12-.06-.24-.11-.36-.18a.49.49,0,1,0-.44.88l.4.19a.45.45,0,0,0,.2,0,.49.49,0,0,0,.2-.93Z"/><path class="cls-1" d="M24.38,11.79a.48.48,0,0,0-.54.43,9.63,9.63,0,0,1-.39,1.83.49.49,0,0,0,.33.61.34.34,0,0,0,.14,0,.48.48,0,0,0,.47-.34,10.56,10.56,0,0,0,.42-2A.49.49,0,0,0,24.38,11.79Z"/><path class="cls-1" d="M13.49,21a9.72,9.72,0,0,1-1.85-.27.51.51,0,0,0-.59.37.5.5,0,0,0,.36.59,11.55,11.55,0,0,0,2,.29h0a.49.49,0,0,0,0-1Z"/><path class="cls-1" d="M17.17,20.49a10,10,0,0,1-1.81.44.49.49,0,0,0,.06,1h.07a11.42,11.42,0,0,0,2-.48.48.48,0,0,0,.3-.62A.5.5,0,0,0,17.17,20.49Z"/><path class="cls-1" d="M23.4,15.57a.48.48,0,0,0-.66.2,10,10,0,0,1-1,1.55.49.49,0,0,0,.08.69.45.45,0,0,0,.31.11.49.49,0,0,0,.38-.18,10.77,10.77,0,0,0,1.13-1.71A.48.48,0,0,0,23.4,15.57Z"/><path class="cls-1" d="M20.4,18.66a10.23,10.23,0,0,1-1.53,1.07.49.49,0,0,0,.25.92.44.44,0,0,0,.24-.07A10.75,10.75,0,0,0,21,19.41a.49.49,0,0,0-.64-.75Z"/><path class="cls-1" d="M24.38,10.43a.49.49,0,0,0,.44-.54A10.94,10.94,0,0,0,3,11.1v.78L1,9.08A.5.5,0,0,0,.32,9a.5.5,0,0,0-.11.69l2.89,4,0,0a.52.52,0,0,0,.11.1l0,0a.54.54,0,0,0,.21.05.46.46,0,0,0,.21-.05l0,0a.52.52,0,0,0,.11-.1l0,0,2.89-4A.49.49,0,1,0,6,9.08l-2,2.8V11.1A10,10,0,0,1,23.84,10,.49.49,0,0,0,24.38,10.43Z"/><path class="cls-1" d="M18.81,14.31a.48.48,0,0,0,.25-.43V8.66A.4.4,0,0,0,19,8.44h0a.49.49,0,0,0-.16-.16l0,0-4.5-2.6a.48.48,0,0,0-.49,0L9.31,8.25s0,0,0,0a.49.49,0,0,0-.16.16h0a.46.46,0,0,0-.06.23v5.22a.48.48,0,0,0,.25.43l4.51,2.6s0,0,0,0a.51.51,0,0,0,.22.06h0a.51.51,0,0,0,.22-.06h0Zm-4.26,1.33,0-4.07,3.51-2V13.6Zm-.49-9,3.53,2-3.51,2-3.55-2ZM10,9.53l3.55,2,0,4.07L10,13.6Z"/></svg>