<svg xmlns="http://www.w3.org/2000/svg" viewBox="0 0 24.54 28.22"><title>buyut</title><g id="Layer_2" data-name="Layer 2"><g id="Layer_1-2" data-name="Layer 1"><path d="M24,17.89a.5.5,0,0,0-.5.5V20.6l-1.91,1.11a.5.5,0,0,0-.19.68.51.51,0,0,0,.44.25.47.47,0,0,0,.25-.07l2.16-1.25a.48.48,0,0,0,.25-.43v-2.5A.5.5,0,0,0,24,17.89Z"/><path d="M24,12.16a.5.5,0,0,0-.5.5v2.86a.5.5,0,0,0,.5.5.5.5,0,0,0,.5-.5V12.66A.5.5,0,0,0,24,12.16Z"/><path d="M24.29,6.86,22.13,5.61a.5.5,0,1,0-.5.87l1.91,1.1V9.8a.51.51,0,0,0,.5.5.5.5,0,0,0,.5-.5V7.3A.5.5,0,0,0,24.29,6.86Z"/><path d="M16.67,3.61l2.48,1.44a.54.54,0,0,0,.25.06.5.5,0,0,0,.25-.93L17.17,2.75a.51.51,0,0,0-.69.18A.49.49,0,0,0,16.67,3.61Z"/><path d="M10.36,2.18l1.91-1.1,1.92,1.1a.43.43,0,0,0,.25.07.5.5,0,0,0,.25-.93L12.52.07a.5.5,0,0,0-.5,0L9.86,1.32A.49.49,0,0,0,9.67,2,.51.51,0,0,0,10.36,2.18Z"/><path d="M5.15,5.11a.57.57,0,0,0,.25-.06L7.88,3.61a.5.5,0,0,0-.5-.86L4.9,4.18a.5.5,0,0,0,.25.93Z"/><path d="M2.42,5.61.25,6.86A.52.52,0,0,0,0,7.3V9.8a.5.5,0,0,0,1,0V7.58l1.92-1.1a.5.5,0,0,0-.5-.87Z"/><path d="M.5,16a.5.5,0,0,0,.5-.5V12.66a.5.5,0,0,0-.5-.5.5.5,0,0,0-.5.5v2.86A.5.5,0,0,0,.5,16Z"/><path d="M2.92,21.71,1,20.6V18.39a.5.5,0,0,0-.5-.5.5.5,0,0,0-.5.5v2.5a.5.5,0,0,0,.25.43l2.17,1.25a.42.42,0,0,0,.24.07.5.5,0,0,0,.26-.93Z"/><path d="M19.15,23.14l-.73.42V17.84a.46.46,0,0,0-.06-.23h0a.65.65,0,0,0-.16-.17h0l-5.26-3V8.15l2.17,1.43a.5.5,0,0,0,.69-.14.51.51,0,0,0-.14-.7l-3-2a.5.5,0,0,0-.55,0l-3,2a.51.51,0,0,0-.14.7.5.5,0,0,0,.42.22.53.53,0,0,0,.27-.08L11.91,8.1v6.08L6.28,17.43h0a.55.55,0,0,0-.17.17h0a.46.46,0,0,0-.06.23v5.67l-.63-.37a.51.51,0,0,0-.69.18A.5.5,0,0,0,4.9,24l1.24.72a.38.38,0,0,0,.14.14L12,28.15h0a.55.55,0,0,0,.22.06h0a.55.55,0,0,0,.22-.06h0l5.69-3.29h0L19.65,24a.5.5,0,0,0-.5-.86Zm-2.48,1.43,0,0L14.22,26h0l-1.46.84,0-5.41,4.67-2.7v5.41Zm-4.44-9.42,4.69,2.71-4.67,2.71L7.54,17.86ZM7,18.72l4.72,2.71,0,5.36L10.36,26a.42.42,0,0,0-.21-.06L8,24.72a.54.54,0,0,0-.15-.15L7,24.08Z"/></g></g></svg>