<svg xmlns="http://www.w3.org/2000/svg" viewBox="0 0 23 23"><title>Asset 1</title><g id="Layer_2" data-name="Layer 2"><g id="Layer_1-2" data-name="Layer 1"><path d="M11.5,23a.5.5,0,0,1-.5-.5V.5a.5.5,0,0,1,1,0v22A.5.5,0,0,1,11.5,23Z"/><path d="M22.5,12H.5a.5.5,0,0,1,0-1h22a.5.5,0,0,1,0,1Z"/><path d="M3.37,14.87A.47.47,0,0,1,3,14.72L.15,11.85a.48.48,0,0,1,0-.7L3,8.28a.49.49,0,1,1,.7.7L1.21,11.5,3.72,14a.5.5,0,0,1-.35.85Z"/><path d="M11.5,23a.47.47,0,0,1-.35-.15L8.28,20a.49.49,0,0,1,.7-.7l2.52,2.51L14,19.28a.49.49,0,0,1,.7.7l-2.87,2.87A.47.47,0,0,1,11.5,23Z"/><path d="M19.63,14.87a.5.5,0,0,1-.35-.85l2.51-2.52L19.28,9a.49.49,0,0,1,.7-.7l2.87,2.87a.48.48,0,0,1,0,.7L20,14.72A.47.47,0,0,1,19.63,14.87Z"/><path d="M14.37,3.87A.47.47,0,0,1,14,3.72L11.5,1.21,9,3.72a.49.49,0,1,1-.7-.7L11.15.15a.5.5,0,0,1,.7,0L14.72,3a.5.5,0,0,1-.35.85Z"/></g></g></svg>