<?xml version="1.0" encoding="utf-8"?>
<!-- Generator: Adobe Illustrator 23.0.1, SVG Export Plug-In . SVG Version: 6.00 Build 0)  -->
<svg version="1.1" id="Layer_1" xmlns="http://www.w3.org/2000/svg" xmlns:xlink="http://www.w3.org/1999/xlink" x="0px" y="0px"
	 viewBox="0 0 24.5 28.2" style="enable-background:new 0 0 24.5 28.2;" xml:space="preserve">
<g>
	<g>
		<path d="M8.2,25.2H0.5c-0.2,0-0.4-0.2-0.4-0.4V3.1c0-0.2,0.2-0.4,0.4-0.4h7.8c0.2,0,0.4,0.2,0.4,0.4v21.8
			C8.6,25,8.5,25.2,8.2,25.2z M0.9,24.4h7v-21h-7V24.4z"/>
	</g>
	<g>
		<path d="M24,25.2H8.3c-0.2,0-0.4-0.2-0.4-0.4V11c0-0.2,0.2-0.4,0.4-0.4h7.8c0.2,0,0.4,0.2,0.4,0.4v5.7H24c0.2,0,0.4,0.2,0.4,0.4
			v7.8C24.4,25,24.2,25.2,24,25.2z M8.7,24.4h14.9v-7h-7.5c-0.2,0-0.4-0.2-0.4-0.4v-5.7h-7V24.4z"/>
	</g>
	<g>
		<path d="M8.3,20.6c-0.1,0-0.2,0-0.3-0.1c-0.2-0.2-0.2-0.4,0-0.6l7.4-7.4c0.2-0.2,0.4-0.2,0.6,0c0.2,0.2,0.2,0.4,0,0.6l-7.4,7.4
			C8.5,20.6,8.4,20.6,8.3,20.6z"/>
	</g>
	<g>
		<path d="M8.3,24.9c-0.1,0-0.2,0-0.3-0.1c-0.2-0.2-0.2-0.4,0-0.6l7.4-7.4c0.2-0.2,0.4-0.2,0.6,0c0.2,0.2,0.2,0.4,0,0.6l-7.4,7.4
			C8.5,24.8,8.4,24.9,8.3,24.9z"/>
	</g>
	<g>
		<path d="M12.6,24.9c-0.1,0-0.2,0-0.3-0.1c-0.2-0.2-0.2-0.4,0-0.6l7.4-7.4c0.2-0.2,0.4-0.2,0.6,0c0.2,0.2,0.2,0.4,0,0.6l-7.4,7.4
			C12.8,24.8,12.7,24.9,12.6,24.9z"/>
	</g>
	<g>
		<path d="M16.9,24.9c-0.1,0-0.2,0-0.3-0.1c-0.2-0.2-0.2-0.4,0-0.6l7.2-7.4c0.2-0.2,0.4-0.2,0.6,0c0.2,0.2,0.2,0.4,0,0.6l-7.2,7.4
			C17.1,24.8,17,24.9,16.9,24.9z"/>
	</g>
	<g>
		<path d="M20.8,25.3c-0.1,0-0.2,0-0.3-0.1c-0.2-0.2-0.2-0.4,0-0.6l3-3c0.2-0.2,0.4-0.2,0.6,0c0.2,0.2,0.2,0.4,0,0.6l-3,3
			C21,25.2,20.9,25.3,20.8,25.3z"/>
	</g>
	<g>
		<path d="M8.6,16.3c-0.1,0-0.2,0-0.3-0.1c-0.2-0.2-0.2-0.4,0-0.6l4.6-4.6c0.2-0.2,0.4-0.2,0.6,0s0.2,0.4,0,0.6l-4.6,4.6
			C8.8,16.3,8.7,16.3,8.6,16.3z"/>
	</g>
</g>
</svg>
