<svg xmlns="http://www.w3.org/2000/svg" viewBox="0 0 134.52 29.45"><title>desktop</title><g id="Layer_2" data-name="Layer 2"><g id="Layer_1-2" data-name="Layer 1"><path d="M31.53,5.79c-5.25,0-9.24,4-9.24,9.64s3.91,9.62,9.38,9.62A10.14,10.14,0,0,0,39.33,22l-1.21-1.54a8.65,8.65,0,0,1-6.31,2.65,7,7,0,0,1-7.22-6.84H40.24c0-.3,0-.59,0-.93C40.22,9.74,36.51,5.79,31.53,5.79Zm-6.9,8.51c.42-3.79,3.09-6.51,6.86-6.51,3.49,0,6.17,2.64,6.49,6.51Z"/><path d="M51.4,14.44,49,14.16c-2.87-.34-4.24-1.27-4.24-3,0-2.12,2-3.37,5-3.37a11.78,11.78,0,0,1,6.32,1.87l1-1.75a13,13,0,0,0-7.32-2.1c-4.31,0-7.26,2.06-7.26,5.47,0,2.66,1.82,4.51,6,5l2.4.26q4.31.48,4.3,3.09c0,2.32-2.32,3.49-5.69,3.49A10.14,10.14,0,0,1,42.88,21l-1.06,1.69a12.65,12.65,0,0,0,7.68,2.38c4.8,0,8-2.05,8-5.6C57.53,16.5,55.31,14.89,51.4,14.44Z"/><path d="M87,22.92c-2.48,0-4.14-1.44-4.14-4.6V8.15h8.6V6.09h-8.6V0H80.62V6.09H73.71L65.86,14h-3V0H60.57V24.75h2.26V16h3l8,8.75h2.88l-9-9.86,6.83-6.77h1.81v0h4.29V18.36c0,4.53,2.34,6.69,6.22,6.69a8.4,8.4,0,0,0,5.42-1.87L91.19,21.5A6.75,6.75,0,0,1,87,22.92Z"/><path d="M102.49,5.79a9.44,9.44,0,0,0-9.68,9.64,9.7,9.7,0,0,0,19.4,0A9.48,9.48,0,0,0,102.49,5.79Zm0,17.13a7.25,7.25,0,0,1-7.38-7.49,7.39,7.39,0,1,1,14.78,0A7.25,7.25,0,0,1,102.49,22.92Z"/><path d="M16.72,9.68a8.46,8.46,0,0,0-7.4-3.89A9.29,9.29,0,0,0,0,15.43a9.28,9.28,0,0,0,9.32,9.62,8.38,8.38,0,0,0,7.4-3.89v3.59H19V0H16.72ZM9.58,22.92A7.2,7.2,0,0,1,2.3,15.43,7.2,7.2,0,0,1,9.58,7.91a7.18,7.18,0,0,1,7.26,7.52A7.16,7.16,0,0,1,9.58,22.92Z"/><path d="M125.18,5.79a8.41,8.41,0,0,0-7.36,3.85V6.09h-2.26V29.45h2.26V21.2a8.39,8.39,0,0,0,7.36,3.85,9.29,9.29,0,0,0,9.34-9.62A9.31,9.31,0,0,0,125.18,5.79Zm-.26,17.13a7.17,7.17,0,0,1-7.26-7.49,7.27,7.27,0,1,1,14.54,0A7.18,7.18,0,0,1,124.92,22.92Z"/></g></g></svg>