<svg id="Layer_1" data-name="Layer 1" xmlns="http://www.w3.org/2000/svg" viewBox="0 0 65 110"><defs><style>.cls-1{fill:#231f20;}</style></defs><path d="M26.6,101.7h5.5v1.9H23.8V102l5.5-7H23.9V93.1h8.2v1.7Z"/><path d="M36.8,95.7l-2.6.9v-2L38.8,93v8.7h2.4v2H34.3v-2h2.5Z"/><path class="cls-1" d="M53.5,85H49.7a.5.5,0,0,1-.5-.3s-.3-.8-.9-.8H16.7c-.6,0-.9.8-.9.8a.5.5,0,0,1-.5.3H11.5a.5.5,0,0,1-.5-.5V33.8c0-.1.4-5.4,2-5.4H52c1.6,0,2,4.8,2,4.9V84.5a.5.5,0,0,1-.5.5ZM50,84h3V33.3c0-1-.6-3.7-1.1-3.9H13.1c-.5.4-1.1,3.4-1.1,4.3V84h3a2,2,0,0,1,1.7-1.1H48.3A1.9,1.9,0,0,1,50,84Z"/><path class="cls-1" d="M45.2,77.8H19.9a3.3,3.3,0,0,1-3.3-3.2h0V38.8a.5.5,0,0,1,.5-.5h28a.5.5,0,0,1,.5.3v8.9a.2.2,0,0,0,.2.2h2.1a.5.5,0,0,1,.5.5V74.6A3.2,3.2,0,0,1,45.2,77.8ZM17.6,39.3V74.6a2.2,2.2,0,0,0,2.3,2.2H45.2a2.2,2.2,0,0,0,2.2-2.2V48.7H45.8a1.2,1.2,0,0,1-1.2-1.2h0V39.3Z"/><path class="cls-1" d="M48,34.1H17.4a.5.5,0,0,1-.4-.2,5.5,5.5,0,0,1,0-5.3c.1-.2.2-.2.4-.2H48c.2,0,.3.1.4.3a7.4,7.4,0,0,1,0,5.1C48.4,34,48.2,34.1,48,34.1Zm-30.3-1H47.6a7.7,7.7,0,0,0,0-3.7H17.7A4.4,4.4,0,0,0,17.7,33.1Z"/><path class="cls-1" d="M46,67.3H19.5a.5.5,0,0,1-.5-.5V65.6a.5.5,0,0,1,.5-.5H46c.2,0,.4.2.5.5v1.2A.5.5,0,0,1,46,67.3Zm-26-1H45.5v-.2H20Z"/><path class="cls-1" d="M22.4,77.5a.5.5,0,0,1-.5-.5V67.2a.5.5,0,0,1,1,0V77A.5.5,0,0,1,22.4,77.5Z"/><path class="cls-1" d="M43.1,77.5a.5.5,0,0,1-.5-.5V67.2a.5.5,0,0,1,1,0V77A.5.5,0,0,1,43.1,77.5Z"/><path class="cls-1" d="M52.3,47.5H46.4a.5.5,0,0,1-.5-.5V38.8a.5.5,0,0,1,.5-.5h5.9a.5.5,0,0,1,.5.5V47A.5.5,0,0,1,52.3,47.5Zm-5.4-1h4.9V39.3H46.9Z"/><path class="cls-1" d="M32.7,45h-.3l-1-.7a.6.6,0,0,1-.1-.7h0a.5.5,0,0,1,.7-.1h0l1,.7a.4.4,0,0,1,.1.6h0A.5.5,0,0,1,32.7,45Z"/><path class="cls-1" d="M32.7,45l-.4-.2c-.1-.3-.1-.6.1-.7h0l1-.7c.3-.2.6-.2.7.1h0c.2.2.2.5-.1.6h0l-1,.7Z"/><path class="cls-1" d="M31.7,44.3a.6.6,0,0,1-.5-.5v-.5a.5.5,0,0,1,.5-.5.5.5,0,0,1,.5.5v.5A.5.5,0,0,1,31.7,44.3Z"/><path class="cls-1" d="M31.7,43.8a.5.5,0,0,1-.5-.5v-.6a.5.5,0,0,1,.5-.5.5.5,0,0,1,.5.5v.6A.5.5,0,0,1,31.7,43.8Z"/><path class="cls-1" d="M32.7,43.2h-1a.6.6,0,0,1-.5-.5.5.5,0,0,1,.5-.5h1a.5.5,0,0,1,.5.5A.5.5,0,0,1,32.7,43.2Z"/><path class="cls-1" d="M33.7,44.3a.5.5,0,0,1-.5-.5v-.5a.5.5,0,0,1,1,0v.5A.5.5,0,0,1,33.7,44.3Z"/><path class="cls-1" d="M33.7,43.8a.5.5,0,0,1-.5-.5v-.6a.5.5,0,0,1,1,0v.6A.5.5,0,0,1,33.7,43.8Z"/><path class="cls-1" d="M33.7,43.2h-1a.5.5,0,0,1-.5-.5.5.5,0,0,1,.5-.5h1a.5.5,0,0,1,.5.5A.5.5,0,0,1,33.7,43.2Z"/><path class="cls-1" d="M35.2,43.2h-5a.5.5,0,0,1-.5-.5v-4a.5.5,0,0,1,.5-.5h5a.5.5,0,0,1,.5.5v4A.6.6,0,0,1,35.2,43.2Zm-4.6-1h4v-3h-4Z"/><path class="cls-1" d="M33.9,41.1H31.4a.5.5,0,0,1,0-1h2.5a.5.5,0,0,1,0,1Z"/><path class="cls-1" d="M28.9,35.2h1.5v.2l-.9,1.4h.9v.4H28.8V37l.9-1.4h-.8Z"/><path class="cls-1" d="M32,37.2c-.1,0-.1,0-.1-.1h-.1l-.3.2h-.7c-.1-.1-.1-.1-.1-.2s-.1-.2,0-.2a.2.2,0,0,1,0-.3v-.2h.9v.3h-.2c-.1,0-.2,0-.2.1a.1.1,0,0,0-.1.1c0,.2.1.3.2.3h.3c.1,0,.1-.1.2-.2V36a.4.4,0,0,0-.1-.3H31v-.3h.6l.7.2a1.4,1.4,0,0,1,.2.6v1.3Z"/><path class="cls-1" d="M34.3,37.2h-.5l-.4-.7h0l-.4.7h-.6l.7-1-.7-1H33l.3.4.3.5Z"/><path class="cls-1" d="M35.7,36v-.2h-.2c0-.1-.1-.1-.1,0h-.2a.1.1,0,0,0-.1.1c-.1,0-.1.1-.1.2v.3a1.1,1.1,0,0,0,.1.5l.4.2h.6v.3l-.4.2H35l-.3-.3c-.1-.1-.2-.2-.2-.3a1.4,1.4,0,0,1,0-.9l.2-.3.4-.2h.7q.3.1.3.3l.2.3a.9.9,0,0,1-.1.5H35.1c0-.1.1-.1.1-.2h.5Z"/><path class="cls-1" d="M33.8,35.2h.6l-.6.8-.2-.2v-.2h0Z"/><rect class="cls-1" x="47.5" y="43.2" width="3.7" height="1.3"/></svg>