<svg id="Layer_1" data-name="Layer 1" xmlns="http://www.w3.org/2000/svg" viewBox="0 0 65 110"><defs><style>.cls-1{fill:#231f20;}</style></defs><path d="M22.7,101.7h5.4v2H19.9V102l5.5-7H19.9V93.1h8.2v1.7Z"/><path d="M32.8,95.7l-2.6.9v-2L34.8,93v8.8h2.4v1.9H30.3v-1.9h2.5Z"/><path d="M41.5,100.5H38.9V98.8h2.6V96.2h1.7v2.6h2.6v1.7H43.2v2.6H41.5Z"/><path class="cls-1" d="M60.6,85H55.5a.5.5,0,0,1-.5-.3s-.4-1.3-1.3-1.3H11.3c-.9,0-1.3,1.3-1.3,1.3a.5.5,0,0,1-.5.3H4.4a.5.5,0,0,1-.5-.5v-68s.6-7,2.5-7H58.6c1.8,0,2.5,6,2.5,6.4V84.5A.5.5,0,0,1,60.6,85Zm-4.8-1h4.3V15.9c0-1.4-1-5.1-1.6-5.4H6.4c-.6.3-1.5,4.7-1.5,6V84H9.2a2.5,2.5,0,0,1,2.1-1.6H53.7A2.5,2.5,0,0,1,55.8,84Z"/><path class="cls-1" d="M49.6,75.6h-34a4.1,4.1,0,0,1-4.1-4.1h0v-48A.5.5,0,0,1,12,23H53c.2-.1.5.1.7.3V71.5A4.3,4.3,0,0,1,49.6,75.6ZM12.5,24.1V71.5a3.1,3.1,0,0,0,3.1,3.1h34a3.1,3.1,0,0,0,3.1-3.1h0V24.1Z"/><path class="cls-1" d="M53.2,17.2H12.3c-.2,0-.4-.1-.4-.3a6.9,6.9,0,0,1,0-6.8c0-.2.2-.3.4-.3H53.2c.2,0,.4.1.4.3a9.7,9.7,0,0,1,0,6.7A.4.4,0,0,1,53.2,17.2Zm-40.6-1H52.8a9.9,9.9,0,0,0,0-5.4H12.6A6.4,6.4,0,0,0,12.6,16.2Z"/><path class="cls-1" d="M50.5,67.4H15.1a.5.5,0,0,1-.5-.5V65.3a.5.5,0,0,1,.5-.5H50.5a.5.5,0,0,1,.5.5v1.6A.5.5,0,0,1,50.5,67.4Zm-34.9-1H50v-.6H15.6Z"/><path class="cls-1" d="M19,75.2a.5.5,0,0,1-.5-.5V67a.5.5,0,0,1,1,0v7.7A.5.5,0,0,1,19,75.2Z"/><path class="cls-1" d="M46.7,75.2a.5.5,0,0,1-.5-.5V67a.5.5,0,0,1,1,0v7.7A.5.5,0,0,1,46.7,75.2Z"/><path class="cls-1" d="M59.3,39.2H54.4a.5.5,0,0,1-.5-.5V31.9a.5.5,0,0,1,.5-.5h4.9a.5.5,0,0,1,.5.5v6.8A.5.5,0,0,1,59.3,39.2Zm-4.4-1h3.9V32.4H54.9Z"/><path class="cls-1" d="M28.7,19.1h1.5v.2l-.9,1.4h.9v.3H28.6v-.3l.9-1.3h-.8Z"/><path class="cls-1" d="M31.8,21.1a.1.1,0,0,1-.1-.1h-.1a.4.4,0,0,1-.6.2h-.2l-.3-.2h-.1v-.5l.2-.2.3-.2h.5v.2H31c-.1.1-.1.1-.1.2a.2.2,0,0,0,.2.2h.5v-.6c0-.1-.1-.3-.1-.4h-.8l-.2-.4h.7a.9.9,0,0,1,.7.3,1.1,1.1,0,0,1,.2.6v1.2Z"/><path class="cls-1" d="M34.1,21.1h-.5l-.4-.7h0l-.4.6h-.6l.7-1-.7-1h.6l.3.5.3.5Z"/><path class="cls-1" d="M35.5,19.8h0v-.2H35l-.2.2h-.1V20a1.4,1.4,0,0,0,.2.6c.1.1.2.2.4.1a.2.2,0,0,0,.3,0h.3V21h-.8c-.1.1-.3,0-.4-.1l-.4-.2c0-.1-.1-.2-.1-.4a.4.4,0,0,1-.1-.3.9.9,0,0,1,.1-.5c0-.1.1-.2.2-.3l.3-.2h.8l.3.2c.1.1.1.2.1.4v.4H34.9V20c0-.1.1-.1.2-.1Z"/><path class="cls-1" d="M33.6,19.1h.6l-.6.8h-.1a.1.1,0,0,0-.1-.1v-.6Z"/><rect class="cls-1" x="55.3" y="35" width="3" height="1.3"/></svg>