<svg id="Layer_1" data-name="Layer 1" xmlns="http://www.w3.org/2000/svg" viewBox="0 0 65 110"><defs><style>.cls-1{fill:#231f20;}</style></defs><title>Asset 17</title><g id="Layer_1-2" data-name="Layer 1-2"><path d="M31.77,103.65H29.31L26.9,99.91l-2.43,3.74H22.05l3.59-5.33-3.49-5.18h2.46l2.32,3.61,2.32-3.61h2.42l-3.5,5.18Z"/><path d="M36,95.7l-2.61.94v-2L38,93v8.75h2.38v1.92H33.47v-1.92H36Z"/><path class="cls-1" d="M23.41,31.19H17a.48.48,0,0,1-.4-.2.46.46,0,0,1-.08-.44l1.21-4.05a.49.49,0,0,1,.48-.36h5.16a.5.5,0,0,1,.5.5v4.05A.5.5,0,0,1,23.41,31.19Zm-5.7-1h5.2V27.14H18.62Z"/><path class="cls-1" d="M53.25,84.94h-3.8A.52.52,0,0,1,49,84.6s-.3-.85-.9-.85H16.44c-.6,0-.9.84-.9.85a.51.51,0,0,1-.48.34h-3.8a.5.5,0,0,1-.5-.5V32.2a2,2,0,0,1,2-2h39a2,2,0,0,1,2,2V84.44a.5.5,0,0,1-.5.5Zm-3.47-1h3V32.2a1,1,0,0,0-1-1h-39a1,1,0,0,0-1,1V83.94h3a2,2,0,0,1,1.71-1.19H48.07A2,2,0,0,1,49.78,83.94Zm-2-7h-8.4a.5.5,0,0,1-.5-.5v-4a.82.82,0,0,0-.82-.81H26.25a.81.81,0,0,0-.81.81v4a.5.5,0,0,1-.5.5h-8a.5.5,0,0,1-.5-.5V39.05a3.21,3.21,0,0,1,3.21-3.21H45a3.21,3.21,0,0,1,3.21,3.21V76.39a.5.5,0,0,1-.46.5Zm-7.9-1h7.4V39.05a2.21,2.21,0,0,0-2.21-2.21H19.62a2.21,2.21,0,0,0-2.21,2.21h0V75.89h7V72.42a1.81,1.81,0,0,1,1.81-1.81H38a1.82,1.82,0,0,1,1.82,1.81Z"/><path class="cls-1" d="M36.43,79.5H28.18a.52.52,0,0,1-.5-.5V73.06a.5.5,0,0,1,.5-.5h8.25a.5.5,0,0,1,.5.5V79A.5.5,0,0,1,36.43,79.5Zm-7.75-1h7.25V73.56H28.68Z"/><path class="cls-1" d="M45.58,68.29H19.16a.5.5,0,0,1-.5-.5V66.56a.5.5,0,0,1,.5-.5H45.58a.5.5,0,0,1,.5.5v1.23A.5.5,0,0,1,45.58,68.29Zm-25.92-1H45.08v-.23H19.66Z"/><path class="cls-1" d="M22,76.81a.5.5,0,0,1-.5-.5V68.19a.5.5,0,0,1,1,0v8.12A.5.5,0,0,1,22,76.81Z"/><path class="cls-1" d="M42.75,76.81a.5.5,0,0,1-.5-.5V68.19a.5.5,0,0,1,1,0v8.12A.5.5,0,0,1,42.75,76.81Z"/><path class="cls-1" d="M20.87,27.14a.5.5,0,0,1-.5-.5v-.27a.5.5,0,0,1,1,0v.27A.52.52,0,0,1,20.87,27.14Z"/><path class="cls-1" d="M33.48,31a.5.5,0,0,1-.5-.5V26.37a.5.5,0,1,1,1,0v4.15A.5.5,0,0,1,33.48,31Z"/><path class="cls-1" d="M33.48,27a.5.5,0,0,1-.5-.5A5.81,5.81,0,1,0,21.37,26a3.84,3.84,0,0,0,0,.48.52.52,0,0,1-.5.5.5.5,0,0,1-.5-.5A6.81,6.81,0,1,1,34,26a4.51,4.51,0,0,1,0,.52A.52.52,0,0,1,33.48,27Z"/><rect class="cls-1" x="29.8" y="75.41" width="5.04" height="1.3"/><path class="cls-1" d="M32.15,42.56a.47.47,0,0,1-.3-.1l-1-.71a.5.5,0,0,1,.59-.81h0l1,.71a.51.51,0,0,1,.11.7A.52.52,0,0,1,32.15,42.56Z"/><path class="cls-1" d="M32.15,42.56a.52.52,0,0,1-.41-.21.51.51,0,0,1,.11-.7l1-.71a.5.5,0,0,1,.59.81h0l-1,.71A.43.43,0,0,1,32.15,42.56Z"/><path class="cls-1" d="M31.17,41.85a.5.5,0,0,1-.5-.5v-.44a.5.5,0,0,1,1,0v.44A.52.52,0,0,1,31.17,41.85Z"/><path class="cls-1" d="M31.17,41.41a.5.5,0,0,1-.5-.5v-.66a.5.5,0,0,1,1,0v.66A.5.5,0,0,1,31.17,41.41Z"/><path class="cls-1" d="M32.15,40.75h-1a.5.5,0,0,1,0-1h1a.5.5,0,0,1,.5.5A.52.52,0,0,1,32.15,40.75Z"/><path class="cls-1" d="M33.13,41.85a.5.5,0,0,1-.5-.5v-.44a.5.5,0,0,1,1,0v.44A.52.52,0,0,1,33.13,41.85Z"/><path class="cls-1" d="M33.13,41.41a.5.5,0,0,1-.5-.5v-.66a.5.5,0,0,1,1,0v.66A.5.5,0,0,1,33.13,41.41Z"/><path class="cls-1" d="M33.13,40.75h-1a.5.5,0,0,1,0-1h1a.5.5,0,0,1,.5.5A.52.52,0,0,1,33.13,40.75Z"/><path class="cls-1" d="M34.59,39h-5a.5.5,0,0,1-.5-.5V36.41a.5.5,0,0,1,.5-.5h5a.5.5,0,0,1,.5.5v2.08A.51.51,0,0,1,34.59,39Zm-4.54-1h4V36.91h-4Z"/><path class="cls-1" d="M34.2,40.63H29.93a.5.5,0,0,1-.49-.4l-.38-1.79a.5.5,0,0,1,.4-.6h5.09A.51.51,0,0,1,35,38a.53.53,0,0,1,.1.42l-.39,1.79A.5.5,0,0,1,34.2,40.63Zm-3.86-1H33.8l.17-.8h-3.8Z"/><path class="cls-1" d="M28.37,32.55h1.46v.23L29,34.13l-.06.06h.95v.39H28.27v-.23L29.16,33l.06-.07h-.85Z"/><path class="cls-1" d="M31.42,34.57a.2.2,0,0,1-.09-.09l-.06-.11v0a1.06,1.06,0,0,1-.31.21.66.66,0,0,1-.28,0,.53.53,0,0,1-.25,0,.8.8,0,0,1-.19-.13.39.39,0,0,1-.12-.19A.58.58,0,0,1,30,34a.45.45,0,0,1,0-.23.5.5,0,0,1,.17-.21,1,1,0,0,1,.33-.15,1.48,1.48,0,0,1,.51-.09.68.68,0,0,1-.08.24.32.32,0,0,1-.18.12.44.44,0,0,0-.22.1.27.27,0,0,0-.06.17.22.22,0,0,0,.07.17.28.28,0,0,0,.17.07.4.4,0,0,0,.23-.08,1.34,1.34,0,0,0,.21-.2v-.59A.52.52,0,0,0,31,33a.41.41,0,0,0-.32-.12.74.74,0,0,0-.21,0,1.09,1.09,0,0,0-.24.07l-.14-.34.36-.12h.32a.89.89,0,0,1,.64.21.82.82,0,0,1,.22.63v1a2,2,0,0,0,0,.26Z"/><path class="cls-1" d="M33.8,34.57h-.56l-.42-.68h0l-.35.65h-.59l.66-1-.7-1h.6l.31.49.32.48Z"/><path class="cls-1" d="M35.19,33.34a.49.49,0,0,0,0-.17.41.41,0,0,0-.07-.15.52.52,0,0,0-.11-.1.43.43,0,0,0-.16,0,.43.43,0,0,0-.16,0,.3.3,0,0,0-.14.11.56.56,0,0,0-.11.2.66.66,0,0,0,0,.28.82.82,0,0,0,.15.53.49.49,0,0,0,.4.18h.26a1.63,1.63,0,0,0,.31-.11l.13.36a1.82,1.82,0,0,1-.39.14h-.37a1,1,0,0,1-.46-.1,1,1,0,0,1-.32-.25.92.92,0,0,1-.19-.35,1.32,1.32,0,0,1-.06-.39,1.26,1.26,0,0,1,.08-.43,1,1,0,0,1,.54-.52,1.09,1.09,0,0,1,.4-.07.88.88,0,0,1,.39.08.75.75,0,0,1,.29.24.84.84,0,0,1,.14.37,1.19,1.19,0,0,1-.06.46H34.54a.46.46,0,0,1,.12-.23.21.21,0,0,1,.18-.09Z"/><path class="cls-1" d="M33.25,32.55h.59l-.6.86a.44.44,0,0,1-.08-.11,1,1,0,0,1-.07-.15.49.49,0,0,1,0-.17.43.43,0,0,1,0-.16Z"/></g></svg>