<svg id="Layer_1" data-name="Layer 1" xmlns="http://www.w3.org/2000/svg" viewBox="0 0 65 110"><defs><style>.cls-1{fill:#231f20;}</style></defs><title>Asset 16</title><g id="Layer_1-2" data-name="Layer 1-2"><path d="M32.31,103.65H29.85l-2.42-3.74L25,103.65H22.59l3.59-5.33-3.49-5.18h2.46l2.32,3.61,2.32-3.61h2.42l-3.5,5.18Z"/><path d="M36.5,95.7l-2.61.94v-2L38.52,93v8.75H40.9v1.92H34v-1.92h2.5Z"/><path d="M45.18,100.49h-2.6V98.82h2.6V96.2h1.71v2.62h2.6v1.67h-2.6v2.62H45.18Z"/><path class="cls-1" d="M58.48,84.89H53.73a.46.46,0,0,1-.47-.34S52.85,83.4,52,83.4H12.51c-.84,0-1.24,1.14-1.25,1.15a.51.51,0,0,1-.47.34H6a.5.5,0,0,1-.5-.5V11.94A2.39,2.39,0,0,1,7.91,9.55H56.59A2.39,2.39,0,0,1,59,11.94h0V84.39a.5.5,0,0,1-.5.5Zm-4.42-1H58V11.94a1.4,1.4,0,0,0-1.39-1.39H7.93a1.39,1.39,0,0,0-1.39,1.39h0v72h3.92a2.39,2.39,0,0,1,2-1.49H52A2.4,2.4,0,0,1,54.06,83.89ZM51.6,75.61H38.32a.5.5,0,0,1-.5-.5v-3.8a1.14,1.14,0,0,0-1.14-1.14h-9a1.14,1.14,0,0,0-1.14,1.14v3.8a.5.5,0,0,1-.5.5H13.09a.5.5,0,0,1-.5-.5V26a2.24,2.24,0,0,1,2.22-2.22H49.89A2.23,2.23,0,0,1,52.1,26V75.11A.5.5,0,0,1,51.6,75.61Zm-12.78-1H51.1V26a1.22,1.22,0,0,0-1.21-1.22H14.81A1.22,1.22,0,0,0,13.59,26V74.61H25.51v-3.3a2.14,2.14,0,0,1,2.14-2.14h9a2.14,2.14,0,0,1,2.14,2.14Z"/><path class="cls-1" d="M48.9,67.31h-33a.5.5,0,0,1-.5-.5V65.27a.52.52,0,0,1,.5-.5h33a.5.5,0,0,1,.5.5v1.54A.5.5,0,0,1,48.9,67.31Zm-32.5-1h32v-.54h-32Z"/><path class="cls-1" d="M19.5,75.51A.5.5,0,0,1,19,75h0V67.1a.5.5,0,0,1,1,0V75a.5.5,0,0,1-.49.51Z"/><path class="cls-1" d="M45.36,75.51a.52.52,0,0,1-.5-.5v-7.9a.52.52,0,0,1,.5-.5.5.5,0,0,1,.5.5V75a.5.5,0,0,1-.49.51Z"/><path class="cls-1" d="M36.15,78.15H27.89a.52.52,0,0,1-.5-.5V71.71a.52.52,0,0,1,.5-.5h8.26a.52.52,0,0,1,.5.5v5.94A.52.52,0,0,1,36.15,78.15Zm-7.76-1h7.26V72.21H28.39Z"/><rect class="cls-1" x="29.46" y="73.89" width="5.04" height="1.3"/><path class="cls-1" d="M33.49,30.71a.52.52,0,0,1-.29-.09l-1-.71a.5.5,0,1,1,.59-.81h0l1,.71a.5.5,0,0,1,.1.7A.48.48,0,0,1,33.49,30.71Z"/><path class="cls-1" d="M33.5,30.71a.5.5,0,0,1-.5-.5.48.48,0,0,1,.2-.4l1-.71a.5.5,0,1,1,.59.81l-1,.71A.52.52,0,0,1,33.5,30.71Z"/><path class="cls-1" d="M32.51,30a.5.5,0,0,1-.5-.5v-.43a.5.5,0,0,1,1,0v.43A.5.5,0,0,1,32.51,30Z"/><path class="cls-1" d="M32.51,29.57a.52.52,0,0,1-.5-.5V28.4a.52.52,0,0,1,.5-.5.5.5,0,0,1,.5.5v.67A.5.5,0,0,1,32.51,29.57Z"/><path class="cls-1" d="M33.5,28.9h-1a.5.5,0,0,1-.5-.5.52.52,0,0,1,.5-.5h1a.52.52,0,0,1,.5.5A.5.5,0,0,1,33.5,28.9Z"/><path class="cls-1" d="M34.48,30a.5.5,0,0,1-.5-.5v-.43a.5.5,0,0,1,1,0v.43A.5.5,0,0,1,34.48,30Z"/><path class="cls-1" d="M34.48,29.57a.5.5,0,0,1-.5-.5V28.4a.5.5,0,0,1,.5-.5.52.52,0,0,1,.5.5v.67A.52.52,0,0,1,34.48,29.57Z"/><path class="cls-1" d="M34.48,28.9h-1a.5.5,0,0,1-.5-.5.52.52,0,0,1,.5-.5h1a.52.52,0,0,1,.5.5A.5.5,0,0,1,34.48,28.9Z"/><path class="cls-1" d="M35.94,27.14h-5a.5.5,0,0,1-.5-.5V24.56a.5.5,0,0,1,.5-.5h5a.52.52,0,0,1,.5.5v2.08A.5.5,0,0,1,35.94,27.14Zm-4.54-1h4V25.06h-4Z"/><path class="cls-1" d="M35.55,28.78H31.28a.5.5,0,0,1-.49-.39l-.38-1.8a.49.49,0,0,1,.37-.59H35.9a.49.49,0,0,1,.38.18.46.46,0,0,1,.1.42L36,28.39A.48.48,0,0,1,35.55,28.78Zm-3.87-1h3.47l.17-.79H31.51Z"/><path class="cls-1" d="M29.31,16.6h1.46v.23l-.88,1.34-.06.07h1v.38H29.2v-.23L30.1,17v-.07h-.84Z"/><path class="cls-1" d="M32.36,18.61a.24.24,0,0,1-.09-.08l-.06-.11v0a1.27,1.27,0,0,1-.31.2.66.66,0,0,1-.28.05.43.43,0,0,1-.25-.05.5.5,0,0,1-.19-.13A.39.39,0,0,1,31,18.3a.81.81,0,0,1,0-.22.69.69,0,0,1,.05-.24.7.7,0,0,1,.18-.2,1,1,0,0,1,.33-.16,2.28,2.28,0,0,1,.51-.09.68.68,0,0,1-.08.24.27.27,0,0,1-.18.13.31.31,0,0,0-.22.09.28.28,0,0,0-.07.17.21.21,0,0,0,.08.17.22.22,0,0,0,.17.07.39.39,0,0,0,.23-.07,1.34,1.34,0,0,0,.21-.2V17.4a.55.55,0,0,0-.11-.33.41.41,0,0,0-.32-.12h-.21l-.24.07-.14-.34a1.65,1.65,0,0,1,.36-.11,1.71,1.71,0,0,1,.32,0,.94.94,0,0,1,.64.22.82.82,0,0,1,.22.63v.95a1.13,1.13,0,0,0,0,.26Z"/><path class="cls-1" d="M34.74,18.61h-.56l-.42-.68h0l-.35.64h-.59l.66-1-.7-1h.6c.1.16.2.32.31.48l.32.49Z"/><path class="cls-1" d="M36.12,17.38a.49.49,0,0,0,0-.17.61.61,0,0,0-.07-.14.27.27,0,0,0-.11-.1.22.22,0,0,0-.16,0h-.16a.42.42,0,0,0-.15.11.5.5,0,0,0-.1.19.71.71,0,0,0,0,.29.8.8,0,0,0,.15.52.45.45,0,0,0,.4.19.57.57,0,0,0,.26,0,1.08,1.08,0,0,0,.3-.11l.14.36a1.49,1.49,0,0,1-.4.15h-.36a1,1,0,0,1-.46-.1,1.11,1.11,0,0,1-.32-.25.92.92,0,0,1-.19-.35,1.32,1.32,0,0,1-.06-.39,1,1,0,0,1,.08-.44.87.87,0,0,1,.22-.32,1.32,1.32,0,0,1,.32-.2,1.34,1.34,0,0,1,.4-.07.86.86,0,0,1,.39.09.62.62,0,0,1,.29.24.93.93,0,0,1,.14.36,1,1,0,0,1-.07.46H35.47a.61.61,0,0,1,.13-.22.22.22,0,0,1,.18-.1Z"/><path class="cls-1" d="M34.19,16.6h.59l-.6.85a.44.44,0,0,1-.08-.11.71.71,0,0,1-.1-.14.67.67,0,0,1,0-.2.49.49,0,0,1,0-.17Z"/></g></svg>