<svg id="Layer_1" data-name="Layer 1" xmlns="http://www.w3.org/2000/svg" viewBox="0 0 65 110"><defs><style>.cls-1{fill:#231f20;}</style></defs><path class="cls-1" d="M28.9,81.2h1.5v.2l-.9,1.4h.9v.3H28.8v-.3l.9-1.3h-.8Z"/><path class="cls-1" d="M31.9,83.2h-.1a.7.7,0,0,1-.6.2H31c-.2,0-.3-.1-.3-.2h-.2v-.5c0-.1.1-.1.2-.2l.3-.2h.5v.2h-.4v.2a.2.2,0,0,0,.2.2h.4V82c.1-.2,0-.3-.1-.4h-.7l-.2-.4h.7a1.1,1.1,0,0,1,.9.9v.9a.2.2,0,0,0,0,.3Z"/><path class="cls-1" d="M34.3,83.2h-.5l-.5-.7h0l-.3.6h-.6l.7-1-.8-1H33l.3.5.3.5Z"/><path class="cls-1" d="M35.7,81.9h0c0-.1-.1-.1-.1-.2h-.4l-.2.2h-.1v.3a1.4,1.4,0,0,0,.2.6h.4c.1.1.1.1.2,0H36l.2.4H34.9l-.3-.2-.2-.4v-.3a.9.9,0,0,1,.1-.5c0-.1.1-.2.2-.3l.3-.2h.8l.3.2c0,.1.1.2.1.4a.6.6,0,0,1-.1.4H35l.2-.2h.5Z"/><path class="cls-1" d="M33.8,81.2h.6l-.6.8h-.2v-.6Z"/><path d="M15.8,57.7H12.9a.3.3,0,0,1-.3-.3V52.9a.3.3,0,0,1,.3-.3h2.9a.5.5,0,0,1,.3.3v4.5A.3.3,0,0,1,15.8,57.7Zm-2.7-.5h2.5V53.1H13.1Z"/><path d="M25,57.5H15.9c-.2,0-.2-.1-.2-.2s0-.2.2-.2H25a.2.2,0,1,1,0,.4Z"/><path d="M25,53.4H15.9c-.2,0-.2-.1-.2-.2s0-.2.2-.2H25a.2.2,0,0,1,0,.4Z"/><path d="M28,57.7H25c-.2,0-.2-.1-.2-.2h0V53.2c0-.1,0-.1.1-.2h3.7c.2,0,.3.1.3.2h0v2.7h0v.4l-.7.6v.5C28.2,57.6,28.1,57.7,28,57.7Zm-2.8-.5h2.5v-.4h0l.4-.6V53.4h-3Z"/><path d="M27.3,59h-2c-.1,0-.1-.1-.1-.2V57.3c0-.1,0-.2.2-.2h0l.2.2v1.1h1.6V57.3c0-.1,0-.2.2-.2h0l.2.2v1.3c0,.1,0,.1-.1.2h-.1C27.4,59,27.4,59,27.3,59Z"/><path d="M39.1,53.4H28.6c-.2,0-.2-.1-.2-.2s0-.2.2-.2H39.1c.2,0,.3.1.3.2h0C39.4,53.3,39.4,53.4,39.1,53.4Z"/><path d="M39.1,57.5H28c-.2,0-.2-.1-.2-.2h0l.2-.2H39.1c.2,0,.3.1.3.2h0C39.4,57.4,39.4,57.5,39.1,57.5Z"/><path d="M45.6,55.2h0c-.1-.1-.2-.2-.1-.3l.9-1.3-2.9-2-.9,1.3h-.3l-.8-.6h-.3l-1,1.5h0V54c.1.1,0,.2-.1.3s-.2,0-.3-.1l-.2-.2v-.5h0L40.9,52h0l.2-.2h.6l.7.5,1-1.3h.2l3.3,2.3h0v.2l-1,1.5A.4.4,0,0,1,45.6,55.2Z"/><path d="M45.3,58.1H45c-.1,0-.2-.1-.2-.3s.1-.2.3-.2h.3l1-1.5v-.4c-.1-.1,0-.2,0-.3s.2,0,.3.1l.2.3v.5h0l-1,1.5h-.1l-.3.2Z"/><path d="M43.4,58.5h-.1l-3.2-2.3c-.1-.1-.2-.2-.1-.3h.3l3,2.1.7-1h.3c0,.1.1.2.1.3l-.8,1.3Z"/><path d="M39.1,58.3a.2.2,0,0,1-.2-.2h0V52.7a.2.2,0,0,1,.2-.2c.2,0,.3.1.3.2h0v5.4C39.5,58.2,39.4,58.3,39.1,58.3Z"/><path d="M39.1,52.9h0c-.1,0-.1-.2-.1-.3h.1a1.1,1.1,0,0,0,.3-.8c0-.1,0-.2.2-.2a.2.2,0,0,1,.2.2,3,3,0,0,1-.4,1C39.4,52.8,39.3,52.9,39.1,52.9Z"/><path d="M43,52H39.6c-.2,0-.2-.1-.2-.2s0-.2.2-.2H43a.2.2,0,1,1,0,.4Z"/><path d="M48.1,52H44.3c-.2,0-.2-.1-.2-.2s0-.2.2-.2h3.8a.2.2,0,0,1,0,.4Z"/><path d="M43,58.3H39.1a.2.2,0,0,1,0-.4h3.8c.2,0,.2.1.2.2S43.1,58.3,43,58.3Z"/><path d="M48.3,58.3H43.5c-.2,0-.2-.1-.2-.2s0-.2.2-.2h4.8a.2.2,0,1,1,0,.4Z"/><path d="M35.9,85H31.7c-.2,0-.2-.1-.2-.2l.2-.2h3.9V80.9c0-.1.1-.2.3-.2a.2.2,0,0,1,.2.2v3.9A.2.2,0,0,1,35.9,85Z"/><path d="M37.8,79H16.4a.4.4,0,0,1-.4-.4h0v-.7c-.1-.2.1-.4.3-.4H37.8a.4.4,0,0,1,.4.4h0v.7a.4.4,0,0,1-.4.4Zm-21.1-.7H37.6v-.2H16.7Z"/><path d="M31.3,84.5H23.4c-.2,0-.3-.1-.3-.2s.1-.2.3-.2h7.8c.2,0,.3.1.3.2A.2.2,0,0,1,31.3,84.5Z"/><path d="M22.9,85H18.7c-.2,0-.2-.1-.2-.2V80.9c-.1-.1,0-.2.1-.2s.2.1.3.2h0v3.7h4l.2.2a.2.2,0,0,1-.2.2Z"/><path d="M34.1,80.1H20.5l-.3-.2c.1-.1.1-.2.3-.2H34.1a.2.2,0,0,1,.2.2Z"/><path d="M22.9,85h0c-.3,0-.3-.2-.3-.3v-.2h.6c.2,0,.3,0,.3.2s0,.2-.2.3h-.2v.2Z"/><path d="M31.7,85c-.2,0-.2-.1-.2-.2v-.2h-.3c-.1,0-.2-.1-.2-.3s.1-.2.3-.2H32v.2c-.1.1-.2.3-.4.3Z"/><path d="M38.1,81.7H35.9l-.3-.2.3-.2h2.2a.2.2,0,0,1,.2.2C38.3,81.6,38.3,81.7,38.1,81.7Z"/><path d="M38.1,84.5H35.9c-.2,0-.3-.1-.3-.2l.3-.2h2.2l.2.2C38.3,84.4,38.3,84.5,38.1,84.5Z"/><path d="M40.1,85h-2a.2.2,0,0,1-.2-.2V80.9a.2.2,0,0,1,.2-.2c.2,0,.3.1.3.2v3.6h1.7a.2.2,0,0,1,.2.2Z"/><path d="M47.1,85H45.8c-.2,0-.2-.1-.2-.2l.2-.2H47V80.4H40v.3l-.2.2-.3.2H38.3c-.2,0-.2-.1-.2-.2s0-.2.2-.2h1.2v-.3h0v-.2H47a.2.2,0,0,1,.2.2V85Z"/><path d="M40.1,85h0c-.2,0-.2-.1-.2-.3v-.2h.5a.2.2,0,0,1,.2.2c.1.2,0,.2-.2.3h-.2v.2C40.3,84.9,40.1,85,40.1,85Z"/><path d="M45.8,85c-.2,0-.2-.1-.2-.2v-.2h-5l-.2-.2a.2.2,0,0,1,.2-.2h5.5v.2l-.3.2Z"/><path d="M46.6,55.8h-.1l-.9-.6c-.1-.1-.2-.2-.1-.3h.3l.9.6c0,.1.1.2.1.3Z"/><path d="M40.1,56.3h0c-.1-.1-.2-.2-.1-.3l.7-1-.7-.5c-.1-.1-.2-.2-.1-.3h.3l.9.6h.1V55l-.8,1.1Z"/><path d="M45.1,58H45l-1-.6c-.1-.1-.2-.2-.1-.3h.3l.9.6c0,.1.1.2.1.3Z"/><path d="M48.1,58.3c-.2,0-.2-.1-.2-.2s0-.2.2-.2h3.5V53.2H48.3c-.2,0-.2-.1-.2-.2s0-.2.2-.2h4.1v.2h0v4.4H52c0,.1,0,.1-.1.1H48.1Z"/><path d="M48.1,49.7H40.6a.2.2,0,1,1,0-.4h7.5c.2,0,.3.1.3.2S48.3,49.7,48.1,49.7Z"/><path d="M43.1,51.2H39.6c-.2,0-.2-.1-.2-.2h0V49.5c0-.1,0-.2.2-.2h1c.2,0,.3.1.3.2s-.1.2-.3.2h-.9v1.1h3.4a.2.2,0,0,1,.2.2h0C43.3,51.1,43.3,51.2,43.1,51.2Z"/><path d="M48.1,51.2h-6c-.2,0-.2-.1-.2-.2s0-.2.2-.2h6a.2.2,0,0,1,0,.4Z"/><path d="M42.1,68.7c-.2,0-.2-.1-.2-.2V58.1c0-.1,0-.2.2-.2a.2.2,0,0,1,.2.2V68.5A.2.2,0,0,1,42.1,68.7Z"/><path d="M44.9,68.7l-.3-.2V58.1c0-.1.1-.2.3-.2a.2.2,0,0,1,.2.2V68.5A.2.2,0,0,1,44.9,68.7Z"/><path d="M46.6,79.3H40.1c-.1,0-.2-.1-.2-.3h0V69.3c0-.1.1-.3.2-.3h6.5a.3.3,0,0,1,.3.3h0V79A.3.3,0,0,1,46.6,79.3Zm-6.2-.5h6V69.5h-6Z"/><path d="M40.1,79.9l-.2-.2V69c0-.1,0-.2.2-.2a.2.2,0,0,1,.2.2V79.6A.4.4,0,0,1,40.1,79.9Z"/><path d="M46.9,79.9l-.3-.2V69l.3-.2a.2.2,0,0,1,.2.2V79.6C47.1,79.8,47,79.9,46.9,79.9Z"/><path d="M40.6,80.4h-.8v-.2c0-.1,0-.2.2-.3s.2,0,.3.2v.2h.2a.4.4,0,0,1,.1.3h0C40.8,80.3,40.6,80.4,40.6,80.4Z"/><path d="M46.4,80.4h-.3c0-.1.1-.2.1-.3h.2v-.2c0-.1.2-.2.3-.2s.2.2.2.3h-.2l-.4-.2Z"/><path d="M40.1,69.2h0c-.2,0-.2-.1-.2-.3v-.2h0l.2-.3h.5c.2,0,.3.1.3.2l-.3.2h-.4V69C40.3,69.2,40.1,69.2,40.1,69.2Z"/><path d="M46.9,69.2l-.3-.2-.2-.3H40.6l-.2-.2c0-.1,0-.2.2-.2h6.2l.2.2v.2h0c0,.3,0,.4-.2.4Z"/><path d="M49,69.9H47.9c-.1,0-.1-.1-.1-.2V65.4c0-.1,0-.1.1-.1h.7l.7.3.8.3.4.2.3.3.2.4.2.5v1.2l-.2.4-.3.3-.5.4-.4.2H49Zm-.8-.6.7.2h.6l.4-.2.4-.3.3-.4.2-.4v-1l-.2-.4-.4-.4-.4-.3-.5-.2-.8-.3-.5-.2Z"/><path d="M50.3,56.6a1.3,1.3,0,1,1,0-2.6,1.3,1.3,0,0,1,1.3,1.3h0A1.3,1.3,0,0,1,50.3,56.6Zm0-2.2a.9.9,0,0,0,0,1.8,1,1,0,0,0,.9-.9C51.3,54.8,50.9,54.4,50.3,54.4Z"/><path d="M47.6,81.3c-.1,0-.3-.1-.3-.2s-.1-.5.1-.6h.2V69.7c0-.2.1-.4.3-.4H48a.4.4,0,0,1,.4.4h0V80.4h-.9Z"/><path d="M18.7,81.1l-.2-.2c0-.1,0-.2.2-.3l.9-.2.4-.3.5-.5h.3v.3h0l-.8.7-.5.3Z"/><path d="M35.9,81.1h0l-.8-.2-.5-.2-.5-.5-.2-.2v-.3c.1-.1.3-.1.3,0l.6.6.4.2.6.2c.1,0,.2.1.2.3Z"/><path d="M21.8,80.1l-.2-.2V78.7c-.1-.1,0-.2.1-.2s.2.1.3.2h0v1.2Z"/><path d="M32.4,80.1l-.3-.2V78.7c0-.1.1-.2.3-.2a.2.2,0,0,1,.2.2h0v1.2C32.6,80,32.6,80.1,32.4,80.1Z"/><path d="M48.3,65.6a.4.4,0,0,1-.4-.4h0v-16c0-4.7-4.6-8.6-10.3-8.6s-10.3,3.8-10.3,8.6v3.7c-.1.2-.2.4-.5.4s-.3-.2-.3-.4V49h0c.2-5.1,5.1-9.2,11.2-9.2S48.8,44,48.9,49.2h0v16A.6.6,0,0,1,48.3,65.6Z"/><path d="M27.8,103.7V93.5h1.3v10.2Z"/><path d="M32.3,94a.9.9,0,0,1-1.8,0,.9.9,0,0,1,1.8,0Zm-1.5,9.7V95.9H32v7.8Z"/><path d="M35.3,96.8v4a1.5,1.5,0,0,0,1.2,1.7h.4a2.7,2.7,0,0,0,1.5-.5l.6.9a4.2,4.2,0,0,1-2.2.8c-1.7,0-2.7-1-2.7-2.9v-4H32.7V95.7h1.4V93.3h1.2v2.4h3.3v1.1Z"/><path d="M46.5,99.6v.4H40.2a2.8,2.8,0,0,0,2.8,2.6h0a3.9,3.9,0,0,0,2.5-1l.6.8a4.2,4.2,0,0,1-3.2,1.3A3.9,3.9,0,0,1,39,100v-.4a3.8,3.8,0,0,1,3.4-4h.4C45,95.6,46.5,97.2,46.5,99.6ZM40.3,99h5a2.5,2.5,0,0,0-5,0Z"/><path d="M26.3,103.7H24l-1.7-2.3-1.6,2.3H18.5l2.6-3.7-2.5-3.5h2.3l1.5,2.2L24,96.5h2.2L23.6,100Z"/></svg>