<svg id="Layer_1" data-name="Layer 1" xmlns="http://www.w3.org/2000/svg" viewBox="0 0 65 110"><defs><style>.cls-1{fill:#231f20;}</style></defs><path d="M33.2,103.7H30.7L28.4,100l-2.5,3.7H23.3L27,98.3l-3.6-5.2h2.5l2.4,3.7,2.2-3.7H33l-3.6,5.2Z"/><path d="M37.8,92.8a3.4,3.4,0,0,1,3.6,3v.4a4.5,4.5,0,0,1-1.6,3.1l-2.2,2.3h4.1v2h-7v-1.7l3.7-3.8a2.6,2.6,0,0,0,.9-1.9,1.5,1.5,0,0,0-1.4-1.6h-.2a2.4,2.4,0,0,0-2.1,1.1l-1.3-1.3A4.6,4.6,0,0,1,37.8,92.8Z"/><path class="cls-1" d="M25.1,39.6H19.3a.8.8,0,0,1-.1-.4l1-3.4a.5.5,0,0,1,.5-.3h4.4a.4.4,0,0,1,.4.4h0v3.4A.4.4,0,0,1,25.1,39.6Zm-4.9-.8h4.4V36.2H21Z"/><path class="cls-1" d="M50.2,85H47c-.2,0-.3,0-.4-.2s-.2-.7-.7-.7H19.1c-.5,0-.7.7-.7.7l-.5.2H14.7a.4.4,0,0,1-.4-.4h0V40.5A1.8,1.8,0,0,1,16,38.8H49a1.9,1.9,0,0,1,1.7,1.7V84.6C50.8,84.9,50.5,85,50.2,85Zm-2.8-.8h2.5V40.5a1,1,0,0,0-.7-.9H16.1a.9.9,0,0,0-.9.9h0V84.2h2.6a1.9,1.9,0,0,1,1.4-1H45.9A2.5,2.5,0,0,1,47.4,84.2Zm-1.7-5.9H38.6a.4.4,0,0,1-.4-.4h0V74.5a1,1,0,0,0-.7-.7H27.4a.8.8,0,0,0-.7.7v3.4a.4.4,0,0,1-.4.4H19.6c-.3,0-.5-.1-.5-.4V46.2a2.7,2.7,0,0,1,2.7-2.7H43.3A2.7,2.7,0,0,1,46,46.2h0V77.8C46,78.1,45.9,78.3,45.7,78.3ZM39,77.4h6.3V46.2a1.9,1.9,0,0,0-1.9-1.8H21.8A1.8,1.8,0,0,0,20,46.2h0V77.3h5.9V74.4a1.5,1.5,0,0,1,1.5-1.5h10a1.5,1.5,0,0,1,1.5,1.5Z"/><path class="cls-1" d="M36,80.5H29.1a.4.4,0,0,1-.4-.4h0v-5a.5.5,0,0,1,.4-.5H36a.5.5,0,0,1,.5.5v5C36.5,80.3,36.2,80.5,36,80.5Zm-6.5-.9h6.1V75.5H29.5Z"/><path class="cls-1" d="M43.8,71H21.5a.4.4,0,0,1-.4-.4h0v-1c0-.3.1-.5.4-.5H43.8c.3,0,.4.2.4.5v1a.4.4,0,0,1-.4.4Zm-21.9-.8H43.4V70H21.9Z"/><path class="cls-1" d="M23.9,78.2a.7.7,0,0,1-.5-.4V70.9a.5.5,0,0,1,.5-.4.4.4,0,0,1,.4.4h0v6.9A.4.4,0,0,1,23.9,78.2Z"/><path class="cls-1" d="M41.5,78.2a.7.7,0,0,1-.5-.4V70.9a.5.5,0,0,1,.5-.4.4.4,0,0,1,.4.4h0v6.9C41.8,78,41.6,78.2,41.5,78.2Z"/><path class="cls-1" d="M22.9,36.2a.7.7,0,0,1-.4-.5v-.2a.4.4,0,0,1,.4-.4h0c.3,0,.5.1.5.4v.2A.5.5,0,0,1,22.9,36.2Z"/><path class="cls-1" d="M33.6,39.5c-.3,0-.4-.2-.4-.5V35.6c0-.3.1-.4.4-.4a.4.4,0,0,1,.4.4h0V39A.7.7,0,0,1,33.6,39.5Z"/><path class="cls-1" d="M33.6,36.1a.4.4,0,0,1-.4-.4h0a5,5,0,0,0-4.8-5.2,4.6,4.6,0,0,0-5.1,4.2v.5h0v.5a.4.4,0,0,1-.4.4h0a.7.7,0,0,1-.5-.4A6,6,0,0,1,28,29.6a5.8,5.8,0,0,1,6,5.6h0v.5a.4.4,0,0,1-.4.4Z"/><rect class="cls-1" x="30.5" y="77" width="4.2" height="1.1"/><path class="cls-1" d="M32.5,49.3h-.3l-.8-.6c-.2-.2-.3-.4-.1-.6a.5.5,0,0,1,.6-.1h0l.8.6c.2.2.3.4.1.6Z"/><path class="cls-1" d="M32.5,49.3c-.2,0-.3-.1-.3-.2s-.1-.4,0-.6l.9-.6a.4.4,0,0,1,.6.1.5.5,0,0,1-.1.6h0l-.9.6Z"/><path class="cls-1" d="M31.6,48.6a.4.4,0,0,1-.4-.4h0v-.4a.4.4,0,0,1,.4-.4h0c.2,0,.5.1.5.4v.4C32.1,48.4,31.8,48.6,31.6,48.6Z"/><path class="cls-1" d="M31.6,48.3a.7.7,0,0,1-.4-.5v-.6a.4.4,0,0,1,.4-.4h0c.2,0,.5.1.5.4v.6A.5.5,0,0,1,31.6,48.3Z"/><path class="cls-1" d="M32.5,47.8h-.9a.7.7,0,0,1-.4-.5.4.4,0,0,1,.4-.4h.9a.4.4,0,0,1,.4.4h0Z"/><path class="cls-1" d="M33.3,48.6a.7.7,0,0,1-.5-.4v-.4a.5.5,0,0,1,.5-.4.4.4,0,0,1,.4.4h0v.4a.4.4,0,0,1-.4.4Z"/><path class="cls-1" d="M33.3,48.3a.5.5,0,0,1-.5-.5v-.6a.5.5,0,0,1,.5-.4.4.4,0,0,1,.4.4h0v.6A.7.7,0,0,1,33.3,48.3Z"/><path class="cls-1" d="M33.3,47.8h-.9a.7.7,0,0,1-.4-.5.4.4,0,0,1,.4-.4h.9a.4.4,0,0,1,.4.4h0A.7.7,0,0,1,33.3,47.8Z"/><path class="cls-1" d="M34.5,46.2H30.3c-.3,0-.4-.1-.4-.4V44a.4.4,0,0,1,.4-.4h4.2a.4.4,0,0,1,.4.4h0v1.8C34.9,46.1,34.8,46.2,34.5,46.2Zm-3.9-.8H34v-.9H30.6Z"/><path class="cls-1" d="M34.2,47.6H30.5c-.1,0-.3-.2-.4-.4l-.3-1.5c-.1-.2.1-.4.3-.5h4.3c.2,0,.3,0,.4.2s.1.2.1.3l-.4,1.5C34.6,47.5,34.4,47.6,34.2,47.6Zm-3.3-.9h2.9l.2-.6H30.8Z"/><path class="cls-1" d="M28.8,40.7h1.4v.2l-.8,1.3h.8v.4H28.7v-.3l.9-1.3h-.8Z"/><path class="cls-1" d="M31.8,42.7c0-.1,0-.1-.1-.1h0l-.3.2h-.6l-.2-.2h-.1v-.5l.2-.2h.9c0,.1,0,.1-.1.2a.1.1,0,0,1-.1.1h-.3a.2.2,0,0,0,.2.2h.2l.3-.2v-.6c0-.1-.1-.2-.2-.3l-.3-.2h-.4l-.2-.3h.7a.5.5,0,0,1,.6.2.6.6,0,0,1,.3.6v1.3Z"/><path class="cls-1" d="M34.2,42.7h-.6l-.4-.7h0l-.3.6h-.6l.6-1-.7-1h.7c0,.2.2.3.3.5l.3.5Z"/><path class="cls-1" d="M35.6,41.4h0c0-.1,0-.1-.1-.2s0-.1-.1-.1h-.3a.1.1,0,0,1-.1.1c-.1,0-.1.1-.1.2s-.1.2,0,.2h0c-.1.1,0,.3.1.5s.2.2.4.2H36v.4H34.9l-.3-.2-.2-.4a1.1,1.1,0,0,1,0-.8c0-.1.1-.2.2-.3l.3-.2h.8l.3.2c.1.1.1.2.1.4v.4h-1c0-.1.1-.1.2-.1Z"/><path class="cls-1" d="M33.7,40.7h.5l-.6.8c0-.1-.1-.2-.1-.3h0V41Z"/></svg>