<?xml version="1.0" encoding="utf-8"?>
<!-- Generator: Adobe Illustrator 24.1.2, SVG Export Plug-In . SVG Version: 6.00 Build 0)  -->
<svg version="1.1" id="Layer_1" xmlns="http://www.w3.org/2000/svg" xmlns:xlink="http://www.w3.org/1999/xlink" x="0px" y="0px"
	 viewBox="0 0 65 110" style="enable-background:new 0 0 65 110;" xml:space="preserve">
<style type="text/css">
	.st0{fill:#231F20;}
</style>
<g>
	<path d="M24.1,103.9h-2.5l-2.4-3.7l-2.4,3.7h-2.5l3.6-5.3l-3.5-5.2h2.5l2.3,3.6l2.3-3.6h2.4l-3.5,5.2L24.1,103.9z"/>
	<rect x="23.5" y="98.6" width="4.1" height="1.6"/>
	<polygon points="30.7,93.9 28.7,93.9 28.7,103.8 35.8,103.8 35.8,101.9 30.7,101.9 	"/>
	<rect x="36.2" y="97" width="1.8" height="6.8"/>
	<path d="M37.1,93.6c-0.7,0-1.2,0.5-1.2,1.2s0.5,1.2,1.2,1.2s1.2-0.5,1.2-1.2S37.7,93.6,37.1,93.6z"/>
	<path d="M42.6,102.2c-0.6,0-1-0.3-1-1.2v-2.5h2.5v-1.6h-2.5v-2h-1.8v2h-1.3v1.6h1.3v2.6c0,1.8,0.9,2.7,2.5,2.7c1,0,1.7-0.3,2.3-0.7
		l-0.7-1.4C43.5,102,43,102.2,42.6,102.2z"/>
	<path d="M47.7,96.8c-2,0-3.4,1.5-3.4,3.6s1.5,3.6,3.5,3.6c1.2,0,2.1-0.3,2.9-1l-1.1-1.2c-0.5,0.4-1.1,0.7-1.7,0.7
		c-0.9,0-1.6-0.4-1.7-1.4H51c0-0.2,0-0.4,0-0.6C51,98.2,49.7,96.8,47.7,96.8z M46.2,99.7c0.2-0.8,0.7-1.4,1.5-1.4s1.3,0.5,1.5,1.4
		H46.2z"/>
</g>
<g>
	<path d="M15.6,58.3h-2.9c-0.1,0-0.3-0.1-0.3-0.3v-4.5c0-0.1,0.1-0.3,0.3-0.3h2.9c0.1,0,0.3,0.1,0.3,0.3V58
		C15.9,58.2,15.8,58.3,15.6,58.3z M12.9,57.8h2.5v-4.1h-2.5V57.8z"/>
</g>
<g>
	<path d="M24.8,58.1h-9.1c-0.1,0-0.2-0.1-0.2-0.2s0.1-0.2,0.2-0.2h9.1c0.1,0,0.2,0.1,0.2,0.2S24.9,58.1,24.8,58.1z"/>
</g>
<g>
	<path d="M24.8,54h-9.1c-0.1,0-0.2-0.1-0.2-0.2s0.1-0.2,0.2-0.2h9.1c0.1,0,0.2,0.1,0.2,0.2S24.9,54,24.8,54z"/>
</g>
<g>
	<path d="M27.8,58.3h-3c-0.1,0-0.2-0.1-0.2-0.2v-4.3c0-0.1,0-0.1,0.1-0.2s0.1-0.1,0.2-0.1c0,0,0,0,0,0l3.6,0c0.1,0,0.2,0.1,0.2,0.2
		l0,2.7c0,0,0,0,0,0.1l-0.1,0.4L28,57.5v0.5C28,58.2,27.9,58.3,27.8,58.3z M25,57.8h2.5v-0.4c0,0,0-0.1,0-0.1l0.4-0.6l0.1-0.3l0-0.2
		l0-2.2L25,54V57.8z"/>
</g>
<g>
	<path d="M27.1,59.6h-1.7c-0.1,0-0.1,0-0.2-0.1l-0.1-0.1c0,0-0.1-0.1-0.1-0.2v-1.3c0-0.1,0.1-0.2,0.2-0.2s0.2,0.1,0.2,0.2v1.1H27
		v-1.1c0-0.1,0.1-0.2,0.2-0.2s0.2,0.1,0.2,0.2v1.3c0,0.1,0,0.1-0.1,0.2l-0.1,0.1C27.2,59.6,27.2,59.6,27.1,59.6z"/>
</g>
<g>
	<path d="M39,54H28.4c-0.1,0-0.2-0.1-0.2-0.2s0.1-0.2,0.2-0.2H39c0.1,0,0.2,0.1,0.2,0.2S39.2,54,39,54z"/>
</g>
<g>
	<path d="M39,58.1H27.8c-0.1,0-0.2-0.1-0.2-0.2s0.1-0.2,0.2-0.2H39c0.1,0,0.2,0.1,0.2,0.2S39.2,58.1,39,58.1z"/>
</g>
<g>
	<path d="M45.5,55.8c0,0-0.1,0-0.1,0c-0.1-0.1-0.1-0.2-0.1-0.3l0.9-1.3l-2.9-2l-0.9,1.3c-0.1,0.1-0.2,0.1-0.3,0.1l-0.8-0.6l-0.1,0
		L41,53l-1,1.5l0,0.1l0.1,0.2c0.1,0.1,0,0.2-0.1,0.3c-0.1,0.1-0.2,0-0.3-0.1l-0.2-0.2c0-0.1,0-0.1,0-0.2l0.1-0.3c0,0,0-0.1,0-0.1
		l1.1-1.6c0,0,0,0,0.1-0.1l0.2-0.2c0,0,0.1,0,0.2,0l0.3,0.1c0,0,0.1,0,0.1,0l0.7,0.5l0.9-1.3c0.1-0.1,0.2-0.1,0.3-0.1l3.2,2.3
		c0,0,0.1,0.1,0.1,0.1c0,0.1,0,0.1,0,0.2l-1.1,1.5C45.6,55.8,45.5,55.8,45.5,55.8z"/>
</g>
<g>
	<path d="M45.1,58.7C45.1,58.7,45.1,58.7,45.1,58.7l-0.3-0.1c-0.1,0-0.2-0.1-0.2-0.3c0-0.1,0.1-0.2,0.3-0.2l0.2,0l0.1-0.1l1-1.5
		l0-0.2l-0.1-0.2c-0.1-0.1,0-0.2,0.1-0.3c0.1-0.1,0.2,0,0.3,0.1l0.2,0.3c0,0,0,0.1,0,0.2l-0.1,0.3c0,0,0,0.1,0,0.1l-1.1,1.5
		c0,0,0,0-0.1,0.1l-0.3,0.2C45.2,58.7,45.2,58.7,45.1,58.7z"/>
</g>
<g>
	<path d="M43.2,59.1c0,0-0.1,0-0.1,0l-3.2-2.3c-0.1-0.1-0.1-0.2-0.1-0.3c0.1-0.1,0.2-0.1,0.3-0.1l3,2.1l0.7-1
		c0.1-0.1,0.2-0.1,0.3-0.1c0.1,0.1,0.1,0.2,0.1,0.3L43.4,59C43.3,59.1,43.2,59.1,43.2,59.1z"/>
</g>
<g>
	<path d="M39,58.9c-0.1,0-0.2-0.1-0.2-0.2v-5.4c0-0.1,0.1-0.2,0.2-0.2c0.1,0,0.2,0.1,0.2,0.2v5.4C39.3,58.8,39.2,58.9,39,58.9z"/>
</g>
<g>
	<path d="M39,53.5c0,0-0.1,0-0.1-0.1c-0.1-0.1-0.1-0.2,0-0.3c0.2-0.2,0.3-0.5,0.3-0.8c0-0.1,0.1-0.2,0.2-0.2c0.1,0,0.2,0.1,0.2,0.2
		c0,0.4-0.2,0.7-0.4,1C39.2,53.4,39.1,53.5,39,53.5z"/>
</g>
<g>
	<path d="M42.8,52.6h-3.4c-0.1,0-0.2-0.1-0.2-0.2s0.1-0.2,0.2-0.2h3.4c0.1,0,0.2,0.1,0.2,0.2S42.9,52.6,42.8,52.6z"/>
</g>
<g>
	<path d="M47.9,52.6h-3.8c-0.1,0-0.2-0.1-0.2-0.2s0.1-0.2,0.2-0.2h3.8c0.1,0,0.2,0.1,0.2,0.2S48,52.6,47.9,52.6z"/>
</g>
<g>
	<path d="M42.8,58.9H39c-0.1,0-0.2-0.1-0.2-0.2c0-0.1,0.1-0.2,0.2-0.2h3.8c0.1,0,0.2,0.1,0.2,0.2C43,58.8,42.9,58.9,42.8,58.9z"/>
</g>
<g>
	<path d="M48.1,58.9h-4.8c-0.1,0-0.2-0.1-0.2-0.2c0-0.1,0.1-0.2,0.2-0.2h4.8c0.1,0,0.2,0.1,0.2,0.2C48.3,58.8,48.2,58.9,48.1,58.9z"
		/>
</g>
<g>
	<path d="M35.7,85.6h-4.2c-0.1,0-0.2-0.1-0.2-0.2s0.1-0.2,0.2-0.2h4v-3.7c0-0.1,0.1-0.2,0.2-0.2s0.2,0.1,0.2,0.2v3.9
		C35.9,85.5,35.8,85.6,35.7,85.6z"/>
</g>
<g>
	<g>
		<path d="M37.6,79.6H16.2c-0.2,0-0.4-0.2-0.4-0.4v-0.7c0-0.2,0.2-0.4,0.4-0.4h21.4c0.2,0,0.4,0.2,0.4,0.4v0.7
			C38,79.4,37.8,79.6,37.6,79.6z M16.5,78.9h20.9v-0.2H16.5V78.9z"/>
	</g>
</g>
<g>
	<path d="M31.1,85.1h-7.9c-0.1,0-0.2-0.1-0.2-0.2s0.1-0.2,0.2-0.2h7.9c0.1,0,0.2,0.1,0.2,0.2S31.2,85.1,31.1,85.1z"/>
</g>
<g>
	<path d="M22.7,85.6h-4.2c-0.1,0-0.2-0.1-0.2-0.2v-3.9c0-0.1,0.1-0.2,0.2-0.2s0.2,0.1,0.2,0.2v3.7h4c0.1,0,0.2,0.1,0.2,0.2
		S22.8,85.6,22.7,85.6z"/>
</g>
<g>
	<path d="M33.9,80.7H20.3c-0.1,0-0.2-0.1-0.2-0.2s0.1-0.2,0.2-0.2h13.6c0.1,0,0.2,0.1,0.2,0.2S34,80.7,33.9,80.7z"/>
</g>
<g>
	<path d="M22.7,85.6C22.6,85.6,22.6,85.6,22.7,85.6c-0.2,0-0.2-0.2-0.2-0.3l0.1-0.2c0,0,0-0.1,0-0.1c0,0,0-0.1,0-0.1c0,0,0,0,0,0
		c0,0,0-0.1,0.1-0.1c0,0,0.1-0.1,0.1-0.1c0,0,0.1,0,0.1,0c0,0,0,0,0.1,0l0.2-0.1c0.1,0,0.2,0,0.3,0.2c0,0.1,0,0.2-0.2,0.3l-0.2,0
		l0,0l0,0l0,0l0,0l-0.1,0.2C22.8,85.5,22.8,85.6,22.7,85.6z"/>
</g>
<g>
	<path d="M31.5,85.6c-0.1,0-0.2-0.1-0.2-0.2l-0.1-0.2l0,0l0,0l0,0l0,0l-0.2,0c-0.1,0-0.2-0.1-0.2-0.3c0-0.1,0.1-0.2,0.3-0.2l0.2,0.1
		c0,0,0.1,0,0.1,0c0,0,0.1,0,0.1,0c0,0,0.1,0.1,0.1,0.1c0,0,0.1,0.1,0.1,0.1c0,0,0,0.1,0.1,0.1l0.1,0.2
		C31.8,85.4,31.7,85.6,31.5,85.6C31.6,85.6,31.6,85.6,31.5,85.6z"/>
</g>
<g>
	<path d="M37.9,82.3h-2.2c-0.1,0-0.2-0.1-0.2-0.2s0.1-0.2,0.2-0.2h2.2c0.1,0,0.2,0.1,0.2,0.2S38.1,82.3,37.9,82.3z"/>
</g>
<g>
	<path d="M37.9,85.1h-2.2c-0.1,0-0.2-0.1-0.2-0.2s0.1-0.2,0.2-0.2h2.2c0.1,0,0.2,0.1,0.2,0.2S38.1,85.1,37.9,85.1z"/>
</g>
<g>
	<path d="M39.9,85.6H38c-0.1,0-0.2-0.1-0.2-0.2v-3.9c0-0.1,0.1-0.2,0.2-0.2s0.2,0.1,0.2,0.2v3.6h1.7c0.1,0,0.2,0.1,0.2,0.2
		S40,85.6,39.9,85.6z"/>
</g>
<g>
	<path d="M47,85.6h-1.4c-0.1,0-0.2-0.1-0.2-0.2s0.1-0.2,0.2-0.2h1.2V81h-7l-0.1,0.3l-0.2,0.2l-0.3,0.2l-0.3,0.1l-0.1,0l-0.5,0
		l-0.2,0c-0.1,0-0.2-0.1-0.2-0.2s0.1-0.2,0.2-0.2l0.2,0l0.5,0l0.5-0.1l0.1-0.3l0-0.1c0-0.1,0-0.1,0.1-0.2s0.1-0.1,0.2-0.1H47
		c0.1,0,0.2,0.1,0.2,0.2v4.6C47.2,85.5,47.1,85.6,47,85.6z"/>
</g>
<g>
	<path d="M39.9,85.6C39.9,85.6,39.9,85.6,39.9,85.6c-0.2,0-0.2-0.1-0.2-0.3l0.1-0.2c0,0,0-0.1,0-0.1c0,0,0-0.1,0-0.1
		c0,0,0-0.1,0-0.1c0,0,0,0,0,0c0,0,0.1-0.1,0.1-0.1c0,0,0.1,0,0.1,0c0,0,0.1,0,0.1,0l0.2-0.1c0.1,0,0.2,0,0.3,0.2
		c0,0.1,0,0.2-0.2,0.3l-0.2,0l0,0l0,0l0,0l0,0l0,0l0,0l0,0v0l-0.1,0.2C40.1,85.5,40,85.6,39.9,85.6z"/>
</g>
<g>
	<path d="M45.6,85.6c-0.1,0-0.2-0.1-0.2-0.2l0-0.2l0,0l0,0l0,0l0,0l-0.2,0l-4.7,0c-0.1,0-0.2-0.1-0.2-0.2s0.1-0.2,0.2-0.2h4.7
		l0.3,0.1c0,0,0,0,0.1,0c0,0,0.1,0,0.1,0c0,0,0.1,0,0.1,0c0,0,0,0,0.1,0c0,0,0,0,0,0.1c0,0,0,0,0,0c0,0,0,0.1,0,0.1c0,0,0,0.1,0,0.1
		l0,0.2C45.8,85.4,45.7,85.6,45.6,85.6C45.6,85.6,45.6,85.6,45.6,85.6z"/>
</g>
<g>
	<path d="M46.4,56.4c0,0-0.1,0-0.1,0l-0.9-0.6c-0.1-0.1-0.1-0.2-0.1-0.3c0.1-0.1,0.2-0.1,0.3-0.1l0.9,0.6c0.1,0.1,0.1,0.2,0.1,0.3
		C46.5,56.4,46.4,56.4,46.4,56.4z"/>
</g>
<g>
	<path d="M40,56.9c0,0-0.1,0-0.1,0c-0.1-0.1-0.1-0.2-0.1-0.3l0.7-1l-0.7-0.5c-0.1-0.1-0.1-0.2-0.1-0.3c0.1-0.1,0.2-0.1,0.3-0.1
		l0.9,0.6c0,0,0.1,0.1,0.1,0.1c0,0.1,0,0.1,0,0.2l-0.8,1.1C40.1,56.8,40,56.9,40,56.9z"/>
</g>
<g>
	<path d="M44.9,58.6c0,0-0.1,0-0.1,0L43.8,58c-0.1-0.1-0.1-0.2-0.1-0.3c0.1-0.1,0.2-0.1,0.3-0.1l0.9,0.6c0.1,0.1,0.1,0.2,0.1,0.3
		C45,58.6,44.9,58.6,44.9,58.6z"/>
</g>
<g>
	<path d="M47.9,58.9c-0.1,0-0.2-0.1-0.2-0.2s0.1-0.2,0.2-0.2l3.6-0.1l0,0l0,0l0,0l0,0l0,0l0,0l0,0l0,0l0.1-0.2l0-4.4l0-0.1l0,0l0,0
		l0,0l0,0l-0.2-0.1l-3.3,0c-0.1,0-0.2-0.1-0.2-0.2s0.1-0.2,0.2-0.2h3.4l0.3,0.1c0,0,0.1,0,0.1,0c0,0,0.1,0,0.1,0c0,0,0.1,0,0.1,0.1
		c0,0,0.1,0.1,0.1,0.1c0,0,0,0.1,0.1,0.1c0,0,0,0.1,0,0.1l0.1,0.2c0,0,0,0,0,0.1v4.4c0,0,0,0,0,0.1L52,58.4c0,0,0,0.1,0,0.1
		c0,0,0,0.1-0.1,0.1c0,0,0,0,0,0c0,0-0.1,0.1-0.1,0.1c0,0-0.1,0.1-0.1,0.1c0,0-0.1,0-0.1,0l-0.3,0.1L47.9,58.9z"/>
</g>
<g>
	<path d="M48,50.3h-7.5c-0.1,0-0.2-0.1-0.2-0.2s0.1-0.2,0.2-0.2H48c0.1,0,0.2,0.1,0.2,0.2S48.1,50.3,48,50.3z"/>
</g>
<g>
	<path d="M42.9,51.8h-3.5c-0.1,0-0.2-0.1-0.2-0.2v-1.5c0-0.1,0.1-0.2,0.2-0.2h1.1c0.1,0,0.2,0.1,0.2,0.2s-0.1,0.2-0.2,0.2h-0.9v1.1
		h3.3c0.1,0,0.2,0.1,0.2,0.2S43.1,51.8,42.9,51.8z"/>
</g>
<g>
	<path d="M47.9,51.8h-6c-0.1,0-0.2-0.1-0.2-0.2s0.1-0.2,0.2-0.2h6c0.1,0,0.2,0.1,0.2,0.2S48,51.8,47.9,51.8z"/>
</g>
<g>
	<path d="M41.9,69.3c-0.1,0-0.2-0.1-0.2-0.2V58.7c0-0.1,0.1-0.2,0.2-0.2s0.2,0.1,0.2,0.2v10.4C42.1,69.2,42,69.3,41.9,69.3z"/>
</g>
<g>
	<path d="M44.7,69.3c-0.1,0-0.2-0.1-0.2-0.2V58.7c0-0.1,0.1-0.2,0.2-0.2s0.2,0.1,0.2,0.2v10.4C44.9,69.2,44.8,69.3,44.7,69.3z"/>
</g>
<g>
	<path d="M46.5,79.9H40c-0.1,0-0.3-0.1-0.3-0.3v-9.7c0-0.1,0.1-0.3,0.3-0.3h6.5c0.1,0,0.3,0.1,0.3,0.3v9.7
		C46.7,79.8,46.6,79.9,46.5,79.9z M40.2,79.4h6.1v-9.3h-6.1V79.4z"/>
</g>
<g>
	<path d="M39.9,80.5c-0.1,0-0.2-0.1-0.2-0.2V69.6c0-0.1,0.1-0.2,0.2-0.2s0.2,0.1,0.2,0.2v10.6C40.1,80.4,40,80.5,39.9,80.5z"/>
</g>
<g>
	<path d="M46.7,80.5c-0.1,0-0.2-0.1-0.2-0.2V69.6c0-0.1,0.1-0.2,0.2-0.2s0.2,0.1,0.2,0.2v10.6C46.9,80.4,46.8,80.5,46.7,80.5z"/>
</g>
<g>
	<path d="M40.4,81C40.4,81,40.3,81,40.4,81l-0.3-0.1c0,0-0.1,0-0.1,0c0,0,0,0-0.1,0c0,0,0,0-0.1,0c0,0,0,0-0.1-0.1c0,0,0,0,0-0.1
		c0,0,0,0,0-0.1c0,0-0.1-0.1-0.1-0.1l-0.1-0.2c0-0.1,0-0.2,0.2-0.3c0.1,0,0.2,0,0.3,0.2l0.1,0.2l0,0l0,0l0,0l0,0l0.2,0.1
		c0.1,0,0.2,0.2,0.1,0.3C40.6,80.9,40.5,81,40.4,81z"/>
</g>
<g>
	<path d="M46.2,81c-0.1,0-0.2-0.1-0.2-0.1c0-0.1,0-0.2,0.1-0.3l0.2-0.1l0,0l0,0l0,0l0,0l0.1-0.2c0-0.1,0.2-0.2,0.3-0.2
		c0.1,0,0.2,0.2,0.2,0.3l-0.1,0.2c0,0,0,0.1,0,0.1c0,0,0,0.1,0,0.1c0,0,0,0.1,0,0.1c0,0,0,0,0,0.1c0,0,0,0-0.1,0.1
		c0,0-0.1,0.1-0.1,0.1l0,0l0,0L46.2,81C46.3,81,46.2,81,46.2,81z"/>
</g>
<g>
	<path d="M39.9,69.8C39.9,69.8,39.8,69.8,39.9,69.8c-0.2,0-0.2-0.1-0.2-0.3l0-0.2c0,0,0-0.1,0-0.1l0.2-0.3c0,0,0.1,0,0.1,0
		c0,0,0.1-0.1,0.1-0.1c0,0,0.1,0,0.1,0c0,0,0.1,0,0.1,0l0.2,0c0.1,0,0.2,0.1,0.2,0.2c0,0.1-0.1,0.2-0.2,0.2l-0.2,0l-0.1,0l0,0
		l-0.1,0.1l0,0.2C40.1,69.8,40,69.8,39.9,69.8z"/>
</g>
<g>
	<path d="M46.7,69.8c-0.1,0-0.2-0.1-0.2-0.2l-0.2-0.3l-0.2-0.1l-0.1,0l-5.6,0c-0.1,0-0.2-0.1-0.2-0.2s0.1-0.2,0.2-0.2l5.9,0l0.3,0.1
		l0.2,0.2l0.1,0.2l0,0.1C46.9,69.7,46.9,69.8,46.7,69.8C46.7,69.8,46.7,69.8,46.7,69.8z"/>
</g>
<g>
	<path d="M48.8,70.5l-0.7-0.1l-0.4-0.1c-0.1,0-0.1-0.1-0.1-0.2l0-4.1c0-0.1,0-0.1,0.1-0.1c0,0,0.1-0.1,0.1-0.1l0.3,0l0.3,0.1
		l0.7,0.3l0.8,0.3l0.4,0.2l0.3,0.3l0.2,0.4l0.2,0.5l0.1,0.4l0,0.4l-0.1,0.4l-0.2,0.4l-0.3,0.3L50,70.2l-0.4,0.2l-0.4,0.1L48.8,70.5z
		 M48,69.9l0.7,0.2l0.1,0l0.5,0l0.4-0.2l0.4-0.3l0.3-0.4l0.2-0.4l0.1-0.5l-0.1-0.5l-0.2-0.4L50,67l-0.4-0.3l-0.5-0.2l-0.8-0.3
		l-0.5-0.2L48,69.9z"/>
</g>
<g>
	<path d="M50.1,57.2c-0.7,0-1.3-0.6-1.3-1.3c0-0.7,0.6-1.3,1.3-1.3c0.7,0,1.3,0.6,1.3,1.3C51.4,56.6,50.8,57.2,50.1,57.2z M50.1,55
		c-0.5,0-0.9,0.4-0.9,0.9c0,0.5,0.4,0.9,0.9,0.9s0.9-0.4,0.9-0.9C51.1,55.4,50.7,55,50.1,55z"/>
</g>
<g>
	<path d="M47.4,81.9c-0.1,0-0.3-0.1-0.3-0.2c-0.1-0.2-0.1-0.5,0.1-0.6l0.1-0.1l0.1-0.1l0-0.1l0,0l0,0l0-0.1l0,0l0.1-0.5l0.1-2.1
		l0-7.8c0-0.2,0.2-0.4,0.4-0.4c0,0,0,0,0,0c0.2,0,0.4,0.2,0.4,0.4L48.3,81c0,0,0,0.1,0,0.1c0,0,0,0.1-0.1,0.1c0,0-0.1,0.1-0.1,0.1
		c0,0-0.1,0.1-0.1,0.1c0,0-0.1,0.1-0.1,0.1c0,0-0.1,0.1-0.1,0.1c0,0-0.1,0.1-0.1,0.1c0,0-0.1,0.1-0.1,0.1l-0.1,0.1
		C47.5,81.9,47.4,81.9,47.4,81.9z"/>
</g>
<g>
	<path d="M18.5,81.7c-0.1,0-0.2-0.1-0.2-0.2c0-0.1,0-0.2,0.2-0.3l0.9-0.2l0.4-0.3l0.5-0.5c0.1-0.1,0.2-0.1,0.3,0
		c0.1,0.1,0.1,0.2,0,0.3l-0.7,0.7l-0.5,0.3L18.5,81.7C18.5,81.7,18.5,81.7,18.5,81.7z"/>
</g>
<g>
	<path d="M35.7,81.7C35.7,81.7,35.7,81.7,35.7,81.7l-0.8-0.2l-0.4-0.2l-0.5-0.5l-0.2-0.2c-0.1-0.1-0.1-0.2,0-0.3
		c0.1-0.1,0.2-0.1,0.3,0l0.6,0.6l0.4,0.2l0.6,0.2c0.1,0,0.2,0.1,0.2,0.3C35.9,81.6,35.8,81.7,35.7,81.7z"/>
</g>
<g>
	<g>
		<path d="M21.6,80.7c-0.1,0-0.2-0.1-0.2-0.2v-1.2c0-0.1,0.1-0.2,0.2-0.2s0.2,0.1,0.2,0.2v1.2C21.8,80.6,21.7,80.7,21.6,80.7z"/>
	</g>
</g>
<g>
	<path d="M32.2,80.7c-0.1,0-0.2-0.1-0.2-0.2v-1.2c0-0.1,0.1-0.2,0.2-0.2s0.2,0.1,0.2,0.2v1.2C32.5,80.6,32.4,80.7,32.2,80.7z"/>
</g>
<g>
	<path d="M48.1,66.2c-0.2,0-0.4-0.2-0.4-0.4v-16c0-4.7-4.6-8.6-10.3-8.6S27.1,45,27.1,49.8v3.7c0,0.2-0.2,0.4-0.4,0.4
		c-0.2,0-0.4-0.2-0.4-0.4v-3.9c0,0,0,0,0-0.1c0.2-5.1,5.1-9.2,11.2-9.2c6.1,0,11.1,4.2,11.2,9.4c0,0,0,0,0,0v16
		C48.6,66,48.4,66.2,48.1,66.2z"/>
</g>
<polygon points="24.9,83.3 24,83.3 24,83.3 24,83.2 24.9,82 24.9,81.8 23.5,81.8 23.5,82.1 24.2,82.1 24.3,82.1 24.2,82.2 
	23.4,83.5 23.4,83.7 24.9,83.7 "/>
<path d="M25.2,83.6c0.1,0.1,0.1,0.1,0.2,0.1s0.2,0,0.3,0s0.2,0,0.3,0c0.1,0,0.2-0.1,0.3-0.2v-0.1v0.1c0,0,0,0.1,0.1,0.1l0.1,0.1H27
	c0-0.1,0-0.2-0.1-0.3c0-0.1,0-0.2,0-0.2v-0.6c0-0.3-0.1-0.5-0.2-0.6c-0.2-0.1-0.4-0.2-0.7-0.2c-0.1,0-0.2,0-0.3,0
	c-0.1,0-0.2,0.1-0.4,0.1l0.1,0.4c0.1,0,0.2-0.1,0.3-0.1c0.1,0,0.1,0,0.2,0s0.3,0,0.3,0.1s0.1,0.2,0.1,0.3v0.6
	c-0.1,0.1-0.1,0.2-0.2,0.2c-0.1,0.1-0.2,0.1-0.2,0.1c-0.1,0-0.1,0-0.2-0.1c0,0-0.1-0.1-0.1-0.2s0-0.1,0.1-0.2c0-0.1,0.1-0.1,0.2-0.1
	s0.1-0.1,0.2-0.1c0-0.1,0.1-0.2,0.1-0.2c-0.2,0-0.4,0-0.5,0.1c-0.1,0.1-0.3,0.1-0.3,0.2c-0.1,0.1-0.1,0.1-0.2,0.2
	c0,0.1-0.1,0.2-0.1,0.2c0,0.1,0,0.2,0,0.2C25.1,83.4,25.1,83.5,25.2,83.6z"/>
<path d="M27,83.7h0.6l0.3-0.6l0.4,0.6h0.6l-0.7-1c-0.1-0.2-0.2-0.3-0.3-0.5s-0.2-0.3-0.3-0.5H27l0.7,0.9L27,83.7z"/>
<path d="M29.1,83.4c0.1,0.1,0.2,0.2,0.3,0.3c0.1,0.1,0.3,0.1,0.5,0.1c0.1,0,0.3,0,0.4,0c0.1,0,0.3-0.1,0.4-0.1l-0.1-0.4
	c-0.1,0.1-0.2,0.1-0.3,0.1s-0.2,0-0.3,0c-0.2,0-0.3-0.1-0.4-0.2c-0.1-0.2-0.2-0.4-0.2-0.6c0-0.1,0-0.2,0-0.3c0-0.1,0.1-0.1,0.1-0.2
	s0.1-0.1,0.2-0.1c0.1,0,0.1,0,0.2,0c0.1,0,0.1,0,0.2,0l0.1,0.1l0.1,0.1c0,0.1,0,0.1,0,0.2H30c-0.1,0-0.1,0-0.2,0.1
	c-0.2,0.2-0.2,0.2-0.2,0.3h1c0.1-0.2,0.1-0.3,0.1-0.5s-0.1-0.3-0.1-0.4c-0.1-0.1-0.2-0.2-0.3-0.2c-0.1-0.1-0.3-0.1-0.4-0.1
	c-0.1,0-0.3,0-0.4,0.1c-0.1,0-0.2,0.1-0.3,0.2s-0.2,0.2-0.2,0.3c-0.1,0.1-0.1,0.3-0.1,0.4s0,0.3,0.1,0.4C29,83.2,29,83.3,29.1,83.4z
	"/>
<path d="M28.1,82.5L28.1,82.5l0.7-0.7h-0.6l-0.1,0.3c0,0.1,0,0.1,0,0.2S28.1,82.3,28.1,82.5C28.1,82.4,28.1,82.4,28.1,82.5z"/>
</svg>
