<svg id="Layer_1" data-name="Layer 1" xmlns="http://www.w3.org/2000/svg" viewBox="0 0 65 110"><defs><style>.cls-1{fill:#231f20;}</style></defs><title>Asset 14</title><g id="Layer_1-2" data-name="Layer 1-2"><path d="M27.3,101.73h5.46v1.92H24.52V102L30,95H24.53V93.14h8.23v1.64Z"/><path d="M37.44,95.7l-2.62.94v-2L39.46,93v8.75h2.38v1.92h-6.9v-1.92h2.5Z"/><path d="M46.11,100.49H43.52V98.82h2.59V96.2h1.72v2.62h2.59v1.67H47.83v2.62H46.11Z"/><path class="cls-1" d="M60.86,85.23H55.77a.51.51,0,0,1-.47-.34s-.44-1.26-1.37-1.26H11.61c-.93,0-1.37,1.24-1.37,1.26a.51.51,0,0,1-.47.34H4.68a.5.5,0,0,1-.5-.5v-68c0-.07.63-7,2.52-7H58.83c1.82,0,2.53,5.95,2.53,6.38V84.73A.52.52,0,0,1,60.86,85.23Zm-4.76-1h4.26V16.12c0-1.38-.94-5.14-1.55-5.39H6.7c-.61.32-1.52,4.66-1.52,6v67.5H9.43a2.54,2.54,0,0,1,2.18-1.6H53.93A2.55,2.55,0,0,1,56.1,84.23Z"/><path class="cls-1" d="M49.87,75.49h-34a4.11,4.11,0,0,1-4.12-4.12h0V23.46a.5.5,0,0,1,.5-.5h41a.53.53,0,0,1,.69.29.42.42,0,0,1,0,.16v48A4.14,4.14,0,0,1,49.87,75.49ZM12.74,24V71.37a3.12,3.12,0,0,0,3.12,3.12h34A3.13,3.13,0,0,0,53,71.37h0V24Z"/><path class="cls-1" d="M53.46,17.09H12.56a.48.48,0,0,1-.43-.25,7.23,7.23,0,0,1,0-6.85.48.48,0,0,1,.43-.25h40.9a.49.49,0,0,1,.46.31,10.36,10.36,0,0,1,0,6.69A.51.51,0,0,1,53.46,17.09Zm-40.6-1H53.09a9.73,9.73,0,0,0,0-5.35H12.87A6.16,6.16,0,0,0,12.86,16.09Z"/><path class="cls-1" d="M50.78,67.31H15.42a.5.5,0,0,1-.5-.5V65.17a.5.5,0,0,1,.5-.5H50.78a.5.5,0,0,1,.5.5v1.64A.5.5,0,0,1,50.78,67.31Zm-34.86-1H50.28v-.64H15.92Z"/><path class="cls-1" d="M19.27,75.12a.52.52,0,0,1-.5-.5V66.89a.5.5,0,0,1,1,0v7.73A.5.5,0,0,1,19.27,75.12Z"/><path class="cls-1" d="M47,75.12a.5.5,0,0,1-.5-.5V66.89a.5.5,0,0,1,1,0v7.73A.52.52,0,0,1,47,75.12Z"/><path class="cls-1" d="M59.62,39.11H54.71a.5.5,0,0,1-.5-.5V31.78a.52.52,0,0,1,.5-.5h4.91a.5.5,0,0,1,.5.5v6.83A.5.5,0,0,1,59.62,39.11Zm-4.41-1h3.91V32.28H55.21Z"/><path class="cls-1" d="M29.23,18.72h1.46V19l-.88,1.34-.06.07h.95v.38H29.12V20.5L30,19.15l.06-.07h-.84Z"/><path class="cls-1" d="M32.27,20.73a.3.3,0,0,1-.08-.08l-.06-.11v0a.77.77,0,0,1-.58.26.75.75,0,0,1-.26-.05A.59.59,0,0,1,31,20.6a.57.57,0,0,1-.12-.18.89.89,0,0,1,0-.23.59.59,0,0,1,.05-.23.49.49,0,0,1,.18-.2,1.07,1.07,0,0,1,.32-.16,2.27,2.27,0,0,1,.52-.09.75.75,0,0,1-.08.24.22.22,0,0,1-.19.12.35.35,0,0,0-.21.1.22.22,0,0,0-.07.17.24.24,0,0,0,.24.24h0a.35.35,0,0,0,.22-.08,1,1,0,0,0,.22-.19v-.59a.49.49,0,0,0-.11-.33.41.41,0,0,0-.32-.12h-.21l-.25.07-.13-.34a1.65,1.65,0,0,1,.36-.11,1.71,1.71,0,0,1,.32,0,.84.84,0,0,1,.64.22.82.82,0,0,1,.22.63v.95a.5.5,0,0,0,0,.26Z"/><path class="cls-1" d="M34.66,20.73h-.57l-.42-.68h0l-.36.64h-.59l.67-1-.71-1h.61c.1.16.2.32.31.48l.32.49Z"/><path class="cls-1" d="M36,19.5a.25.25,0,0,0,0-.17.35.35,0,0,0-.06-.14.27.27,0,0,0-.11-.1.22.22,0,0,0-.16,0,.43.43,0,0,0-.16,0,.44.44,0,0,0-.15.12.72.72,0,0,0-.11.19,1.41,1.41,0,0,0,0,.29.75.75,0,0,0,.16.52.49.49,0,0,0,.39.19,1.22,1.22,0,0,0,.27,0,1.82,1.82,0,0,0,.3-.11l.14.36a1.49,1.49,0,0,1-.4.15h-.37a1,1,0,0,1-.46-.1,1.11,1.11,0,0,1-.32-.25,1.16,1.16,0,0,1-.18-.35,1.32,1.32,0,0,1-.06-.39,1,1,0,0,1,.08-.44A1,1,0,0,1,35,19a.94.94,0,0,1,.33-.2,1.09,1.09,0,0,1,.4-.07.86.86,0,0,1,.39.09.66.66,0,0,1,.29.23.82.82,0,0,1,.13.37.9.9,0,0,1-.06.46h-1.1a1,1,0,0,1,.12-.23.25.25,0,0,1,.19-.09Z"/><path class="cls-1" d="M34.11,18.72h.58l-.59.85a.44.44,0,0,1-.08-.11,1,1,0,0,1-.07-.15.43.43,0,0,1,0-.16A.88.88,0,0,1,34,19Z"/><rect class="cls-1" x="55.57" y="34.87" width="2.97" height="1.3"/></g></svg>