<svg id="Layer_1" data-name="Layer 1" xmlns="http://www.w3.org/2000/svg" viewBox="0 0 65 110"><defs><style>.cls-1{fill:#231f20;}</style></defs><path d="M33,103.6H30.6l-2.3-3.7-2.4,3.7H23.5l3.6-5.3-3.5-5.2H26l2.3,3.6,2.3-3.6h2.3l-3.4,5.2Z"/><path d="M37.2,95.7l-2.6.9v-2L39.1,93v8.7h2.4v1.9H34.7v-1.9h2.5Z"/><path class="cls-1" d="M25.2,39.5H19.6a.6.6,0,0,1-.1-.4l1-3.4c.1-.2.2-.3.4-.3h4.3a.4.4,0,0,1,.4.4v3.4A.4.4,0,0,1,25.2,39.5Zm-4.7-.8h4.3V36.1H21.2Z"/><path class="cls-1" d="M49.8,85H46.7c-.2,0-.3-.1-.4-.3s-.2-.7-.7-.7H19.4c-.4,0-.7.7-.7.7s-.2.3-.4.3H15.2a.4.4,0,0,1-.4-.4V40.5a1.7,1.7,0,0,1,1.6-1.7H48.6a1.7,1.7,0,0,1,1.6,1.7V84.6a.4.4,0,0,1-.4.4ZM47,84.2h2.4V40.5a.7.7,0,0,0-.8-.8H16.4a.8.8,0,0,0-.8.8V84.2h2.5a1.5,1.5,0,0,1,1.4-1h26A1.6,1.6,0,0,1,47,84.2Zm-1.7-5.9H38.4c-.3,0-.4-.2-.4-.5V74.5a.7.7,0,0,0-.7-.7H27.5a.7.7,0,0,0-.6.7v3.3a.5.5,0,0,1-.4.5H19.9a.5.5,0,0,1-.5-.5V46.3a2.7,2.7,0,0,1,2.7-2.7H43a2.7,2.7,0,0,1,2.7,2.7V77.8a.4.4,0,0,1-.4.4Zm-6.5-.9h6.1V46.3a1.8,1.8,0,0,0-1.8-1.9h-21a1.9,1.9,0,0,0-1.9,1.9h0V77.4H26V74.5a1.6,1.6,0,0,1,1.5-1.6h9.7a1.5,1.5,0,0,1,1.5,1.6Z"/><path class="cls-1" d="M35.9,80.3H29.1a.4.4,0,0,1-.4-.4v-5a.4.4,0,0,1,.4-.4h6.8a.5.5,0,0,1,.5.4v5A.5.5,0,0,1,35.9,80.3Zm-6.4-.8h6V75.3h-6Z"/><path class="cls-1" d="M43.5,70.9H21.7a.5.5,0,0,1-.4-.5v-1a.4.4,0,0,1,.4-.4H43.5a.4.4,0,0,1,.4.4v1A.5.5,0,0,1,43.5,70.9ZM22.1,70h21v-.2h-21Z"/><path class="cls-1" d="M24,78.1a.5.5,0,0,1-.4-.5V70.8a.4.4,0,0,1,.4-.4.4.4,0,0,1,.4.4v6.8C24.4,77.9,24.3,78.1,24,78.1Z"/><path class="cls-1" d="M41.2,78.1a.5.5,0,0,1-.5-.5V70.8a.5.5,0,0,1,.5-.4.4.4,0,0,1,.4.4v6.8A.5.5,0,0,1,41.2,78.1Z"/><path class="cls-1" d="M23.1,36.1a.4.4,0,0,1-.4-.4v-.2a.4.4,0,0,1,.8,0v.2A.4.4,0,0,1,23.1,36.1Z"/><path class="cls-1" d="M33.5,39.4a.4.4,0,0,1-.4-.4V35.5a.4.4,0,0,1,.8,0V39A.4.4,0,0,1,33.5,39.4Z"/><path class="cls-1" d="M33.5,36a.4.4,0,0,1-.4-.4,4.8,4.8,0,0,0-4.6-5.1,4.9,4.9,0,0,0-5,4.7h0v.4a.4.4,0,1,1-.8,0,5.6,5.6,0,1,1,11.2-.4v.4A.4.4,0,0,1,33.5,36Z"/><rect class="cls-1" x="30.5" y="76.9" width="4.2" height="1.1"/><path class="cls-1" d="M32.4,49.1h-.2l-.9-.6a.7.7,0,0,1-.1-.6c.2-.2.4-.3.6-.1h0l.8.6a.4.4,0,0,1,.1.6C32.7,49.1,32.5,49.1,32.4,49.1Z"/><path class="cls-1" d="M32.4,49.1h-.3a.4.4,0,0,1,.1-.6l.8-.6c.2-.2.4-.1.6.1a.5.5,0,0,1-.1.6h0l-.9.6Z"/><path class="cls-1" d="M31.6,48.5a.4.4,0,0,1-.4-.4v-.3a.4.4,0,1,1,.8,0v.3A.4.4,0,0,1,31.6,48.5Z"/><path class="cls-1" d="M31.6,48.2a.4.4,0,0,1-.4-.4v-.6a.4.4,0,1,1,.8,0v.6A.4.4,0,0,1,31.6,48.2Z"/><path class="cls-1" d="M32.4,47.6h-.8a.4.4,0,1,1,0-.8h.8a.4.4,0,0,1,0,.8Z"/><path class="cls-1" d="M33.2,48.5a.4.4,0,0,1-.4-.4v-.3a.4.4,0,1,1,.8,0v.3A.4.4,0,0,1,33.2,48.5Z"/><path class="cls-1" d="M33.2,48.2a.4.4,0,0,1-.4-.4v-.6a.4.4,0,1,1,.8,0v.6A.4.4,0,0,1,33.2,48.2Z"/><path class="cls-1" d="M33.2,47.6h-.8a.4.4,0,0,1,0-.8h.8a.4.4,0,0,1,0,.8Z"/><path class="cls-1" d="M34.4,46.1H30.3a.4.4,0,0,1-.4-.4V44a.5.5,0,0,1,.4-.5h4.1c.3,0,.4.2.4.5v1.7A.4.4,0,0,1,34.4,46.1Zm-3.7-.8H34v-.9H30.7Z"/><path class="cls-1" d="M34.1,47.5H30.6c-.2,0-.4-.1-.4-.3l-.3-1.5a.3.3,0,0,1,.3-.5h4.2c.1-.1.3,0,.4.1s.1.2,0,.4l-.3,1.5C34.5,47.4,34.3,47.5,34.1,47.5Zm-3.2-.8h2.9V46H30.8Z"/><path class="cls-1" d="M29.3,40.7h1.2v.2L29.8,42h.7v.3H29.2v-.2l.7-1.1h-.6Z"/><path class="cls-1" d="M31.8,42.4a.1.1,0,0,1-.1-.1h0l-.3.2h-.6v-.2a.3.3,0,0,1-.1-.2v-.2c.1,0,.1-.1.2-.2h.7a.3.3,0,0,1-.1.2.1.1,0,0,1-.1.1h-.2c-.1.1-.1.1-.1.2a6634428825554.9,6634428825554.9,0,0,1,.2.2c.1,0,.2,0,.2-.1s.1-.1.2-.2v-.7h-.7v-.3h.6l.5.2a1.4,1.4,0,0,1,.2.6v1Z"/><path class="cls-1" d="M33.8,42.4h-.5l-.3-.6h0l-.3.6h-.5l.5-.9-.5-.8h.4l.3.4.3.4Z"/><path class="cls-1" d="M34.9,41.4v-.2h0a.1.1,0,0,1-.1-.1h-.4c-.1,0-.1.1-.1.2v.2a.9.9,0,0,0,.1.5h.8v.3h-1a.2.2,0,0,1-.2-.2c-.1,0-.2-.1-.2-.3v-.6a1.2,1.2,0,0,1,.5-.5h.3c.1-.1.2,0,.3,0l.3.2c0,.1.1.2.1.3s0,.3-.1.4h-.9c0-.1,0-.1.1-.2h.4Z"/><path class="cls-1" d="M33.3,40.7h.5l-.5.7h-.1v-.4Z"/></svg>