<?xml version="1.0" encoding="utf-8"?>
<!-- Generator: Adobe Illustrator 23.1.1, SVG Export Plug-In . SVG Version: 6.00 Build 0)  -->
<svg version="1.1" id="Layer_1" xmlns="http://www.w3.org/2000/svg" xmlns:xlink="http://www.w3.org/1999/xlink" x="0px" y="0px"
	 viewBox="0 0 65 110" style="enable-background:new 0 0 65 110;" xml:space="preserve">
<g>
	<path d="M32.2,53c-0.9,0-1.7,0.7-1.7,1.8s0.7,1.8,1.7,1.8c0.9,0,1.7-0.7,1.7-1.8S33.2,53,32.2,53z M32.2,55.5
		c-0.5,0-0.7-0.4-0.7-0.8s0.4-0.8,0.7-0.8s0.7,0.4,0.7,0.8S32.7,55.5,32.2,55.5z"/>
	<path d="M59.8,52.2H58v-8.8c0-3.1-2.5-5.5-5.5-5.5H11.9c-3.1,0-5.5,2.5-5.5,5.5v40c0,0.9,0.7,1.7,1.7,1.7h9.3h30.2h8.7
		c0.9,0,1.7-0.7,1.7-1.7V60.6v-0.1h1.9C59.8,60.5,59.8,52.2,59.8,52.2z M8,84.2c-0.4,0-0.7-0.4-0.7-0.7v-40c0-2.5,2-4.6,4.6-4.6
		h40.6c2.5,0,4.6,2,4.6,4.6v8.8h-3.4v8.3h1.4c0.3,0,0.5,0.2,0.5,0.5c0,0.3-0.2,0.5-0.5,0.5c-0.7,0-1.4,0.7-1.4,1.4
		c0,0.7,0.7,1.4,1.4,1.4c0.3,0,0.5,0.2,0.5,0.5s-0.2,0.5-0.5,0.5c-0.7,0-1.4,0.7-1.4,1.4c0,0.7,0.7,1.4,1.4,1.4
		c0.3,0,0.5,0.2,0.5,0.5c0,0.3-0.2,0.5-0.5,0.5c-0.7,0-1.4,0.7-1.4,1.4c0,0.7,0.7,1.4,1.4,1.4c0.3,0,0.5,0.2,0.5,0.5
		s-0.2,0.5-0.5,0.5c-0.7,0-1.4,0.7-1.4,1.4s0.7,1.4,1.4,1.4c0.3,0,0.5,0.2,0.5,0.5s-0.2,0.5-0.5,0.5c-0.7,0-1.4,0.7-1.4,1.4
		c0,0.7,0.7,1.4,1.4,1.4c0.3,0,0.5,0.2,0.5,0.5c0,0.3-0.2,0.5-0.5,0.5c-0.3,0-0.5,0.2-0.5,0.5c0,0.3-0.2,0.5-0.5,0.5
		c-0.3,0-0.5-0.2-0.5-0.5c0-0.7-0.7-1.4-1.4-1.4c-0.7,0-1.4,0.7-1.4,1.4c0,0.1,0,0.1,0,0.1l0,0c0,0.3-0.3,0.5-0.6,0.5
		c-0.3,0-0.6-0.2-0.6-0.5c0-0.7-0.7-1.4-1.5-1.4c-0.2,0-0.5,0.1-0.7,0.1v-0.8h0.1c2.4,0,4.3-2,4.3-4.3v-5.6v-6.5v-5.5v-4v-4
		c0-2.4-2-4.3-4.3-4.3H16.7c-2.4,0-4.3,2-4.3,4.3v13.5v6.5v5.6c0,2.4,2,4.3,4.3,4.3h0.7V84H8V84.2z M21,77.7v-1h22.9v1H21z
		 M43.8,78.6v5.6H21v-5.6H43.8z M18.3,75.7v-0.3h28.2v0.3H18.3z M44.8,76.6H47c0.3,0,0.5-0.2,0.5-0.5V75c0-0.3-0.2-0.5-0.5-0.5H17.8
		c-0.3,0-0.5,0.2-0.5,0.5v1.2c0,0.3,0.2,0.5,0.5,0.5h2.3v1h-2.8h-0.7c-1.9,0-3.3-1.5-3.3-3.3v-5.6v-6.5v-5h15.1v1.1
		c0,0.3,0.2,0.5,0.5,0.5h2.1c0,0.1,0.1,0.1,0.1,0.2l0.9,0.7l0,0c0.1,0.1,0.2,0.1,0.3,0.1l0,0l0,0l0,0l0,0c0.1,0,0.2,0,0.3-0.1l0,0
		l0.9-0.7c0.1,0,0.1-0.1,0.1-0.2h2c0.3,0,0.5-0.2,0.5-0.5v-1.1h14.7v5v6.5v5.6c0,1.9-1.5,3.3-3.3,3.3h-0.1h-2.8L44.8,76.6L44.8,76.6
		z M29.4,57.9v-5.9h5.9v0.7v0.1v4v0.1v1C35.4,57.9,29.4,57.9,29.4,57.9z M36.3,53.2H51v3.1H36.3V53.2z M51,52.3H36.3v-0.8
		c0-0.3-0.2-0.5-0.5-0.5H29c-0.3,0-0.5,0.2-0.5,0.5v0.8H13.3v-3.5c0-1.9,1.5-3.3,3.3-3.3h30.8c1.9,0,3.3,1.5,3.3,3.3v3.5H51z
		 M28.5,53.2v3.1H13.6v-3.1H28.5z M18.3,78.6h1.9v5.6h-1.9V78.6z M44.8,84.2v-5.6h1.9v5.6H44.8z M57,60.6v22.9
		c0,0.4-0.4,0.7-0.7,0.7h-8.7v-3.3c0-0.1,0.1-0.1,0.1-0.2c0-0.3,0.3-0.5,0.6-0.5c0.3,0,0.6,0.2,0.6,0.5c0,0.7,0.7,1.4,1.5,1.4
		c0.8,0,1.5-0.7,1.5-1.4l0,0v-0.1c0-0.3,0.2-0.5,0.5-0.5c0.3,0,0.5,0.2,0.5,0.5c0,0.7,0.7,1.4,1.4,1.4c0.7,0,1.1-0.5,1.3-1
		c0.6-0.2,1-0.7,1-1.3c0-0.7-0.7-1.4-1.4-1.4c-0.3,0-0.5-0.2-0.5-0.5s0.2-0.5,0.5-0.5c0.7,0,1.4-0.7,1.4-1.4c0-0.7-0.7-1.4-1.4-1.4
		c-0.3,0-0.5-0.2-0.5-0.5c0-0.3,0.2-0.5,0.5-0.5c0.7,0,1.4-0.7,1.4-1.4c0-0.7-0.7-1.4-1.4-1.4c-0.3,0-0.5-0.2-0.5-0.5
		s0.2-0.5,0.5-0.5c0.7,0,1.4-0.7,1.4-1.4s-0.7-1.4-1.4-1.4c-0.3,0-0.5-0.2-0.5-0.5s0.2-0.5,0.5-0.5c0.7,0,1.4-0.7,1.4-1.4
		c0-0.7-0.7-1.4-1.4-1.4c-0.3,0-0.5-0.2-0.5-0.5c0-0.3,0.2-0.5,0.5-0.5c0.7,0,1.4-0.7,1.4-1.4c0-0.2,0-0.3-0.1-0.5L57,60.6L57,60.6z
		 M58.9,59.5h-4.4v-6.4h4.4V59.5z"/>
	<polygon points="30.5,42.7 29.6,42.7 29.6,42.7 29.6,42.6 30.5,41.4 30.5,41.2 29.1,41.2 29.1,41.5 29.8,41.5 29.9,41.5 29.8,41.6 
		29,42.9 29,43.1 30.5,43.1 	"/>
	<path d="M30.8,43c0.1,0.1,0.1,0.1,0.2,0.1c0.1,0,0.2,0,0.3,0s0.2,0,0.3,0c0.1,0,0.2-0.1,0.3-0.2v-0.1v0.1c0,0,0,0.1,0.1,0.1
		l0.1,0.1h0.4c0-0.1,0-0.2-0.1-0.3c0-0.1,0-0.2,0-0.2V42c0-0.3-0.1-0.5-0.2-0.6c-0.2-0.1-0.4-0.2-0.7-0.2c-0.1,0-0.2,0-0.3,0
		c-0.1,0-0.2,0.1-0.4,0.1l0.1,0.4c0.1,0,0.2-0.1,0.3-0.1c0.1,0,0.1,0,0.2,0s0.3,0,0.3,0.1s0.1,0.2,0.1,0.3v0.6
		c-0.1,0.1-0.1,0.2-0.2,0.2c-0.1,0.1-0.2,0.1-0.2,0.1c-0.1,0-0.1,0-0.2-0.1c0,0-0.1-0.1-0.1-0.2c0-0.1,0-0.1,0.1-0.2
		c0-0.1,0.1-0.1,0.2-0.1c0.1,0,0.1-0.1,0.2-0.1c0-0.1,0.1-0.2,0.1-0.2c-0.2,0-0.4,0-0.5,0.1c-0.1,0.1-0.3,0.1-0.3,0.2
		c-0.1,0.1-0.1,0.1-0.2,0.2c0,0.1-0.1,0.2-0.1,0.2c0,0.1,0,0.2,0,0.2C30.7,42.8,30.7,42.9,30.8,43z"/>
	<path d="M32.5,43.1h0.6l0.3-0.6l0.4,0.6h0.6l-0.7-1c-0.1-0.2-0.2-0.3-0.3-0.5c-0.1-0.2-0.2-0.3-0.3-0.5h-0.6l0.7,0.9L32.5,43.1z"/>
	<path d="M34.6,42.8c0.1,0.1,0.2,0.2,0.3,0.3c0.1,0.1,0.3,0.1,0.5,0.1c0.1,0,0.3,0,0.4,0c0.1,0,0.3-0.1,0.4-0.1l-0.1-0.4
		c-0.1,0.1-0.2,0.1-0.3,0.1s-0.2,0-0.3,0c-0.2,0-0.3-0.1-0.4-0.2c-0.1-0.2-0.2-0.4-0.2-0.6c0-0.1,0-0.2,0-0.3c0-0.1,0.1-0.1,0.1-0.2
		c0-0.1,0.1-0.1,0.2-0.1c0.1,0,0.1,0,0.2,0c0.1,0,0.1,0,0.2,0l0.1,0.1l0.1,0.1c0,0.1,0,0.1,0,0.2h-0.4c-0.1,0-0.1,0-0.2,0.1
		C35,42.1,35,42.1,35,42.2h1c0.1-0.2,0.1-0.3,0.1-0.5c0-0.2-0.1-0.3-0.1-0.4c-0.1-0.1-0.2-0.2-0.3-0.2c-0.1-0.1-0.3-0.1-0.4-0.1
		s-0.3,0-0.4,0.1c-0.1,0-0.2,0.1-0.3,0.2s-0.2,0.2-0.2,0.3c-0.1,0.1-0.1,0.3-0.1,0.4c0,0.1,0,0.3,0.1,0.4
		C34.5,42.6,34.5,42.7,34.6,42.8z"/>
	<path d="M33.6,41.9L33.6,41.9l0.7-0.7h-0.6l-0.1,0.3c0,0.1,0,0.1,0,0.2S33.6,41.7,33.6,41.9C33.6,41.8,33.6,41.8,33.6,41.9z"/>
	<rect x="55" y="56" width="3.3" height="1.4"/>
	<polygon points="15.7,95.6 20.8,95.6 15.7,102.1 15.7,103.7 23.4,103.7 23.4,101.9 18.3,101.9 23.4,95.4 23.4,93.8 15.7,93.8 	"/>
	<rect x="23.7" y="98.5" width="4.1" height="1.6"/>
	<polygon points="30.9,93.8 28.9,93.8 28.9,103.7 36,103.7 36,101.8 30.9,101.8 	"/>
	<rect x="36.4" y="96.9" width="1.8" height="6.8"/>
	<path d="M37.3,93.5c-0.7,0-1.2,0.5-1.2,1.2s0.5,1.2,1.2,1.2s1.2-0.5,1.2-1.2S37.9,93.5,37.3,93.5z"/>
	<path d="M42.8,102.1c-0.6,0-1-0.3-1-1.2v-2.5h2.5v-1.6h-2.5v-2H40v2h-1.3v1.6H40v2.6c0,1.8,0.9,2.7,2.5,2.7c1,0,1.7-0.3,2.3-0.7
		l-0.7-1.4C43.7,101.9,43.2,102.1,42.8,102.1z"/>
	<path d="M47.9,96.7c-2,0-3.4,1.5-3.4,3.6s1.5,3.6,3.5,3.6c1.2,0,2.1-0.3,2.9-1l-1.1-1.2c-0.5,0.4-1.1,0.7-1.7,0.7
		c-0.9,0-1.6-0.4-1.7-1.4h4.8c0-0.2,0-0.4,0-0.6C51.2,98.1,49.9,96.7,47.9,96.7z M46.4,99.6c0.2-0.8,0.7-1.4,1.5-1.4
		s1.3,0.5,1.5,1.4H46.4z"/>
</g>
</svg>
