<svg id="Layer_1" data-name="Layer 1" xmlns="http://www.w3.org/2000/svg" viewBox="0 0 65 110"><path d="M31.6,53.1a1.8,1.8,0,0,0-1.8,1.8,1.7,1.7,0,0,0,1.8,1.8,1.7,1.7,0,0,0,1.7-1.8A1.7,1.7,0,0,0,31.6,53.1Zm0,2.5a.8.8,0,0,1-.8-.8.9.9,0,0,1,.8-.8,1,1,0,0,1,.7.8A.7.7,0,0,1,31.6,55.6Z"/><path d="M59.1,52.1H57.3V43.3a5.5,5.5,0,0,0-5.5-5.5H11.2a5.5,5.5,0,0,0-5.5,5.5v40A1.7,1.7,0,0,0,7.4,85H55.6a1.6,1.6,0,0,0,1.7-1.7V60.5h2C59.1,60.4,59.1,52.1,59.1,52.1ZM7.3,84.1a.8.8,0,0,1-.7-.7v-40a4.6,4.6,0,0,1,4.6-4.6H51.8a4.6,4.6,0,0,1,4.6,4.6v8.8H53v8.3h1.4a.5.5,0,1,1,0,1,1.4,1.4,0,0,0,0,2.8.5.5,0,0,1,0,1,1.4,1.4,0,0,0,0,2.8.5.5,0,1,1,0,1,1.4,1.4,0,1,0,0,2.8.5.5,0,1,1,0,1,1.4,1.4,0,1,0,0,2.8.5.5,0,0,1,0,1,1.4,1.4,0,1,0,0,2.8.5.5,0,1,1,0,1,.5.5,0,0,0-.5.5.5.5,0,0,1-1,0,1.4,1.4,0,1,0-2.8,0h0a.6.6,0,0,1-1.2,0,1.5,1.5,0,0,0-1.5-1.4h-.7V79h.1a4.3,4.3,0,0,0,4.3-4.3V49.1a4.3,4.3,0,0,0-4.3-4.3H16.1a4.3,4.3,0,0,0-4.3,4.3V74.7A4.3,4.3,0,0,0,16.1,79h.7v4.9H7.3Zm13-6.5v-1h23v1Zm22.8.9v5.6H20.3V78.5ZM17.6,75.6v-.3H45.8v.3Zm26.5.9h2.2a.5.5,0,0,0,.5-.5V74.9a.5.5,0,0,0-.5-.5H17.1a.5.5,0,0,0-.5.5v1.2a.5.5,0,0,0,.5.5h2.3v1H15.9a3.3,3.3,0,0,1-3.3-3.3V57.2H27.7v1.1a.5.5,0,0,0,.5.5h2.1c0,.1.1.1.1.2l.9.7h.6l.9-.7c.1,0,.1-.1.1-.2h2a.5.5,0,0,0,.5-.5V57.2H50.1V74.3a3.3,3.3,0,0,1-3.3,3.3H44V76.5ZM28.7,57.8V51.9h5.9v.7h0v4h0v1Zm6.9-4.7H50.3v3.1H35.6Zm14.7-.9H35.6v-.8a.5.5,0,0,0-.5-.5H28.3a.5.5,0,0,0-.5.5v.8H12.6V48.7a3.3,3.3,0,0,1,3.3-3.3H46.8a3.3,3.3,0,0,1,3.3,3.3v3.5Zm-22.5.9v3.1H12.9V53.1ZM17.6,78.5h1.9v5.6H17.6Zm26.5,5.6V78.5h2v5.6ZM56.3,60.5V83.4a.8.8,0,0,1-.7.7H46.9V80.8c0-.1.1-.1.1-.2a.6.6,0,0,1,1.2,0,1.5,1.5,0,0,0,3,0h0a.5.5,0,0,1,1,0,1.5,1.5,0,0,0,1.4,1.4,1.4,1.4,0,0,0,1.3-1,1.4,1.4,0,0,0,1-1.3,1.5,1.5,0,0,0-1.4-1.4.5.5,0,1,1,0-1,1.4,1.4,0,1,0,0-2.8.5.5,0,0,1,0-1,1.4,1.4,0,0,0,0-2.8.5.5,0,0,1,0-1,1.4,1.4,0,0,0,0-2.8.5.5,0,0,1,0-1,1.4,1.4,0,0,0,0-2.8.5.5,0,0,1,0-1,1.5,1.5,0,0,0,1.4-1.4.9.9,0,0,0-.1-.5l.5.4Zm2-1.1H53.8V53h4.5Z"/><polygon points="29.9 42.8 28.9 42.8 28.9 42.8 28.9 42.7 29.9 41.5 29.9 41.3 28.4 41.3 28.4 41.6 29.1 41.6 29.3 41.6 29.1 41.7 28.4 43 28.4 43.2 29.9 43.2 29.9 42.8"/><path d="M30.1,43.1h.8l.3-.2h0a.1.1,0,0,0,.1.1h.5V42.1a.8.8,0,0,0-.2-.6,1.9,1.9,0,0,0-.8-.2h-.6v.4h.8c0,.1.1.2.1.3v.6c-.1.1-.1.2-.3.2h-.4v-.2c0-.1,0-.1.1-.2s.1-.1.2-.1h.2l.2-.2h-.5c-.2.1-.3.1-.3.2l-.2.2c0,.1-.2.2-.2.2V43C30.1,42.9,30.1,43,30.1,43.1Z"/><path d="M31.8,43.2h.6l.3-.6.4.6h.6l-.7-1-.3-.5-.3-.5h-.6l.8.9Z"/><path d="M33.9,42.9l.3.3h1.4v-.4h-.6l-.4-.2a1.4,1.4,0,0,1-.2-.6v-.5c0-.1.1-.1.3-.1h.5v.2h-.6l-.2.3h1a.9.9,0,0,0,.1-.5c0-.2-.1-.3-.1-.4s-.2-.2-.2-.2h-.9l-.3.2c-.1.1-.2.2-.2.3a.8.8,0,0,0,0,.8C33.8,42.7,33.8,42.8,33.9,42.9Z"/><path d="M32.9,42h0l.7-.7h-.5V42Z"/><rect x="54.3" y="56.1" width="3.3" height="1.4"/><path d="M27.2,103.6V93.3h1.3v10.3Z"/><path d="M31.7,94a.9.9,0,0,1-.9.9.9.9,0,0,1,0-1.8A.9.9,0,0,1,31.7,94Zm-1.5,9.6V95.8h1.2v7.8Z"/><path d="M34.8,96.8v4c0,1.2.6,1.7,1.5,1.7a2.8,2.8,0,0,0,1.6-.5l.6.9a3.4,3.4,0,0,1-2.3.8c-1.7,0-2.7-1-2.7-2.9v-4H32.2V95.7h1.3V93.2h1.3v2.5h3.3v1.1Z"/><path d="M46.1,99.6c0,.2-.1.3-.1.4H39.8a2.7,2.7,0,0,0,2.7,2.6,3.7,3.7,0,0,0,2.5-1l.7.9a4.6,4.6,0,0,1-3.2,1.2,3.9,3.9,0,0,1-4-4.1,3.8,3.8,0,0,1,3.9-4C44.5,95.6,46,97.2,46.1,99.6Zm-6.3-.4h5a2.4,2.4,0,0,0-2.4-2.4A2.5,2.5,0,0,0,39.8,99.2Z"/><path d="M19.3,95.9H25v.9L21.6,102l-.2.2H25v1.5H18.9v-.9l3.5-5.2.2-.3H19.3Z"/></svg>