<?xml version="1.0" encoding="utf-8"?>
<!-- Generator: Adobe Illustrator 25.1.0, SVG Export Plug-In . SVG Version: 6.00 Build 0)  -->
<svg version="1.1" id="katman_1" xmlns="http://www.w3.org/2000/svg" xmlns:xlink="http://www.w3.org/1999/xlink" x="0px" y="0px"
	 viewBox="0 0 99.21 141.73" style="enable-background:new 0 0 99.21 141.73;" xml:space="preserve">
<style type="text/css">
	.st0{fill:none;stroke:#020203;stroke-linecap:round;stroke-linejoin:round;}
</style>
<path class="st0" d="M21.52,26.65c-1.84,0-3.61,0.73-4.92,2.04c-1.3,1.3-2.04,3.07-2.04,4.92"/>
<line class="st0" x1="14.57" y1="33.6" x2="14.57" y2="42.58"/>
<path class="st0" d="M14.57,42.58c0,0.16,0.13,0.28,0.28,0.28"/>
<path class="st0" d="M92.39,42.87c0.16,0,0.28-0.13,0.28-0.28"/>
<line class="st0" x1="92.39" y1="42.87" x2="92.2" y2="43.02"/>
<path class="st0" d="M15.05,43.02c-0.06-0.05-0.13-0.1-0.19-0.15"/>
<line class="st0" x1="92.39" y1="33.6" x2="92.39" y2="42.87"/>
<path class="st0" d="M85.72,26.93c1.77,0,3.47,0.7,4.72,1.95s1.95,2.95,1.95,4.72"/>
<line class="st0" x1="21.52" y1="26.93" x2="29.84" y2="26.93"/>
<line class="st0" x1="29.84" y1="26.93" x2="85.72" y2="26.93"/>
<path class="st0" d="M14.85,33.6c0-1.77,0.7-3.47,1.95-4.72c1.25-1.25,2.95-1.95,4.72-1.95"/>
<line class="st0" x1="14.85" y1="42.87" x2="14.85" y2="33.6"/>
<line class="st0" x1="85.72" y1="26.65" x2="21.52" y2="26.65"/>
<path class="st0" d="M92.67,33.6c0-1.84-0.73-3.61-2.04-4.92c-1.3-1.3-3.07-2.04-4.92-2.04"/>
<line class="st0" x1="92.67" y1="33.6" x2="92.67" y2="42.58"/>
<line class="st0" x1="92.15" y1="43.03" x2="15.09" y2="43.03"/>
<path class="st0" d="M92.15,43.03c0.02,0,0.03,0,0.04-0.02"/>
<path class="st0" d="M15.05,43.02c0.01,0.01,0.03,0.02,0.04,0.02"/>
<line class="st0" x1="92.15" y1="43.03" x2="92.15" y2="93.68"/>
<line class="st0" x1="15.09" y1="93.68" x2="15.09" y2="43.03"/>
<line class="st0" x1="15.19" y1="93.14" x2="15.19" y2="43.54"/>
<path class="st0" d="M53.4,93.14c0,0.23-0.19,0.42-0.42,0.42"/>
<line class="st0" x1="53.4" y1="43.54" x2="53.4" y2="93.14"/>
<line class="st0" x1="15.61" y1="43.12" x2="52.98" y2="43.12"/>
<line class="st0" x1="15.61" y1="93.56" x2="52.98" y2="93.56"/>
<line class="st0" x1="53.33" y1="43.54" x2="53.33" y2="93.14"/>
<line class="st0" x1="15.61" y1="93.49" x2="52.98" y2="93.49"/>
<path class="st0" d="M52.2,102.8c-0.11,0.07-0.21,0.11-0.32,0.11c-0.1,0-0.18-0.03-0.25-0.1c-0.07-0.06-0.1-0.14-0.1-0.24
	c0-0.09,0.03-0.17,0.09-0.24"/>
<line class="st0" x1="49.55" y1="101.17" x2="48.28" y2="103.07"/>
<line class="st0" x1="50.53" y1="102.86" x2="49.3" y2="102.86"/>
<line class="st0" x1="49.26" y1="102.78" x2="50.52" y2="100.89"/>
<path class="st0" d="M58.6,102.71c-0.16,0.07-0.31,0.12-0.43,0.16c-0.12,0.03-0.25,0.05-0.38,0.05c-0.23,0-0.42-0.09-0.57-0.26
	c-0.14-0.17-0.22-0.42-0.22-0.73c0-0.16,0.02-0.29,0.06-0.4c0.04-0.11,0.09-0.2,0.15-0.27c0.06-0.07,0.13-0.12,0.21-0.16"/>
<path class="st0" d="M58.77,102.12c0.08-0.23,0.11-0.45,0.09-0.65c-0.02-0.2-0.09-0.37-0.19-0.51c-0.1-0.14-0.24-0.25-0.41-0.33
	c-0.17-0.08-0.36-0.12-0.56-0.12c-0.2,0-0.39,0.03-0.57,0.1c-0.18,0.07-0.33,0.16-0.46,0.28c-0.13,0.12-0.24,0.27-0.31,0.45
	c-0.08,0.18-0.11,0.38-0.11,0.6c0,0.19,0.03,0.37,0.09,0.55c0.06,0.18,0.15,0.34,0.27,0.49c0.12,0.14,0.27,0.26,0.46,0.35
	c0.18,0.09,0.4,0.14,0.66,0.14c0.17,0,0.35-0.02,0.52-0.06c0.18-0.04,0.36-0.1,0.56-0.2"/>
<line class="st0" x1="58.79" y1="103.21" x2="58.6" y2="102.71"/>
<path class="st0" d="M52.57,103.12c0.02,0.05,0.05,0.11,0.08,0.15c0.03,0.05,0.07,0.09,0.12,0.12"/>
<line class="st0" x1="52.77" y1="103.39" x2="53.34" y2="103.39"/>
<path class="st0" d="M53.34,103.39c-0.03-0.13-0.06-0.25-0.07-0.36c-0.01-0.11-0.02-0.22-0.02-0.32"/>
<line class="st0" x1="53.25" y1="102.7" x2="53.25" y2="101.7"/>
<path class="st0" d="M53.25,101.7c0-0.39-0.11-0.68-0.32-0.88c-0.21-0.2-0.52-0.3-0.91-0.3c-0.13,0-0.28,0.02-0.46,0.05
	c-0.17,0.03-0.34,0.08-0.51,0.16"/>
<path class="st0" d="M51.25,101.2c0.13-0.05,0.25-0.08,0.35-0.1c0.11-0.02,0.2-0.03,0.3-0.03c0.2,0,0.35,0.06,0.45,0.17
	c0.11,0.11,0.16,0.26,0.16,0.45"/>
<line class="st0" x1="52.51" y1="101.69" x2="52.51" y2="102.52"/>
<path class="st0" d="M52.31,101.69c-0.29,0.02-0.54,0.06-0.73,0.12c-0.2,0.06-0.35,0.13-0.47,0.22c-0.12,0.09-0.2,0.18-0.25,0.29
	c-0.05,0.11-0.07,0.21-0.07,0.33c0,0.11,0.02,0.21,0.06,0.31c0.04,0.1,0.1,0.18,0.17,0.26"/>
<line class="st0" x1="52.49" y1="103.1" x2="52.55" y2="103.01"/>
<line class="st0" x1="52.55" y1="103.01" x2="52.57" y2="103.12"/>
<path class="st0" d="M56.17,103.39c-0.62-0.94-1.24-1.88-1.86-2.82"/>
<line class="st0" x1="54.31" y1="100.57" x2="53.44" y2="100.57"/>
<line class="st0" x1="53.44" y1="100.57" x2="54.45" y2="101.97"/>
<line class="st0" x1="54.45" y1="101.97" x2="53.5" y2="103.39"/>
<line class="st0" x1="53.5" y1="103.39" x2="54.34" y2="103.39"/>
<line class="st0" x1="54.34" y1="103.39" x2="54.82" y2="102.52"/>
<line class="st0" x1="15.13" y1="93.81" x2="92.11" y2="93.81"/>
<path class="st0" d="M54.24,93.49c-0.19,0-0.35-0.16-0.35-0.35"/>
<path class="st0" d="M54.24,93.56c-0.23,0-0.42-0.19-0.42-0.42"/>
<line class="st0" x1="91.61" y1="93.56" x2="54.24" y2="93.56"/>
<line class="st0" x1="53.82" y1="93.14" x2="53.82" y2="43.54"/>
<line class="st0" x1="92.03" y1="43.54" x2="92.03" y2="93.14"/>
<line class="st0" x1="54.24" y1="43.12" x2="91.61" y2="43.12"/>
<line class="st0" x1="91.61" y1="93.49" x2="54.24" y2="93.49"/>
<line class="st0" x1="53.89" y1="93.14" x2="53.89" y2="43.54"/>
<line class="st0" x1="15.13" y1="42.87" x2="92.11" y2="42.87"/>
<line class="st0" x1="15.26" y1="93.14" x2="15.26" y2="43.54"/>
<line class="st0" x1="15.61" y1="43.19" x2="52.98" y2="43.19"/>
<path class="st0" d="M92.11,93.81c0.08,0,0.14,0.06,0.14,0.14"/>
<path class="st0" d="M92.03,93.14c0,0.23-0.19,0.42-0.42,0.42"/>
<path class="st0" d="M92.03,43.54c0-0.23-0.19-0.42-0.42-0.42"/>
<line class="st0" x1="54.24" y1="43.19" x2="91.61" y2="43.19"/>
<line class="st0" x1="91.96" y1="43.54" x2="91.96" y2="93.14"/>
<path class="st0" d="M92.11,42.87c0.08,0,0.14-0.06,0.14-0.14"/>
<line class="st0" x1="92.25" y1="42.73" x2="92.25" y2="33.6"/>
<path class="st0" d="M14.99,42.73c0,0.08,0.06,0.14,0.14,0.14"/>
<line class="st0" x1="14.99" y1="42.73" x2="14.99" y2="33.6"/>
<line class="st0" x1="21.52" y1="27.07" x2="85.72" y2="27.07"/>
<line class="st0" x1="92.67" y1="33.6" x2="92.67" y2="33.6"/>
<path class="st0" d="M15.61,93.49c-0.19,0-0.35-0.16-0.35-0.35"/>
<path class="st0" d="M53.33,93.14c0,0.19-0.16,0.35-0.35,0.35"/>
<path class="st0" d="M52.98,43.19c0.19,0,0.35,0.16,0.35,0.35"/>
<path class="st0" d="M15.26,43.54c0-0.19,0.16-0.35,0.35-0.35"/>
<path class="st0" d="M15.61,93.56c-0.23,0-0.42-0.19-0.42-0.42"/>
<path class="st0" d="M52.98,43.12c0.23,0,0.42,0.19,0.42,0.42"/>
<path class="st0" d="M15.19,43.54c0-0.23,0.19-0.42,0.42-0.42"/>
<path class="st0" d="M55.18,100.94c-0.04,0.08-0.06,0.15-0.06,0.23c0,0.08,0.01,0.16,0.04,0.23c0.02,0.07,0.06,0.14,0.09,0.2
	c0.04,0.06,0.08,0.11,0.11,0.16"/>
<path class="st0" d="M57.42,101.09c0.08-0.03,0.15-0.05,0.23-0.05c0.09,0,0.16,0.02,0.22,0.05"/>
<path class="st0" d="M57.88,101.09c0.06,0.03,0.12,0.08,0.16,0.14c0.04,0.06,0.07,0.13,0.09,0.2c0.02,0.08,0.02,0.16,0.01,0.24"/>
<path class="st0" d="M51.63,102.33c0.06-0.07,0.16-0.11,0.31-0.14"/>
<path class="st0" d="M52.19,102.02c0.06-0.09,0.1-0.21,0.11-0.33"/>
<path class="st0" d="M51.02,103.21c0.08,0.08,0.17,0.14,0.27,0.18c0.11,0.05,0.22,0.07,0.36,0.07c0.14,0,0.27-0.02,0.4-0.07
	c0.13-0.05,0.27-0.14,0.44-0.29"/>
<line class="st0" x1="50.52" y1="100.57" x2="48.43" y2="100.57"/>
<line class="st0" x1="48.43" y1="100.57" x2="48.43" y2="101.1"/>
<line class="st0" x1="48.43" y1="101.1" x2="49.52" y2="101.1"/>
<line class="st0" x1="49.52" y1="101.1" x2="49.64" y2="101.08"/>
<line class="st0" x1="49.64" y1="101.08" x2="49.55" y2="101.17"/>
<line class="st0" x1="48.28" y1="103.07" x2="48.28" y2="103.39"/>
<line class="st0" x1="48.28" y1="103.39" x2="50.53" y2="103.39"/>
<line class="st0" x1="50.53" y1="103.39" x2="50.53" y2="102.86"/>
<line class="st0" x1="49.3" y1="102.86" x2="49.17" y2="102.87"/>
<line class="st0" x1="49.17" y1="102.87" x2="49.26" y2="102.78"/>
<line class="st0" x1="50.52" y1="100.89" x2="50.52" y2="100.57"/>
<line class="st0" x1="58.14" y1="101.67" x2="57.65" y2="101.67"/>
<path class="st0" d="M57.65,101.67c-0.1,0-0.18,0.04-0.26,0.13c-0.08,0.09-0.13,0.19-0.17,0.32"/>
<line class="st0" x1="57.22" y1="102.12" x2="58.77" y2="102.12"/>
<line class="st0" x1="51.06" y1="100.72" x2="51.25" y2="101.2"/>
<path class="st0" d="M52.51,102.52c-0.1,0.11-0.2,0.21-0.31,0.28"/>
<path class="st0" d="M51.93,102.19c0.12-0.02,0.21-0.08,0.26-0.17"/>
<line class="st0" x1="56.22" y1="100.57" x2="55.39" y2="100.57"/>
<line class="st0" x1="55.39" y1="100.57" x2="55.18" y2="100.94"/>
<line class="st0" x1="55.37" y1="101.77" x2="56.22" y2="100.57"/>
<line class="st0" x1="55.37" y1="103.39" x2="56.17" y2="103.39"/>
<line class="st0" x1="54.82" y1="102.52" x2="55.37" y2="103.39"/>
<line class="st0" x1="92.25" y1="93.95" x2="92.25" y2="103.08"/>
<path class="st0" d="M14.99,93.95c0-0.08,0.06-0.14,0.14-0.14"/>
<line class="st0" x1="14.99" y1="93.95" x2="14.99" y2="103.08"/>
<path class="st0" d="M21.52,109.61c-1.73,0-3.39-0.69-4.62-1.91c-1.22-1.22-1.91-2.89-1.91-4.62"/>
<path class="st0" d="M92.25,103.08c0,1.73-0.69,3.39-1.91,4.62c-1.22,1.22-2.89,1.91-4.62,1.91"/>
<line class="st0" x1="21.52" y1="109.61" x2="85.72" y2="109.61"/>
<path class="st0" d="M91.96,93.14c0,0.19-0.16,0.35-0.35,0.35"/>
<path class="st0" d="M91.96,43.54c0-0.19-0.16-0.35-0.35-0.35"/>
<path class="st0" d="M54.24,43.19c-0.19,0-0.35,0.16-0.35,0.35"/>
<path class="st0" d="M54.24,43.12c-0.23,0-0.42,0.19-0.42,0.42"/>
<line class="st0" x1="92.39" y1="93.84" x2="92.39" y2="93.84"/>
<line class="st0" x1="88.87" y1="109.31" x2="88.87" y2="109.31"/>
<line class="st0" x1="15.7" y1="42.87" x2="15.7" y2="42.87"/>
<path class="st0" d="M14.57,42.58c0,0.16,0.13,0.28,0.28,0.28"/>
<path class="st0" d="M21.52,27.07c-1.73,0-3.39,0.69-4.62,1.91c-1.22,1.22-1.91,2.89-1.91,4.62"/>
<path class="st0" d="M92.25,33.6c0-1.73-0.69-3.39-1.91-4.62c-1.22-1.22-2.89-1.91-4.62-1.91"/>
<polyline class="st0" points="32.33,49.95 32.33,50.69 33.43,50.69 33.43,49.73 "/>
<polyline class="st0" points="33.96,43.19 33.96,49.58 32.68,49.95 "/>
<rect x="27.36" y="43.19" class="st0" width="4.9" height="5.52"/>
<line class="st0" x1="26.92" y1="49.95" x2="32.68" y2="49.95"/>
<path class="st0" d="M30.31,51.52c-0.05-0.08-0.09-0.16-0.14-0.24"/>
<path class="st0" d="M30.59,51.28c-0.05,0.08-0.09,0.16-0.14,0.24"/>
<path class="st0" d="M30.45,51.52c-0.01,0.01-0.01,0.01-0.02,0.01"/>
<path class="st0" d="M30.31,51.52c0.01,0.01,0.01,0.01,0.02,0.01"/>
<path class="st0" d="M30.64,51.26c-0.02,0-0.04,0.01-0.05,0.03"/>
<polyline class="st0" points="29.21,49.95 29.21,50.72 29.26,50.76 31.42,50.76 31.46,50.72 31.46,49.95 "/>
<line class="st0" x1="30.43" y1="51.54" x2="30.38" y2="51.54"/>
<line class="st0" x1="30.38" y1="51.54" x2="30.33" y2="51.54"/>
<path class="st0" d="M30.12,51.26c0.02,0,0.04,0.01,0.05,0.03"/>
<line class="st0" x1="29.89" y1="51.26" x2="29.89" y2="50.83"/>
<line class="st0" x1="30.87" y1="51.26" x2="29.89" y2="51.26"/>
<line class="st0" x1="30.87" y1="50.83" x2="30.87" y2="51.26"/>
<line class="st0" x1="29.89" y1="50.83" x2="30.87" y2="50.83"/>
<polyline class="st0" points="25.64,43.19 25.64,49.58 26.92,49.95 "/>
<polyline class="st0" points="75.09,43.19 75.09,49.58 76.37,49.95 "/>
<line class="st0" x1="79.33" y1="50.83" x2="80.32" y2="50.83"/>
<line class="st0" x1="80.32" y1="50.83" x2="80.32" y2="51.26"/>
<line class="st0" x1="80.32" y1="51.26" x2="79.33" y2="51.26"/>
<line class="st0" x1="79.33" y1="51.26" x2="79.33" y2="50.83"/>
<path class="st0" d="M79.57,51.26c0.02,0,0.04,0.01,0.05,0.03"/>
<line class="st0" x1="79.82" y1="51.54" x2="79.78" y2="51.54"/>
<line class="st0" x1="79.87" y1="51.54" x2="79.82" y2="51.54"/>
<polyline class="st0" points="78.66,49.95 78.66,50.72 78.7,50.76 80.86,50.76 80.9,50.72 80.9,49.95 "/>
<path class="st0" d="M80.08,51.26c-0.02,0-0.04,0.01-0.05,0.03"/>
<path class="st0" d="M79.75,51.52c0.01,0.01,0.01,0.01,0.02,0.01"/>
<path class="st0" d="M79.89,51.52c-0.01,0.01-0.01,0.01-0.02,0.01"/>
<path class="st0" d="M80.03,51.28c-0.05,0.08-0.09,0.16-0.14,0.24"/>
<path class="st0" d="M79.75,51.52c-0.05-0.08-0.09-0.16-0.14-0.24"/>
<line class="st0" x1="76.37" y1="49.95" x2="82.12" y2="49.95"/>
<rect x="76.8" y="43.19" class="st0" width="4.9" height="5.52"/>
<polyline class="st0" points="83.4,43.19 83.4,49.58 82.12,49.95 "/>
<polyline class="st0" points="81.77,49.95 81.77,50.69 82.88,50.69 82.88,49.73 "/>
<line class="st0" x1="21.64" y1="43.12" x2="21.64" y2="93.56"/>
<line class="st0" x1="85.6" y1="43.12" x2="85.6" y2="93.56"/>
<rect x="44.88" y="29.52" class="st0" width="17.48" height="11.04"/>
<path class="st0" d="M21.52,110.07c-1.84,0-3.61-0.73-4.92-2.04c-1.3-1.3-2.04-3.07-2.04-4.92"/>
<line class="st0" x1="14.57" y1="103.11" x2="14.57" y2="94.13"/>
<path class="st0" d="M14.57,94.13c0-0.16,0.13-0.28,0.28-0.28"/>
<path class="st0" d="M92.39,93.84c0.16,0,0.28,0.13,0.28,0.28"/>
<line class="st0" x1="92.39" y1="93.84" x2="92.2" y2="93.69"/>
<path class="st0" d="M15.05,93.69c-0.06,0.05-0.13,0.1-0.19,0.15"/>
<line class="st0" x1="92.39" y1="103.11" x2="92.39" y2="93.84"/>
<path class="st0" d="M85.72,109.78c1.77,0,3.47-0.7,4.72-1.95s1.95-2.95,1.95-4.72"/>
<line class="st0" x1="21.52" y1="109.78" x2="29.84" y2="109.78"/>
<line class="st0" x1="29.84" y1="109.78" x2="85.72" y2="109.78"/>
<path class="st0" d="M14.85,103.11c0,1.77,0.7,3.47,1.95,4.72c1.25,1.25,2.95,1.95,4.72,1.95"/>
<line class="st0" x1="14.85" y1="93.84" x2="14.85" y2="103.11"/>
<line class="st0" x1="85.72" y1="110.07" x2="21.52" y2="110.07"/>
<path class="st0" d="M92.67,103.11c0,1.84-0.73,3.61-2.04,4.92c-1.3,1.3-3.07,2.04-4.92,2.04"/>
<line class="st0" x1="92.67" y1="103.11" x2="92.67" y2="94.13"/>
<line class="st0" x1="92.15" y1="93.68" x2="15.09" y2="93.68"/>
<path class="st0" d="M92.15,93.68c0.02,0,0.03,0,0.04,0.02"/>
<path class="st0" d="M15.05,93.69c0.01-0.01,0.03-0.02,0.04-0.02"/>
<path class="st0" d="M74.97,82.19c0.07,0,0.14,0,0.21,0c0.04,0,0.07,0,0.11,0c0.02,0,0.04,0,0.05,0c0.01,0,0.03,0,0.04,0
	c0,0,0.01,0,0.01,0c0,0,0,0,0,0c0-0.15,0-0.3,0-0.45c-0.14,0-0.28,0-0.42,0c-14.37,0-28.74,0-43.11,0c0,0.15,0,0.3,0,0.45
	C46.23,82.19,60.6,82.19,74.97,82.19z"/>
<path class="st0" d="M41.06,84.72c0,1.38,0,2.76,0,4.14c0,0.04-0.03,0.07-0.07,0.07c-1.17,0-2.34,0-3.51,0
	c-0.04,0-0.07-0.03-0.07-0.07c0-1.38,0-2.76,0-4.14"/>
<polyline class="st0" points="41.69,83.87 41.69,84.72 36.78,84.72 36.78,83.87 "/>
<path class="st0" d="M65.78,84.72c0,1.38,0,2.76,0,4.14c0,0.04,0.03,0.07,0.07,0.07c1.17,0,2.34,0,3.51,0
	c0.04,0,0.07-0.03,0.07-0.07c0-1.38,0-2.76,0-4.14"/>
<polyline class="st0" points="65.14,83.87 65.14,84.72 70.06,84.72 70.06,83.87 "/>
<rect x="33.97" y="83.31" class="st0" width="39.32" height="0.56"/>
<line class="st0" x1="40.36" y1="43.19" x2="40.36" y2="81.74"/>
<line class="st0" x1="38.11" y1="81.74" x2="38.11" y2="43.19"/>
<line class="st0" x1="38.11" y1="83.31" x2="38.11" y2="82.19"/>
<line class="st0" x1="40.36" y1="82.19" x2="40.36" y2="83.31"/>
<line class="st0" x1="68.73" y1="43.19" x2="68.73" y2="81.74"/>
<line class="st0" x1="66.48" y1="81.74" x2="66.48" y2="43.19"/>
<line class="st0" x1="66.48" y1="83.31" x2="66.48" y2="82.19"/>
<line class="st0" x1="68.73" y1="82.19" x2="68.73" y2="83.31"/>
<line class="st0" x1="38.11" y1="93.49" x2="38.11" y2="88.93"/>
<line class="st0" x1="40.36" y1="88.93" x2="40.36" y2="93.49"/>
<line class="st0" x1="66.48" y1="93.49" x2="66.48" y2="88.93"/>
<line class="st0" x1="68.73" y1="88.93" x2="68.73" y2="93.49"/>
<g>
	<path d="M53.4,122.55l-7.68,8.69h7.68v2.42H41.81v-2.05l7.68-8.69h-7.66v-2.42H53.4V122.55z"/>
	<path d="M65.24,124.04c0,1.39-0.83,2.42-2.21,2.99c1.55,0.55,2.53,1.6,2.53,3.02c0,2.59-2.65,3.84-5.45,3.84
		c-2.22,0-4.04-0.71-5.16-1.91l1.7-1.66c0.86,0.8,2.09,1.26,3.36,1.26c1.44,0,2.59-0.55,2.59-1.71c0-1.13-1.3-1.72-2.89-1.72h-1.72
		v-2.26h1.73c1.44,0,2.59-0.56,2.59-1.67c0-1.06-1.08-1.64-2.45-1.64c-1.37,0-2.39,0.63-2.99,1.33l-1.79-1.61
		c0.97-1.17,2.58-2.04,4.93-2.04C63.12,120.26,65.24,121.77,65.24,124.04z"/>
</g>
<g>
</g>
<g>
</g>
<g>
</g>
<g>
</g>
<g>
</g>
<g>
</g>
</svg>
