<svg id="Layer_1" data-name="Layer 1" xmlns="http://www.w3.org/2000/svg" viewBox="0 0 65 110"><defs><style>.cls-1{fill:#231f20;}</style></defs><path d="M32.3,103.7H29.9l-2.5-3.8L25,103.7H22.6l3.6-5.4-3.5-5.2h2.5l2.3,3.7,2.3-3.7h2.4l-3.5,5.2Z"/><path d="M36.5,95.7l-2.6.9v-2L38.5,93v8.8h2.4v1.9H34v-1.9h2.5Z"/><path d="M45.2,100.5H42.6V98.8h2.6V96.2h1.7v2.6h2.6v1.7H46.9v2.6H45.2Z"/><path class="cls-1" d="M58,85H53.3a.5.5,0,0,1-.5-.3s-.4-1.1-1.2-1.1H12.9c-.8,0-1.2,1.1-1.2,1.1a.5.5,0,0,1-.5.3H6.5a.5.5,0,0,1-.5-.5v-71a2.3,2.3,0,0,1,2.4-2.3H56.1a2.3,2.3,0,0,1,2.4,2.3h0v71a.5.5,0,0,1-.5.5Zm-4.4-1h3.9V13.5a1.3,1.3,0,0,0-1.4-1.3H8.4a1.3,1.3,0,0,0-1.3,1.3h0V84.1h3.8a2.4,2.4,0,0,1,2-1.5H51.6A2.3,2.3,0,0,1,53.6,84Zm-2.4-8.1h-13a.5.5,0,0,1-.5-.5V71.7a1.1,1.1,0,0,0-1.1-1.1H27.8a1.1,1.1,0,0,0-1.1,1.1v3.7a.5.5,0,0,1-.5.5H13.5a.5.5,0,0,1-.5-.5V27.3a2.3,2.3,0,0,1,2.2-2.2H49.5a2.3,2.3,0,0,1,2.2,2.2V75.4A.5.5,0,0,1,51.2,75.9Zm-12.5-1h12V27.3a1.2,1.2,0,0,0-1.2-1.2H15.2A1.2,1.2,0,0,0,14,27.3V74.9H25.6V71.7a2.2,2.2,0,0,1,2.1-2.1h8.9a2.2,2.2,0,0,1,2.1,2.1Z"/><path class="cls-1" d="M48.6,67.7H16.2a.6.6,0,0,1-.5-.5V65.7a.5.5,0,0,1,.5-.5H48.6a.5.5,0,0,1,.5.5v1.5A.6.6,0,0,1,48.6,67.7Zm-31.9-1H48.1v-.5H16.7Z"/><path class="cls-1" d="M19.8,75.7a.5.5,0,0,1-.5-.5h0V67.5a.5.5,0,0,1,.5-.5.5.5,0,0,1,.4.5v7.7a.4.4,0,0,1-.4.5Z"/><path class="cls-1" d="M45.1,75.7a.5.5,0,0,1-.5-.5V67.5a.5.5,0,0,1,1,0v7.7a.5.5,0,0,1-.5.5Z"/><path class="cls-1" d="M36.1,78.3H28a.5.5,0,0,1-.5-.5V72a.5.5,0,0,1,.5-.5h8.1a.5.5,0,0,1,.5.5v5.8A.5.5,0,0,1,36.1,78.3Zm-7.6-1h7.1V72.5H28.5Z"/><rect class="cls-1" x="29.5" y="74.1" width="4.9" height="1.27"/><path class="cls-1" d="M33.5,31.8h-.3l-1-.7a.5.5,0,0,1-.1-.7.6.6,0,0,1,.7-.1h0l1,.7a.6.6,0,0,1,.1.7h0Z"/><path class="cls-1" d="M33.5,31.8a.5.5,0,0,1-.5-.5.8.8,0,0,1,.2-.4l1-.7c.2-.1.5-.1.6.1s.2.6-.1.7l-.9.7Z"/><path class="cls-1" d="M32.5,31.1a.5.5,0,0,1-.5-.5v-.4a.5.5,0,0,1,1,0v.4A.5.5,0,0,1,32.5,31.1Z"/><path class="cls-1" d="M32.5,30.7a.5.5,0,0,1-.5-.5v-.7c0-.2.2-.4.5-.5a.5.5,0,0,1,.5.5v.7A.5.5,0,0,1,32.5,30.7Z"/><path class="cls-1" d="M33.5,30h-1a.5.5,0,0,1-.5-.5c0-.2.2-.4.5-.5h1c.2.1.5.3.5.5A.5.5,0,0,1,33.5,30Z"/><path class="cls-1" d="M34.4,31.1a.5.5,0,0,1-.5-.5v-.4a.5.5,0,0,1,.5-.5.5.5,0,0,1,.5.5v.4A.5.5,0,0,1,34.4,31.1Z"/><path class="cls-1" d="M34.4,30.7a.5.5,0,0,1-.5-.5v-.7a.6.6,0,0,1,.5-.5c.3.1.5.3.5.5v.7A.5.5,0,0,1,34.4,30.7Z"/><path class="cls-1" d="M34.4,30h-.9a.5.5,0,0,1-.5-.5c0-.2.2-.4.5-.5h.9c.3.1.5.3.5.5A.5.5,0,0,1,34.4,30Z"/><path class="cls-1" d="M35.9,28.3H31a.5.5,0,0,1-.5-.5v-2a.5.5,0,0,1,.5-.5h4.9c.2,0,.4.2.5.5v2A.5.5,0,0,1,35.9,28.3Zm-4.5-1h3.9v-1H31.4Z"/><path class="cls-1" d="M35.5,29.9H31.3a.5.5,0,0,1-.5-.4l-.4-1.7c0-.3.1-.6.4-.6h5l.4.2c.1.1.1.2.1.4l-.4,1.7A.4.4,0,0,1,35.5,29.9Zm-3.8-1h3.4l.2-.7H31.5Z"/><path class="cls-1" d="M29.4,18h1.4v.2l-.9,1.3h1V20H29.3v-.3l.8-1.3h-.8Z"/><path class="cls-1" d="M32.4,19.9h-.2l-.3.2h-.5l-.2-.2-.2-.2v-.4a.2.2,0,0,1,.2-.2c0-.1.2-.1.3-.2h.5a.3.3,0,0,0-.1.2c0,.1-.1.1-.2.1h-.2v.2H32c.1,0,.1-.1.2-.2v-.5c0-.2,0-.3-.1-.4h-.8v-.3l.4-.2h.3a.9.9,0,0,1,.6.3c.2.1.2.4.2.6V20Z"/><path class="cls-1" d="M34.7,19.9h-.6l-.4-.6h0l-.3.6h-.6l.7-1-.7-1h.6l.3.5.3.5Z"/><path class="cls-1" d="M36,18.7c.1,0,.1-.1,0-.1v-.2h-.6a.3.3,0,0,1-.1.2v.3c0,.2,0,.4.2.5s.2.2.3.2h.6v.4H35.3l-.3-.2c-.1-.1-.1-.3-.2-.4v-.4a.6.6,0,0,1,.1-.4c0-.1.1-.2.2-.3l.3-.2h.8c.1.1.2.1.2.3s.2.2.2.3a.9.9,0,0,1-.1.5H35.4c0-.1.1-.2.1-.3H36Z"/><path class="cls-1" d="M34.2,18h.5l-.6.8H34v-.4Z"/></svg>