<svg id="Layer_1" data-name="Layer 1" xmlns="http://www.w3.org/2000/svg" viewBox="0 0 65 110"><defs><style>.cls-1{fill:#231f20;}</style></defs><title>zaxe_Z1-01</title><g id="Layer_1-2" data-name="Layer 1-2"><path d="M28.73,101.73h5.46v1.92H25.94V102l5.46-7H26V93.14h8.23v1.64Z"/><path d="M38.86,95.7l-2.61.94v-2L40.88,93v8.75h2.38v1.92H36.37v-1.92h2.49Z"/><path class="cls-1" d="M54.25,84.94h-3.8A.48.48,0,0,1,50,84.6s-.31-.85-.91-.85H17.44c-.6,0-.9.84-.9.85a.51.51,0,0,1-.48.34h-3.8a.5.5,0,0,1-.5-.5V33.65c0-.06.44-5.38,2-5.38h39c1.57,0,2,4.85,2,4.9V84.44a.5.5,0,0,1-.5.5Zm-3.47-1h3V33.17c0-.94-.66-3.65-1.09-3.92H13.88c-.47.44-1.09,3.46-1.09,4.38V83.94h3a2,2,0,0,1,1.71-1.19H49.07A2,2,0,0,1,50.78,83.94Z"/><path class="cls-1" d="M46,77.66H20.62a3.21,3.21,0,0,1-3.21-3.21h0V38.65a.5.5,0,0,1,.5-.5H45.85a.49.49,0,0,1,.48.37v8.89a.2.2,0,0,0,.2.2H48.7a.5.5,0,0,1,.5.5V74.45A3.21,3.21,0,0,1,46,77.66ZM18.41,39.15v35.3a2.21,2.21,0,0,0,2.21,2.21H46a2.21,2.21,0,0,0,2.21-2.21V48.61H46.58a1.2,1.2,0,0,1-1.2-1.2h0V39.15Z"/><path class="cls-1" d="M48.72,34H18.16a.52.52,0,0,1-.44-.25,5.55,5.55,0,0,1,0-5.25.5.5,0,0,1,.44-.25H48.72a.49.49,0,0,1,.46.31,7.92,7.92,0,0,1,0,5.09A.51.51,0,0,1,48.72,34ZM18.46,33H48.35a7,7,0,0,0,0-3.75H18.47A4.43,4.43,0,0,0,18.46,33Z"/><path class="cls-1" d="M46.72,67.23H20.29a.5.5,0,0,1-.5-.5V65.5a.52.52,0,0,1,.5-.5H46.72a.52.52,0,0,1,.5.5v1.23A.5.5,0,0,1,46.72,67.23Zm-25.93-1H46.22V66H20.79Z"/><path class="cls-1" d="M23.17,77.38a.5.5,0,0,1-.5-.5V67.13a.5.5,0,0,1,1,0v9.75A.5.5,0,0,1,23.17,77.38Z"/><path class="cls-1" d="M43.88,77.38a.5.5,0,0,1-.5-.5V67.13a.5.5,0,0,1,1,0v9.75A.5.5,0,0,1,43.88,77.38Z"/><path class="cls-1" d="M53.07,47.43H47.13a.5.5,0,0,1-.5-.5V38.68a.5.5,0,0,1,.5-.5h5.94a.5.5,0,0,1,.5.5v8.25A.5.5,0,0,1,53.07,47.43Zm-5.44-1h4.94V39.18H47.63Z"/><path class="cls-1" d="M33.49,44.87a.43.43,0,0,1-.29-.1l-1-.71a.49.49,0,0,1-.13-.68h0a.5.5,0,0,1,.7-.12h0l1,.71a.48.48,0,0,1,.12.68v0A.49.49,0,0,1,33.49,44.87Z"/><path class="cls-1" d="M33.49,44.87a.51.51,0,0,1-.41-.21.5.5,0,0,1,.12-.7h0l1-.71a.5.5,0,0,1,.7.12h0a.48.48,0,0,1-.11.68h0l-1,.71A.43.43,0,0,1,33.49,44.87Z"/><path class="cls-1" d="M32.51,44.16a.5.5,0,0,1-.5-.5v-.44a.5.5,0,0,1,1,0v.44A.52.52,0,0,1,32.51,44.16Z"/><path class="cls-1" d="M32.51,43.72a.5.5,0,0,1-.5-.5v-.66a.5.5,0,0,1,1,0v.66A.5.5,0,0,1,32.51,43.72Z"/><path class="cls-1" d="M33.49,43.06h-1a.5.5,0,0,1,0-1h1a.5.5,0,1,1,0,1Z"/><path class="cls-1" d="M34.47,44.16a.5.5,0,0,1-.5-.5v-.44a.5.5,0,0,1,1,0v.44A.5.5,0,0,1,34.47,44.16Z"/><path class="cls-1" d="M34.47,43.72a.5.5,0,0,1-.5-.5v-.66a.5.5,0,0,1,1,0v.66A.5.5,0,0,1,34.47,43.72Z"/><path class="cls-1" d="M34.47,43.06h-1a.5.5,0,0,1,0-1h1a.5.5,0,0,1,0,1Z"/><path class="cls-1" d="M35.93,43.06h-5a.5.5,0,0,1-.5-.5V38.62a.5.5,0,0,1,.5-.5h5a.5.5,0,0,1,.5.5v3.94a.5.5,0,0,1-.5.5Zm-4.54-1h4V39.12h-4Z"/><path class="cls-1" d="M34.62,41H32.18a.5.5,0,0,1,0-1h2.44a.5.5,0,1,1,0,1Z"/><path class="cls-1" d="M29.67,35.09h1.47v.23l-.89,1.34-.06.07h.95v.38H29.57v-.23l.89-1.35.06-.07h-.85Z"/><path class="cls-1" d="M32.72,37.1a.24.24,0,0,1-.09-.08l-.06-.11v0a1.27,1.27,0,0,1-.31.2.66.66,0,0,1-.28,0,.53.53,0,0,1-.25,0,.5.5,0,0,1-.19-.13.36.36,0,0,1-.12-.18.45.45,0,0,1,0-.23.46.46,0,0,1,0-.23.55.55,0,0,1,.17-.2A1,1,0,0,1,32,36a4.54,4.54,0,0,1,.51-.09.68.68,0,0,1-.08.24.27.27,0,0,1-.18.13.31.31,0,0,0-.22.09.27.27,0,0,0-.06.17.24.24,0,0,0,.24.24.39.39,0,0,0,.23-.07,2,2,0,0,0,.21-.2v-.59a.55.55,0,0,0-.11-.33.41.41,0,0,0-.32-.12H32l-.24.07-.13-.34a1.42,1.42,0,0,1,.35-.11,1.71,1.71,0,0,1,.32,0,.94.94,0,0,1,.64.22.83.83,0,0,1,.23.63v1a1.13,1.13,0,0,0,0,.26Z"/><path class="cls-1" d="M35.1,37.1h-.56l-.42-.68h0l-.35.64h-.59l.66-1-.7-1h.61c.09.16.2.32.3.48l.32.49Z"/><path class="cls-1" d="M36.49,35.87V35.7a.37.37,0,0,0-.07-.14.18.18,0,0,0-.11-.1.22.22,0,0,0-.16,0H36a.53.53,0,0,0-.14.12.45.45,0,0,0-.11.19.71.71,0,0,0,0,.29.8.8,0,0,0,.15.52.45.45,0,0,0,.4.19.57.57,0,0,0,.26,0,1.63,1.63,0,0,0,.31-.11L37,37a2.26,2.26,0,0,1-.39.15h-.37a1,1,0,0,1-.46-.1,1.11,1.11,0,0,1-.32-.25.92.92,0,0,1-.19-.35,1.27,1.27,0,0,1,0-.83,1,1,0,0,1,.22-.32,1.32,1.32,0,0,1,.32-.2,1.34,1.34,0,0,1,.4-.07.86.86,0,0,1,.39.09.62.62,0,0,1,.29.24.7.7,0,0,1,.14.36,1.19,1.19,0,0,1-.06.46H35.84A.62.62,0,0,1,36,36a.21.21,0,0,1,.18-.09Z"/><path class="cls-1" d="M34.55,35.09h.59l-.6.85a.68.68,0,0,1-.15-.26.43.43,0,0,1,0-.16.49.49,0,0,1,0-.17Z"/><rect class="cls-1" x="48.26" y="43.06" width="3.69" height="1.3"/></g></svg>