<?xml version="1.0" encoding="utf-8"?>
<!-- Generator: Adobe Illustrator 24.0.1, SVG Export Plug-In . SVG Version: 6.00 Build 0)  -->
<svg version="1.1" id="Layer_1" xmlns="http://www.w3.org/2000/svg" xmlns:xlink="http://www.w3.org/1999/xlink" x="0px" y="0px"
	 viewBox="0 0 65 110" style="enable-background:new 0 0 65 110;" xml:space="preserve">
<style type="text/css">
	.st0{fill:#231F20;}
</style>
<title>Asset 17</title>
<g id="Layer_1-2">
	<path class="st0" d="M23.4,31.2H17c-0.2,0-0.3-0.1-0.4-0.2c-0.1-0.1-0.1-0.3-0.1-0.4l1.2-4c0.1-0.2,0.3-0.4,0.5-0.4h5.2
		c0.3,0,0.5,0.2,0.5,0.5v4C23.9,31,23.7,31.2,23.4,31.2z M17.7,30.2h5.2v-3.1h-4.3L17.7,30.2z"/>
	<path class="st0" d="M53.2,84.9h-3.8c-0.2,0-0.4-0.1-0.5-0.3c0,0-0.3-0.8-0.9-0.8H16.4c-0.6,0-0.9,0.8-0.9,0.8
		c-0.1,0.2-0.3,0.3-0.5,0.3h-3.8c-0.3,0-0.5-0.2-0.5-0.5V32.2c0-1.1,0.9-2,2-2h39c1.1,0,2,0.9,2,2v52.2
		C53.8,84.7,53.5,84.9,53.2,84.9L53.2,84.9z M49.8,83.9h3V32.2c0-0.6-0.4-1-1-1h-39c-0.6,0-1,0.4-1,1v51.7h3c0.3-0.7,1-1.1,1.7-1.2
		h31.6C48.8,82.8,49.5,83.3,49.8,83.9z M47.8,76.9h-8.4c-0.3,0-0.5-0.2-0.5-0.5v-4c0-0.4-0.4-0.8-0.8-0.8H26.2
		c-0.4,0-0.8,0.4-0.8,0.8v4c0,0.3-0.2,0.5-0.5,0.5h-8c-0.3,0-0.5-0.2-0.5-0.5V39c0-1.8,1.4-3.2,3.2-3.2l0,0H45
		c1.8,0,3.2,1.4,3.2,3.2v37.3C48.2,76.7,48,76.9,47.8,76.9L47.8,76.9z M39.9,75.9h7.4V39c0-1.2-1-2.2-2.2-2.2H19.6
		c-1.2,0-2.2,1-2.2,2.2l0,0l0,0v36.8h7v-3.5c0-1,0.8-1.8,1.8-1.8H38c1,0,1.8,0.8,1.8,1.8L39.9,75.9z"/>
	<path class="st0" d="M36.4,79.5h-8.2c-0.3,0-0.5-0.2-0.5-0.5v-5.9c0-0.3,0.2-0.5,0.5-0.5h8.2c0.3,0,0.5,0.2,0.5,0.5V79
		C36.9,79.3,36.7,79.5,36.4,79.5z M28.7,78.5h7.2v-4.9h-7.2V78.5z"/>
	<path class="st0" d="M45.6,68.3H19.2c-0.3,0-0.5-0.2-0.5-0.5v-1.2c0-0.3,0.2-0.5,0.5-0.5h26.4c0.3,0,0.5,0.2,0.5,0.5v1.2
		C46.1,68.1,45.9,68.3,45.6,68.3z M19.7,67.3h25.4v-0.2H19.7L19.7,67.3z"/>
	<path class="st0" d="M22,76.8c-0.3,0-0.5-0.2-0.5-0.5v-8.1c0-0.3,0.2-0.5,0.5-0.5s0.5,0.2,0.5,0.5v8.1C22.5,76.6,22.3,76.8,22,76.8
		z"/>
	<path class="st0" d="M42.8,76.8c-0.3,0-0.5-0.2-0.5-0.5v-8.1c0-0.3,0.2-0.5,0.5-0.5s0.5,0.2,0.5,0.5v8.1
		C43.2,76.6,43,76.8,42.8,76.8z"/>
	<path class="st0" d="M20.9,27.1c-0.3,0-0.5-0.2-0.5-0.5v-0.3c0-0.3,0.2-0.5,0.5-0.5s0.5,0.2,0.5,0.5v0.3
		C21.4,26.9,21.1,27.1,20.9,27.1z"/>
	<path class="st0" d="M33.5,31c-0.3,0-0.5-0.2-0.5-0.5v-4.1c0-0.3,0.2-0.5,0.5-0.5s0.5,0.2,0.5,0.5v4.1C34,30.8,33.7,31,33.5,31z"/>
	<path class="st0" d="M33.5,27c-0.3,0-0.5-0.2-0.5-0.5c0.1-3.2-2.3-5.9-5.6-6.1s-5.9,2.3-6.1,5.6l0,0c0,0.2,0,0.3,0,0.5
		c0,0.3-0.2,0.5-0.5,0.5c-0.3,0-0.5-0.2-0.5-0.5c-0.1-3.8,2.8-6.9,6.6-7.1c3.8-0.1,6.9,2.8,7.1,6.6c0,0.2,0,0.3,0,0.5
		C34,26.8,33.8,27,33.5,27z"/>
	<rect x="29.8" y="75.4" class="st0" width="5" height="1.3"/>
	<path class="st0" d="M32.2,42.6c-0.1,0-0.2,0-0.3-0.1l-1-0.7c-0.2-0.2-0.3-0.5-0.1-0.7s0.5-0.3,0.7-0.1l0,0l0,0l1,0.7
		c0.2,0.2,0.3,0.5,0.1,0.7C32.5,42.5,32.3,42.6,32.2,42.6z"/>
	<path class="st0" d="M32.2,42.6c-0.2,0-0.3-0.1-0.4-0.2c-0.2-0.2-0.1-0.5,0.1-0.7l1-0.7c0.2-0.2,0.5-0.1,0.7,0.1s0.1,0.5-0.1,0.7
		l0,0l0,0l-1,0.7C32.4,42.5,32.3,42.6,32.2,42.6z"/>
	<path class="st0" d="M31.2,41.8c-0.3,0-0.5-0.2-0.5-0.5v-0.4c0-0.3,0.2-0.5,0.5-0.5s0.5,0.2,0.5,0.5v0.4
		C31.7,41.6,31.4,41.8,31.2,41.8z"/>
	<path class="st0" d="M31.2,41.4c-0.3,0-0.5-0.2-0.5-0.5v-0.7c0-0.3,0.2-0.5,0.5-0.5s0.5,0.2,0.5,0.5v0.7
		C31.7,41.2,31.4,41.4,31.2,41.4z"/>
	<path class="st0" d="M32.2,40.8h-1c-0.3,0-0.5-0.2-0.5-0.5s0.2-0.5,0.5-0.5h1c0.3,0,0.5,0.2,0.5,0.5C32.6,40.5,32.4,40.7,32.2,40.8
		z"/>
	<path class="st0" d="M33.1,41.8c-0.3,0-0.5-0.2-0.5-0.5v-0.4c0-0.3,0.2-0.5,0.5-0.5s0.5,0.2,0.5,0.5v0.4
		C33.6,41.6,33.4,41.8,33.1,41.8z"/>
	<path class="st0" d="M33.1,41.4c-0.3,0-0.5-0.2-0.5-0.5v-0.7c0-0.3,0.2-0.5,0.5-0.5s0.5,0.2,0.5,0.5v0.7
		C33.6,41.2,33.4,41.4,33.1,41.4z"/>
	<path class="st0" d="M33.1,40.8h-1c-0.3,0-0.5-0.2-0.5-0.5s0.2-0.5,0.5-0.5h1c0.3,0,0.5,0.2,0.5,0.5C33.6,40.5,33.4,40.7,33.1,40.8
		z"/>
	<path class="st0" d="M34.6,39h-5c-0.3,0-0.5-0.2-0.5-0.5v-2.1c0-0.3,0.2-0.5,0.5-0.5h5c0.3,0,0.5,0.2,0.5,0.5v2.1
		C35.1,38.8,34.9,39,34.6,39z M30,38h4v-1.1h-4V38z"/>
	<path class="st0" d="M34.2,40.6h-4.3c-0.2,0-0.4-0.2-0.5-0.4l-0.4-1.8c-0.1-0.3,0.1-0.5,0.4-0.6c0,0,0,0,0,0h5.1
		c0.2,0,0.3,0,0.4,0.2c0.1,0.1,0.1,0.3,0.1,0.4l-0.4,1.8C34.7,40.5,34.5,40.6,34.2,40.6z M30.3,39.6h3.5l0.2-0.8h-3.8L30.3,39.6z"/>
	<path class="st0" d="M28.4,32.5h1.5v0.2L29,34.1l-0.1,0.1h1v0.4h-1.6v-0.2l0.9-1.4l0.1-0.1h-0.9L28.4,32.5z"/>
	<path class="st0" d="M31.4,34.6C31.4,34.6,31.3,34.5,31.4,34.6l-0.1-0.2l0,0c-0.1,0.1-0.2,0.2-0.3,0.2c-0.1,0-0.2,0-0.3,0
		c-0.1,0-0.2,0-0.2,0c-0.1,0-0.1-0.1-0.2-0.1c-0.1-0.1-0.1-0.1-0.1-0.2C30.1,34.2,30,34.1,30,34c0-0.1,0-0.2,0-0.2
		c0-0.1,0.1-0.2,0.2-0.2c0.1-0.1,0.2-0.1,0.3-0.2c0.2-0.1,0.3-0.1,0.5-0.1c0,0.1,0,0.2-0.1,0.2c0,0.1-0.1,0.1-0.2,0.1
		c-0.1,0-0.2,0-0.2,0.1c0,0-0.1,0.1-0.1,0.2c0,0.1,0,0.1,0.1,0.2c0,0,0.1,0.1,0.2,0.1c0.1,0,0.2,0,0.2-0.1c0.1-0.1,0.1-0.1,0.2-0.2
		v-0.6c0-0.1-0.1-0.2-0.1-0.3c-0.1-0.1-0.2-0.1-0.3-0.1c-0.1,0-0.1,0-0.2,0c-0.1,0-0.2,0-0.2,0.1l-0.1-0.3l0.4-0.1h0.3
		c0.2,0,0.5,0.1,0.6,0.2c0.2,0.2,0.2,0.4,0.2,0.6v1c0,0.1,0,0.2,0,0.3L31.4,34.6z"/>
	<path class="st0" d="M33.8,34.6h-0.6l-0.4-0.7l0,0l-0.3,0.7h-0.6l0.7-1l-0.7-1h0.6l0.3,0.5l0.3,0.5L33.8,34.6z"/>
	<path class="st0" d="M35.2,33.3c0-0.1,0-0.1,0-0.2c0-0.1,0-0.1-0.1-0.2c0,0-0.1-0.1-0.1-0.1c-0.1,0-0.1,0-0.2,0c-0.1,0-0.1,0-0.2,0
		c-0.1,0-0.1,0.1-0.1,0.1c-0.1,0.1-0.1,0.1-0.1,0.2c0,0.1,0,0.2,0,0.3c0,0.2,0,0.4,0.2,0.5c0.1,0.1,0.2,0.2,0.4,0.2h0.3
		c0.1,0,0.2-0.1,0.3-0.1l0.1,0.4c-0.1,0.1-0.3,0.1-0.4,0.1h-0.4c-0.2,0-0.3,0-0.5-0.1c-0.1-0.1-0.2-0.1-0.3-0.2
		C34.1,34.2,34,34,34,33.9c0-0.1-0.1-0.3-0.1-0.4c0-0.1,0-0.3,0.1-0.4c0.1-0.2,0.3-0.4,0.5-0.5c0.1,0,0.3-0.1,0.4-0.1
		c0.1,0,0.3,0,0.4,0.1c0.1,0.1,0.2,0.1,0.3,0.2c0.1,0.1,0.1,0.2,0.1,0.4c0,0.2,0,0.3-0.1,0.5h-1.1c0-0.1,0.1-0.2,0.1-0.2
		c0-0.1,0.1-0.1,0.2-0.1L35.2,33.3z"/>
	<path class="st0" d="M33.2,32.5h0.6l-0.6,0.9c0,0-0.1-0.1-0.1-0.1c0,0-0.1-0.1-0.1-0.2c0-0.1,0-0.1,0-0.2c0-0.1,0-0.1,0-0.2
		L33.2,32.5z"/>
	<g>
		<path d="M31.7,103.7h-2.4l-2.4-3.7l-2.4,3.7H22l3.6-5.3l-3.5-5.1h2.4l2.3,3.6l2.3-3.6h2.4l-3.5,5.1L31.7,103.7z"/>
		<path d="M36.2,93c2.2,0,3.5,1.4,3.5,3.4c0,1.3-0.7,2.2-1.5,3l-2.2,2.3h4v1.9h-6.9v-1.6l3.7-3.8c0.6-0.6,0.9-1.1,0.9-1.8
			c0-0.9-0.6-1.6-1.6-1.6c-1,0-1.6,0.5-2.1,1.1l-1.3-1.3C33.2,94.1,34.2,93,36.2,93z"/>
	</g>
</g>
</svg>
