<?xml version="1.0" encoding="utf-8"?>
<!-- Generator: Adobe Illustrator 26.0.1, SVG Export Plug-In . SVG Version: 6.00 Build 0)  -->
<!DOCTYPE svg PUBLIC "-//W3C//DTD SVG 1.1//EN" "http://www.w3.org/Graphics/SVG/1.1/DTD/svg11.dtd" [
	<!ENTITY st0 "fill:none;stroke:#000000;stroke-width:0.7023;stroke-miterlimit:10;">
	<!ENTITY st1 "fill:none;stroke:#FFFFFF;stroke-width:0.7023;stroke-miterlimit:10;">
	<!ENTITY st2 "fill:none;stroke:#000000;stroke-width:0.7027;stroke-miterlimit:10;">
	<!ENTITY st3 "fill:none;stroke:#FFFFFF;stroke-width:0.7027;stroke-miterlimit:10;">
	<!ENTITY st4 "stroke:#000000;stroke-width:0.1171;stroke-miterlimit:10;">
	<!ENTITY st5 "fill:none;stroke:#000000;stroke-width:0.5848;stroke-miterlimit:10;">
	<!ENTITY st6 "fill:none;stroke:#000000;stroke-width:0.8807;stroke-miterlimit:10;">
	<!ENTITY st7 "stroke:#000000;stroke-width:0.1468;stroke-miterlimit:10;">
	<!ENTITY st8 "fill:none;stroke:#FFFFFF;stroke-width:0.8807;stroke-miterlimit:10;">
	<!ENTITY st9 "fill:#FFFFFF;stroke:#000000;stroke-width:0.8807;stroke-miterlimit:10;">
	<!ENTITY st10 "fill:#FFFFFF;fill-opacity:0;stroke:#000000;stroke-width:0.8807;stroke-miterlimit:10;">
]>
<svg version="1.1" id="Layer_3" xmlns="http://www.w3.org/2000/svg" xmlns:xlink="http://www.w3.org/1999/xlink" x="0px" y="0px"
	 viewBox="0 0 65 110" style="enable-background:new 0 0 65 110;" xml:space="preserve">
<g>
	<path d="M28.8,94.8l-5.5,6.9h5.5v1.9h-8.2v-1.6l5.5-6.9h-5.4v-1.9h8.2V94.8z"/>
	<path d="M37.2,96c0,1.1-0.6,1.9-1.6,2.4c1.1,0.4,1.8,1.3,1.8,2.4c0,2.1-1.9,3.1-3.9,3.1c-1.6,0-2.9-0.6-3.7-1.5l1.2-1.3
		c0.6,0.6,1.5,1,2.4,1c1,0,1.8-0.4,1.8-1.4c0-0.9-0.9-1.4-2.1-1.4h-1.2v-1.8h1.2c1,0,1.8-0.5,1.8-1.3c0-0.8-0.8-1.3-1.7-1.3
		s-1.7,0.5-2.1,1.1L30,94.6c0.7-0.9,1.8-1.6,3.5-1.6C35.7,93,37.2,94.2,37.2,96z"/>
	<path d="M41.8,103.2v-2.6h-2.6v-1.7h2.6v-2.6h1.7v2.6h2.6v1.7h-2.6v2.6H41.8z"/>
</g>
<g>
	<rect x="32.5" y="32.7" style="&st6;" width="23.3" height="2"/>
	<rect x="9.2" y="32.7" style="&st6;" width="23.3" height="2"/>
	<path style="&st6;" d="M61.4,72.8v6c0,0.1,0,0.3,0,0.4c0,0.3-0.1,0.7-0.2,1.1c-0.3,1.2-1.1,2.3-2.2,3c-0.6,0.4-1.4,0.7-2.1,0.8
		l-0.2,0l-0.2,0l-0.2,0c-1,0-42.3,0-44.2,0c-0.3,0-3.3,0-3.5,0c-0.2,0-0.5,0-0.7-0.1c-0.8-0.1-1.5-0.4-2.1-0.9c-1-0.7-1.7-1.7-2-2.9
		c-0.1-0.4-0.2-0.8-0.2-1.2c0,0,0-0.2,0-0.2v-6l0,0v0l0,0l0,0l0,0c0,0,0,0,0-0.1c0,0,0-0.1,0.1-0.1c0,0,0,0,0,0c0,0,0,0,0,0
		c0,0,0.1-0.1,0.1-0.1c0,0,0,0,0,0c0,0,0,0,0.1,0c0,0,0,0,0.1,0c0,0,0,0,0.1,0h0h0.2v0c0,0,56.4,0,56.4,0v0c0.1,0,0.2,0,0.3,0
		c0.1,0,0.1,0,0.1,0c0,0,0,0,0,0c0,0,0,0,0,0c0,0,0.1,0.1,0.1,0.1C61.4,72.6,61.4,72.7,61.4,72.8z"/>
	<polygon style="&st6;" points="55.8,84.6 55.8,84.6 55.8,84.6 55.8,84.6 55.8,84.6 55.8,84.6 55.8,84.6 55.8,84.6 55.8,84.6 
		55.8,84.6 55.8,84.6 55.8,84.6 55.8,84.7 55.8,84.7 55.8,84.7 55.8,84.7 55.8,84.7 55.8,84.7 55.8,84.7 55.8,84.7 55.8,84.7 
		55.8,84.7 55.8,84.7 55.8,84.7 55.8,84.7 55.8,84.7 55.8,84.7 55.8,84.7 55.8,84.7 55.7,84.7 55.7,84.7 55.7,84.7 55.7,84.7 
		55.7,84.8 55.7,84.8 55.7,84.8 55.7,84.8 55.7,84.8 55.7,84.8 55.7,84.8 55.7,84.8 55.7,84.8 55.7,84.8 55.7,84.8 55.6,84.8 
		55.6,84.8 55.6,84.8 54.3,84.8 53.1,84.8 53.1,84.8 53.1,84.8 53,84.8 53,84.8 53,84.8 53,84.8 53,84.8 53,84.8 53,84.8 53,84.8 
		53,84.8 53,84.8 53,84.8 53,84.7 53,84.7 53,84.7 53,84.7 52.9,84.7 52.9,84.7 52.9,84.7 52.9,84.7 52.9,84.7 52.9,84.7 52.9,84.7 
		52.9,84.7 52.9,84.7 52.9,84.7 52.9,84.7 52.9,84.7 52.9,84.7 52.9,84.7 52.9,84.7 52.9,84.7 52.9,84.7 52.9,84.6 52.9,84.6 
		52.9,84.6 52.9,84.6 52.9,84.6 52.9,84.6 52.9,84.6 52.9,84.6 52.9,84.6 52.9,84.6 52.9,84.6 52.9,84.6 52.9,84 55.8,84 	"/>
	<path style="&st6;" d="M50.3,62.4c0,0,0-7.1,0-7.1c0,0,0,0,0-0.1c1.5-0.1,3.9,0,5.4,0v-1c-1.7,0-4.2,0-5.8,0
		c-0.3,0-0.5,0.2-0.6,0.4c-0.1,0.1-0.1,0.2-0.1,0.3c0,0.1,0,0.1,0,0.2c0,0,0,7.5,0,7.6c0,0.2,0.1,0.3,0.1,0.5
		c0.1,0.2,0.4,0.4,0.6,0.4c1.7,0,4.2,0,5.8,0v-1C54.3,62.5,51.9,62.5,50.3,62.4L50.3,62.4C50.3,62.5,50.3,62.5,50.3,62.4
		C50.3,62.5,50.3,62.4,50.3,62.4z"/>
	<path style="&st6;" d="M14.7,62.4c0,0,0-7.1,0-7.1c0,0,0,0,0-0.1c-1.5-0.1-3.9,0-5.4,0v-1c1.7,0,4.2,0,5.8,0c0.3,0,0.5,0.2,0.6,0.4
		c0.1,0.1,0.1,0.2,0.1,0.3c0,0.1,0,0.1,0,0.2c0,0,0,7.5,0,7.6c0,0.2-0.1,0.3-0.1,0.5c-0.1,0.2-0.4,0.4-0.6,0.4c-1.7,0-4.2,0-5.8,0
		v-1C10.7,62.5,13.1,62.5,14.7,62.4L14.7,62.4C14.6,62.5,14.6,62.5,14.7,62.4C14.7,62.5,14.7,62.4,14.7,62.4z"/>
	<polygon style="&st6;" points="12.1,84.6 12.1,84.6 12.1,84.6 12.1,84.6 12.1,84.6 12.1,84.6 12.1,84.6 12.1,84.6 12.1,84.6 
		12.1,84.6 12.1,84.6 12.1,84.7 12.1,84.7 12.1,84.7 12.1,84.7 12.1,84.7 12.1,84.7 12.1,84.7 12.1,84.7 12.1,84.7 12.1,84.7 
		12.1,84.7 12.1,84.7 12.1,84.7 12.1,84.7 12.1,84.7 12.1,84.7 12.1,84.7 12,84.7 12,84.7 12,84.7 12,84.7 12,84.8 12,84.8 12,84.8 
		12,84.8 12,84.8 12,84.8 12,84.8 12,84.8 12,84.8 12,84.8 12,84.8 12,84.8 11.9,84.8 11.9,84.8 10.7,84.8 9.4,84.8 9.4,84.8 
		9.4,84.8 9.3,84.8 9.3,84.8 9.3,84.8 9.3,84.8 9.3,84.8 9.3,84.8 9.3,84.8 9.3,84.8 9.3,84.8 9.3,84.8 9.3,84.8 9.3,84.7 9.3,84.7 
		9.3,84.7 9.3,84.7 9.3,84.7 9.2,84.7 9.2,84.7 9.2,84.7 9.2,84.7 9.2,84.7 9.2,84.7 9.2,84.7 9.2,84.7 9.2,84.7 9.2,84.7 9.2,84.7 
		9.2,84.7 9.2,84.7 9.2,84.7 9.2,84.7 9.2,84.7 9.2,84.6 9.2,84.6 9.2,84.6 9.2,84.6 9.2,84.6 9.2,84.6 9.2,84.6 9.2,84.6 9.2,84.6 
		9.2,84.6 9.2,84.6 9.2,84.6 9.2,84 12.1,84 12.1,84.6 	"/>
	<g>
		<rect x="55.4" y="67.8" style="&st6;" width="0.3" height="0.6"/>
		<polygon style="&st6;" points="55.8,67 55.8,67.8 55.4,67.8 55.4,67.8 34.1,67.8 30.9,67.8 9.6,67.8 9.2,67.8 9.2,67 9.6,67 
			12.2,67 52.8,67 55.4,67 55.4,67 		"/>
		<rect x="55.4" y="66.4" style="&st6;" width="0.3" height="0.6"/>
		<polygon style="&st6;" points="52.8,65.8 52.8,67 12.2,67 12.2,65.8 31.5,65.8 33.5,65.8 		"/>
		<polygon style="&st6;" points="34.1,67.8 34.1,68.4 33.5,68.4 31.5,68.4 30.9,68.4 30.9,67.8 		"/>
		<polygon style="&st6;" points="33.5,68.4 33.5,70.8 33.1,70.8 31.9,70.8 31.5,70.8 31.5,68.4 		"/>
		<polygon style="&st6;" points="33.5,64.1 33.5,65.8 31.5,65.8 31.5,64.1 31.9,64.1 33.1,64.1 		"/>
		<rect x="31.9" y="70.8" style="&st6;" width="1.2" height="1.5"/>
		<rect x="31.9" y="34.7" style="&st6;" width="1.2" height="29.3"/>
		<rect x="9.2" y="67.8" style="&st6;" width="0.3" height="0.6"/>
		<rect x="9.2" y="66.4" style="&st6;" width="0.3" height="0.6"/>
	</g>
	<g>
		<rect x="55.8" y="30.8" style="&st6;" width="4.9" height="41.4"/>
		<rect x="4.3" y="30.8" style="&st6;" width="4.9" height="41.4"/>
	</g>
	<g>
		<path d="M28.8,77.2h1.5v0.2l-0.9,1.4l-0.1,0.1l0.1,0h0.9v0.4h-1.6V79l0.9-1.4l0.1-0.1l-0.1,0h-0.8V77.2z"/>
		<path d="M31.9,79.2C31.9,79.2,31.9,79.2,31.9,79.2c-0.1-0.1-0.1-0.2-0.1-0.2l0-0.1l0,0.1c-0.1,0.1-0.2,0.2-0.3,0.2
			c-0.1,0-0.2,0-0.3,0c-0.1,0-0.2,0-0.3,0c-0.1,0-0.1-0.1-0.2-0.1c-0.1-0.1-0.1-0.1-0.1-0.2c0-0.1,0-0.1,0-0.2c0-0.1,0-0.2,0.1-0.2
			c0-0.1,0.1-0.1,0.2-0.2c0.1-0.1,0.2-0.1,0.3-0.2c0.1,0,0.3-0.1,0.5-0.1c0,0.1,0,0.2-0.1,0.2c0,0.1-0.1,0.1-0.2,0.1
			c-0.1,0-0.2,0-0.2,0.1c0,0-0.1,0.1-0.1,0.2c0,0.1,0,0.1,0.1,0.2c0,0,0.1,0.1,0.2,0.1c0.1,0,0.2,0,0.2-0.1c0.1-0.1,0.1-0.1,0.2-0.2
			V78c0-0.1,0-0.2-0.1-0.3c-0.1-0.1-0.2-0.1-0.3-0.1c-0.1,0-0.1,0-0.2,0c-0.1,0-0.2,0-0.3,0.1l-0.1-0.3c0.1-0.1,0.2-0.1,0.4-0.1
			c0.1,0,0.2,0,0.3,0c0.3,0,0.5,0.1,0.6,0.2c0.2,0.1,0.2,0.4,0.2,0.6v0.7c0,0.1,0,0.2,0,0.2c0,0.1,0,0.2,0,0.3H31.9z"/>
		<path d="M35.7,78c0-0.1,0-0.1,0-0.2c0-0.1,0-0.1-0.1-0.1s-0.1-0.1-0.1-0.1c0,0-0.1,0-0.2,0c-0.1,0-0.1,0-0.2,0
			c-0.1,0-0.1,0.1-0.1,0.1S35,77.8,35,77.9s0,0.2,0,0.3c0,0.2,0.1,0.4,0.2,0.5c0.1,0.1,0.2,0.2,0.4,0.2c0.1,0,0.2,0,0.3,0
			c0.1,0,0.2-0.1,0.3-0.1l0.1,0.4c-0.1,0.1-0.3,0.1-0.4,0.1c-0.1,0-0.2,0-0.4,0c-0.2,0-0.3,0-0.5-0.1c-0.1-0.1-0.2-0.2-0.3-0.3
			c-0.1-0.1-0.1-0.2-0.2-0.4c0-0.1-0.1-0.3-0.1-0.4c0-0.2,0-0.3,0.1-0.4c0.1-0.1,0.1-0.2,0.2-0.3c0.1-0.1,0.2-0.2,0.3-0.2
			c0.1,0,0.3-0.1,0.4-0.1c0.1,0,0.3,0,0.4,0.1c0.1,0.1,0.2,0.1,0.3,0.2c0.1,0.1,0.1,0.2,0.1,0.4c0,0.1,0,0.3-0.1,0.5h-1.1
			c0-0.1,0.1-0.2,0.1-0.2c0.1-0.1,0.1-0.1,0.2-0.1H35.7z"/>
		<g>
			<path d="M34.3,79.2l-0.7-1.1c-0.1-0.2-0.2-0.3-0.3-0.5c-0.1-0.2-0.2-0.3-0.3-0.5h-0.6l0.7,1l-0.7,1H33l0.3-0.6l0.4,0.6H34.3z"/>
			<g>
				<path d="M33.8,77.2h0.6L33.8,78c0,0-0.1-0.1-0.1-0.1c0,0,0-0.1-0.1-0.1c0-0.1,0-0.1,0-0.2s0-0.1,0-0.2L33.8,77.2z"/>
			</g>
		</g>
	</g>
	<path style="&st6;" d="M59.7,56.5h1v-9.9h-1c-0.6,0-1,0.5-1,1v7.8C58.7,56,59.1,56.5,59.7,56.5z"/>
	<path style="&st6;" d="M5.3,56.5h-1v-9.9h1c0.6,0,1,0.5,1,1v7.8C6.3,56,5.9,56.5,5.3,56.5z"/>
	<g>
		<path style="&st6;" d="M32.7,32.1c0-0.2,0-1.1,0-1.2h4.9c0,0.4,0,0.8,0,1.2c0,0.2-0.1,0.3-0.3,0.4c-0.1,0.1-0.3,0.2-0.5,0.2
			c-0.7,0-2.1,0-2.8,0c-0.2,0-1.1,0-1.3,0c0,0,0,0,0,0l0,0c0,0,0,0,0,0C32.7,32.5,32.7,32.2,32.7,32.1z"/>
		<path style="&st6;" d="M31.8,32.7c-0.5,0-3.3,0-3.7,0c-0.2,0-0.4-0.1-0.6-0.3c-0.1-0.1-0.2-0.2-0.2-0.4c0-0.4,0-0.8,0-1.2h4.9
			c0,0.5,0,1.3,0,1.8c0,0,0,0,0,0l0,0C32.3,32.7,31.9,32.7,31.8,32.7z"/>
	</g>
	<path style="&st6;" d="M37.1,18.8h-9.3c-0.2,0-0.3,0.1-0.3,0.3l0,0h9.9l0,0C37.4,18.9,37.3,18.8,37.1,18.8z"/>
	<path style="&st6;" d="M60.7,30.8H4.3c-0.4,0-0.7-0.3-0.7-0.7v-5.9c0-2.8,2.3-5.1,5.1-5.1h47.5c2.8,0,5.1,2.3,5.1,5.1v5.9
		C61.4,30.5,61.1,30.8,60.7,30.8z"/>
	<g>
		<g>
			<path style="&st9;" d="M24.5,34c0,0.3,0,1-0.1,1.3c-0.1,0.5-0.5,1-1,1.1c-0.1,0.1-0.3,0.1-0.5,0.1c-0.9,0-3.5,0-4.4,0
				c0-1.2,0-3.2,0-4.3c0.8,0,3.5,0,4.4,0c0.1,0,0.3,0,0.4,0.1C24,32.6,24.5,33.3,24.5,34z"/>
			<path style="&st10;" d="M25.1,35.7v1.1c-1.6,0-4.9,0-6.5,0v-0.2c0.9,0,3.5,0,4.4,0c0.3-0.1,0.6-0.2,0.9-0.4
				c0.3-0.3,0.6-0.8,0.6-1.3c0-0.3,0-1-0.1-1.3c-0.1-0.3-0.3-0.6-0.5-0.8c-0.2-0.2-0.6-0.4-0.9-0.4c-0.9-0.1-3.5,0-4.4,0V32h6.2v0.4
				c0.1,0.1,0.2,0.2,0.2,0.3C25.1,33.4,25.1,35,25.1,35.7z"/>
			<path style="&st10;" d="M24.9,37.3v0.6c-1.5,0-3.3,0-4.9,0v-0.6c0,0,0,0,0,0l0,0c0.1-0.1,0.2-0.2,0.3-0.2v-0.2h4.1V37
				c0.1,0,0.2,0.1,0.3,0.2C24.9,37.1,24.9,37.2,24.9,37.3C24.9,37.2,24.9,37.2,24.9,37.3C24.9,37.2,24.9,37.2,24.9,37.3L24.9,37.3
				L24.9,37.3C24.9,37.2,24.9,37.2,24.9,37.3z"/>
			<path style="&st7;" d="M20.4,35.8l0.3-0.5h-0.3c0,0-0.1,0.2-0.1,0.2C20.3,35.6,20.3,35.7,20.4,35.8z M20.7,36.4L20,35.3h-0.3
				l0.4,0.5l-0.4,0.5H20l0.2-0.3l0.2,0.3H20.7z"/>
			<polygon style="&st6;" points="22.6,38.9 23.2,37.8 21.7,37.8 22.3,38.9 			"/>
			<path style="&st6;" d="M24.3,34c0-0.7-0.5-1.3-1.1-1.5c-1-0.3-1.9,0.5-1.9,1.5c0,1,0.9,1.7,1.9,1.5C23.8,35.4,24.3,34.7,24.3,34z
				"/>
			<path style="&st6;" d="M23.5,34c0,0.3-0.2,0.7-0.6,0.8c-0.5,0.1-1-0.2-1-0.7c0-0.5,0.5-0.9,0.9-0.8C23.3,33.3,23.5,33.7,23.5,34z
				"/>
			<path style="&st8;" d="M23.8,34c0,0.5-0.3,0.9-0.7,1c-0.6,0.2-1.3-0.3-1.3-0.9c0-0.6,0.6-1.1,1.2-1C23.4,33.1,23.8,33.5,23.8,34z
				"/>
			<path style="&st6;" d="M23.5,34c0-0.3-0.2-0.7-0.6-0.8c-0.5-0.1-1,0.2-1,0.7c0,0.5,0.5,0.9,1,0.8C23.3,34.7,23.5,34.4,23.5,34z"
				/>
		</g>
		<g>
			<path style="&st9;" d="M45.9,34c0,0.3,0,1-0.1,1.3c-0.1,0.5-0.5,1-1,1.1c-0.1,0.1-0.3,0.1-0.5,0.1c-0.9,0-3.5,0-4.4,0
				c0-1.2,0-3.2,0-4.3c0.8,0,3.5,0,4.4,0c0.1,0,0.3,0,0.4,0.1C45.4,32.6,45.9,33.3,45.9,34z"/>
			<path style="&st10;" d="M46.5,35.7v1.1c-1.6,0-4.9,0-6.5,0v-0.2c0.9,0,3.5,0,4.4,0c0.3-0.1,0.6-0.2,0.9-0.4
				c0.3-0.3,0.6-0.8,0.6-1.3c0-0.3,0-1-0.1-1.3c-0.1-0.3-0.3-0.6-0.5-0.8c-0.2-0.2-0.6-0.4-0.9-0.4c-0.9-0.1-3.5,0-4.4,0V32h6.2v0.4
				c0.1,0.1,0.2,0.2,0.2,0.3C46.5,33.4,46.4,35,46.5,35.7z"/>
			<path style="&st10;" d="M46.3,37.3v0.6c-1.5,0-3.3,0-4.9,0v-0.6c0,0,0,0,0,0l0,0c0.1-0.1,0.2-0.2,0.3-0.2v-0.2h4.1V37
				c0.1,0,0.2,0.1,0.3,0.2C46.2,37.1,46.2,37.2,46.3,37.3C46.2,37.2,46.2,37.2,46.3,37.3C46.3,37.2,46.3,37.2,46.3,37.3L46.3,37.3
				L46.3,37.3C46.3,37.2,46.3,37.2,46.3,37.3z"/>
			<path style="&st7;" d="M41.8,35.8l0.3-0.5h-0.3c0,0-0.1,0.2-0.1,0.2C41.7,35.6,41.7,35.7,41.8,35.8z M42.1,36.4l-0.7-1.1H41
				l0.4,0.5l-0.4,0.5h0.3l0.2-0.3l0.2,0.3H42.1z"/>
			<polygon style="&st6;" points="44,38.9 44.6,37.8 43.1,37.8 43.7,38.9 			"/>
			<path style="&st6;" d="M45.7,34c0-0.7-0.5-1.3-1.1-1.5c-1-0.3-1.9,0.5-1.9,1.5c0,1,0.9,1.7,1.9,1.5C45.2,35.4,45.7,34.7,45.7,34z
				"/>
			<path style="&st6;" d="M44.9,34c0,0.3-0.2,0.7-0.6,0.8c-0.5,0.1-1-0.2-1-0.7c0-0.5,0.5-0.9,0.9-0.8C44.6,33.3,44.9,33.7,44.9,34z
				"/>
			<path style="&st8;" d="M45.1,34c0,0.5-0.3,0.9-0.7,1c-0.6,0.2-1.3-0.3-1.3-0.9c0-0.6,0.6-1.1,1.2-1C44.8,33.1,45.1,33.5,45.1,34z
				"/>
			<path style="&st6;" d="M44.9,34c0-0.3-0.2-0.7-0.6-0.8c-0.5-0.1-1,0.2-1,0.7c0,0.5,0.5,0.9,1,0.8C44.7,34.7,44.9,34.4,44.9,34z"
				/>
		</g>
	</g>
</g>
</svg>
