<?xml version="1.0" encoding="utf-8"?>
<!-- Generator: Adobe Illustrator 24.1.2, SVG Export Plug-In . SVG Version: 6.00 Build 0)  -->
<svg version="1.1" id="Layer_1" xmlns="http://www.w3.org/2000/svg" xmlns:xlink="http://www.w3.org/1999/xlink" x="0px" y="0px"
	 viewBox="0 0 65 110" style="enable-background:new 0 0 65 110;" xml:space="preserve">
<style type="text/css">
	.st0{fill:#231F20;}
	.st1{fill:none;stroke:#0F0A01;stroke-width:0.5;stroke-linecap:round;stroke-linejoin:round;}
	.st2{fill:#0F0A01;stroke:#0F0A01;stroke-width:0.5;stroke-linecap:round;stroke-linejoin:round;}
	.st3{fill:none;stroke:#0F0A01;stroke-width:0.2;stroke-linecap:round;stroke-linejoin:round;}
</style>
<path d="M24.2,103.9h-2.5l-2.4-3.7l-2.4,3.7h-2.5l3.6-5.3l-3.5-5.2H17l2.3,3.6l2.3-3.6H24l-3.5,5.2L24.2,103.9z"/>
<rect x="23.6" y="98.6" width="4.1" height="1.6"/>
<polygon points="30.8,93.9 28.8,93.9 28.8,103.8 35.9,103.8 35.9,101.9 30.8,101.9 "/>
<rect x="36.3" y="97" width="1.8" height="6.8"/>
<path d="M37.2,93.6c-0.7,0-1.2,0.5-1.2,1.2s0.5,1.2,1.2,1.2c0.7,0,1.2-0.5,1.2-1.2S37.8,93.6,37.2,93.6z"/>
<path d="M42.7,102.2c-0.6,0-1-0.3-1-1.2v-2.5h2.5v-1.6h-2.5v-2h-1.8v2h-1.3v1.6h1.3v2.6c0,1.8,0.9,2.7,2.5,2.7c1,0,1.7-0.3,2.3-0.7
	l-0.7-1.4C43.6,102,43.1,102.2,42.7,102.2z"/>
<path d="M47.8,96.8c-2,0-3.4,1.5-3.4,3.6s1.5,3.6,3.5,3.6c1.2,0,2.1-0.3,2.9-1l-1.1-1.2c-0.5,0.4-1.1,0.7-1.7,0.7
	c-0.9,0-1.6-0.4-1.7-1.4h4.8c0-0.2,0-0.4,0-0.6C51.1,98.2,49.8,96.8,47.8,96.8z M46.3,99.7c0.2-0.8,0.7-1.4,1.5-1.4
	c0.8,0,1.3,0.5,1.5,1.4H46.3z"/>
<line class="st1" x1="15.9" y1="54.3" x2="28.3" y2="54.3"/>
<line class="st1" x1="38.8" y1="58.3" x2="27.7" y2="58.3"/>
<line class="st1" x1="28.3" y1="54.3" x2="38.8" y2="54.3"/>
<line class="st1" x1="24.8" y1="58.3" x2="15.9" y2="58.3"/>
<line class="st1" x1="47.1" y1="56.9" x2="47.1" y2="56.9"/>
<line class="st1" x1="44.3" y1="69.3" x2="44.3" y2="60.8"/>
<path class="st1" d="M46.8,53.8C46.8,53.8,46.8,53.8,46.8,53.8c-0.1,0-0.1,0-0.2,0"/>
<path class="st1" d="M39.8,69.4c-0.2,0.1-0.3,0.3-0.3,0.5"/>
<line class="st1" x1="40.7" y1="69.3" x2="40.1" y2="69.3"/>
<line class="st1" x1="43" y1="69.3" x2="42.5" y2="69.3"/>
<line class="st1" x1="43.3" y1="69.3" x2="43" y2="69.3"/>
<line class="st1" x1="44.5" y1="69.3" x2="43.3" y2="69.3"/>
<line class="st1" x1="45.1" y1="69.3" x2="44.5" y2="69.3"/>
<line class="st1" x1="46.3" y1="73.9" x2="46.3" y2="80.2"/>
<line class="st1" x1="46.1" y1="79.6" x2="39.7" y2="79.6"/>
<path class="st1" d="M45,53.9c0.1,0,0.1,0.1,0.2,0.1c0,0,0.1,0,0.1,0.1c0,0,0,0,0,0c0,0,0,0,0,0c0,0,0,0,0,0c0,0,0,0,0,0"/>
<line class="st1" x1="45" y1="53.9" x2="43.3" y2="52.7"/>
<line class="st1" x1="39.8" y1="69.4" x2="39.8" y2="59.1"/>
<line class="st1" x1="39.7" y1="70" x2="46.1" y2="70"/>
<line class="st1" x1="46.1" y1="79.6" x2="46.1" y2="70"/>
<line class="st1" x1="39.7" y1="79.6" x2="39.7" y2="70.1"/>
<path class="st1" d="M26.5,53.9c0,0.2,0,0.3,0,0.5"/>
<path class="st1" d="M26.1,54.3C26.1,54.3,26.1,54.3,26.1,54.3C26.1,54.3,26.1,54.3,26.1,54.3c0-0.1,0-0.2,0-0.3c0-0.1,0-0.1,0-0.2"
	/>
<path class="st1" d="M42.3,53.3c-0.2-0.1-0.3-0.3-0.5-0.4"/>
<polyline class="st1" points="47.3,70.2 47.3,70.2 47.3,70.2 47.3,70.2 47.3,70.2 47.3,70.2 47.3,70.2 47.3,70.2 47.3,70.2 
	47.3,70.2 "/>
<polyline class="st1" points="47.4,66.2 47.4,66.2 47.4,66.2 47.4,66.2 47.4,66.2 47.4,66.2 47.4,66.2 47.4,66.2 47.4,66.3 
	47.4,66.3 "/>
<path class="st1" d="M50.1,69.3c-0.1,0.1-0.1,0.2-0.2,0.4"/>
<path class="st1" d="M50.3,68.2c0-0.3-0.2-0.6-0.3-0.8"/>
<path class="st1" d="M48.9,70.4c0.3-0.1,0.6-0.3,0.8-0.5c0,0,0,0,0,0"/>
<line class="st1" x1="26.6" y1="59.9" x2="26" y2="59.9"/>
<line class="st1" x1="25.4" y1="58.5" x2="25.4" y2="59.8"/>
<line class="st1" x1="27.2" y1="58.5" x2="27.2" y2="59.8"/>
<path class="st1" d="M45.1,85.2c0-0.1-0.1-0.3-0.2-0.4c-0.1-0.1-0.2-0.1-0.3-0.1"/>
<path class="st1" d="M40.1,84.8c-0.1,0-0.2,0-0.3,0.1c0,0,0,0,0,0"/>
<line class="st1" x1="44.7" y1="84.8" x2="40.1" y2="84.8"/>
<line class="st1" x1="39.2" y1="80.7" x2="46.6" y2="80.7"/>
<line class="st1" x1="42.5" y1="59.2" x2="42.7" y2="59.3"/>
<line class="st1" x1="40" y1="57.4" x2="42.5" y2="59.1"/>
<line class="st1" x1="39.7" y1="57.2" x2="39.9" y2="57.3"/>
<line class="st1" x1="43.6" y1="58.3" x2="42.8" y2="59.4"/>
<line class="st1" x1="41.9" y1="53.9" x2="43" y2="52.4"/>
<path class="st1" d="M44.2,53.3C44.2,53.3,44.2,53.3,44.2,53.3C44.2,53.3,44.2,53.3,44.2,53.3C44.2,53.3,44.1,53.3,44.2,53.3
	C44.1,53.3,44.1,53.3,44.2,53.3c-0.1,0-0.1-0.1-0.1-0.1c0,0-0.1,0-0.1-0.1"/>
<path class="st1" d="M43.1,52.6C43.1,52.5,43.1,52.5,43.1,52.6C43,52.5,43,52.5,43,52.5c0,0,0,0,0,0c0,0,0,0,0,0c0,0,0,0,0,0
	c0,0,0,0,0,0"/>
<line class="st1" x1="45.5" y1="55.4" x2="45.1" y2="56.1"/>
<path class="st1" d="M43.4,52.8C43.4,52.8,43.4,52.7,43.4,52.8"/>
<line class="st1" x1="44" y1="53.2" x2="43.4" y2="52.8"/>
<line class="st1" x1="46.1" y1="54.7" x2="45.8" y2="54.4"/>
<path class="st1" d="M45.7,54.4c0,0-0.1-0.1-0.1-0.1"/>
<line class="st1" x1="43" y1="52.4" x2="43.1" y2="52.6"/>
<line class="st1" x1="27.2" y1="58.5" x2="25.1" y2="58.5"/>
<line class="st1" x1="27.7" y1="58.5" x2="27.2" y2="58.5"/>
<line class="st1" x1="43.3" y1="52.2" x2="44.3" y2="52.2"/>
<line class="st1" x1="42.5" y1="52.2" x2="43.3" y2="52.2"/>
<line class="st1" x1="43.3" y1="59.1" x2="43.1" y2="59.1"/>
<line class="st1" x1="44.3" y1="59.1" x2="43.3" y2="59.1"/>
<polyline class="st1" points="44.4,58.9 44.3,58.8 43.6,58.3 "/>
<line class="st1" x1="40.4" y1="56" x2="39.6" y2="55.4"/>
<path class="st1" d="M40.6,53.4c0.1-0.2,0.3-0.2,0.5-0.1"/>
<line class="st1" x1="46.3" y1="57.3" x2="45" y2="58.8"/>
<polyline class="st1" points="45.1,56.1 46.3,57 46.5,57.1 "/>
<polyline class="st1" points="46.7,57 46.7,55.2 46.7,53 "/>
<path class="st1" d="M47.7,55.8c0.2-0.4,0.7-0.6,1.2-0.5c0.5,0.1,0.8,0.6,0.8,1"/>
<line class="st1" x1="40.4" y1="56" x2="39.7" y2="57.2"/>
<line class="st1" x1="40.6" y1="53.4" x2="39.5" y2="54.9"/>
<path class="st1" d="M33.8,80.4c0.1,0,0.1,0,0.2,0.1"/>
<line class="st1" x1="31.6" y1="80.4" x2="32.9" y2="80.4"/>
<line class="st1" x1="20.9" y1="80.4" x2="22.2" y2="80.4"/>
<line class="st1" x1="35.6" y1="83.4" x2="35.6" y2="82.6"/>
<line class="st1" x1="35.6" y1="84.4" x2="35.6" y2="83.4"/>
<line class="st1" x1="27.1" y1="84.8" x2="31" y2="84.8"/>
<line class="st1" x1="42.5" y1="69.3" x2="42.5" y2="69.3"/>
<line class="st1" x1="35.5" y1="81.4" x2="35.2" y2="81.4"/>
<line class="st1" x1="27.8" y1="80.4" x2="31.6" y2="80.4"/>
<line class="st1" x1="19.1" y1="81.4" x2="18.8" y2="81.4"/>
<path class="st1" d="M35.2,81.4c-0.2,0-0.5-0.1-0.6-0.3"/>
<line class="st1" x1="22.2" y1="80.4" x2="26.5" y2="80.4"/>
<line class="st1" x1="26.5" y1="80.4" x2="27.8" y2="80.4"/>
<line class="st1" x1="32.9" y1="80.4" x2="33.8" y2="80.4"/>
<line class="st1" x1="20.5" y1="80.4" x2="20.5" y2="80.4"/>
<line class="st1" x1="35.6" y1="83.4" x2="35.6" y2="83.4"/>
<line class="st1" x1="35.6" y1="82.6" x2="35.6" y2="82.6"/>
<line class="st1" x1="35.6" y1="82.6" x2="35.6" y2="81.6"/>
<line class="st1" x1="35.6" y1="81.6" x2="35.6" y2="81.4"/>
<line class="st1" x1="32.6" y1="85.2" x2="34" y2="85.2"/>
<polyline class="st1" points="34,85.2 35.4,85.2 35.5,85.2 "/>
<line class="st1" x1="21.7" y1="85.2" x2="20.3" y2="85.2"/>
<polyline class="st1" points="20.3,85.2 18.9,85.2 18.8,85.2 "/>
<line class="st1" x1="31" y1="84.8" x2="31" y2="84.8"/>
<path class="st1" d="M39.5,80.2c0,0.3,0.2,0.5,0.5,0.5"/>
<path class="st1" d="M48.1,70.5c0.3,0,0.6,0,0.8,0"/>
<line class="st1" x1="47.8" y1="70.4" x2="47.5" y2="70.3"/>
<line class="st1" x1="49" y1="66.8" x2="48.1" y2="66.5"/>
<line class="st1" x1="37.8" y1="81.5" x2="38.7" y2="81.5"/>
<line class="st1" x1="37.7" y1="81.5" x2="37.7" y2="85.2"/>
<line class="st1" x1="39.2" y1="80.9" x2="39.2" y2="80.7"/>
<path class="st1" d="M38.7,81.5c0.3,0,0.5-0.2,0.5-0.5"/>
<line class="st1" x1="46.6" y1="85.2" x2="45.3" y2="85.2"/>
<line class="st1" x1="46.6" y1="80.7" x2="46.6" y2="85.2"/>
<line class="st1" x1="45.8" y1="55.1" x2="46.1" y2="54.7"/>
<line class="st1" x1="46.2" y1="50.8" x2="40.2" y2="50.8"/>
<line class="st1" x1="41.1" y1="53.3" x2="41.9" y2="53.9"/>
<line class="st1" x1="40.7" y1="52.2" x2="40.7" y2="53"/>
<line class="st1" x1="46" y1="59.1" x2="46" y2="69.4"/>
<line class="st1" x1="15.9" y1="55.1" x2="15.9" y2="54.5"/>
<line class="st1" x1="45.1" y1="53" x2="45.1" y2="52.2"/>
<line class="st1" x1="39.8" y1="53" x2="39.8" y2="52.2"/>
<line class="st1" x1="40.7" y1="59.1" x2="40.7" y2="69.3"/>
<line class="st1" x1="39.7" y1="70" x2="39.7" y2="70"/>
<line class="st1" x1="41.5" y1="59.1" x2="41.5" y2="69.3"/>
<line class="st1" x1="46" y1="52.2" x2="46" y2="53"/>
<path class="st1" d="M49.8,69.9C49.8,69.8,49.8,69.8,49.8,69.9"/>
<path class="st1" d="M49.9,69.7C49.9,69.7,49.9,69.7,49.9,69.7"/>
<path class="st1" d="M50.3,68.5c0,0.2,0,0.3,0,0.5"/>
<path class="st1" d="M46.6,81.4C46.6,81.4,46.6,81.4,46.6,81.4c0,0,0.1,0,0.1-0.1c0,0,0.1-0.1,0.1-0.1c0,0,0.1-0.1,0.1-0.1
	c0-0.1,0.1-0.1,0.1-0.2c0-0.1,0.1-0.2,0.1-0.2c0-0.1,0.1-0.2,0.1-0.3c0-0.1,0-0.3,0.1-0.4c0-0.2,0-0.3,0-0.5c0-0.2,0-0.4,0-0.5
	c0-0.2,0-0.4,0-0.6c0-0.5,0-1,0-1.5c0-0.6,0-1.2,0-1.9c0-0.4,0-0.7,0-1.1c0-0.4,0-0.8,0-1.2c0-0.8,0-1.6,0-2.5"/>
<path class="st1" d="M15.9,54.3c0,0,0-0.1,0-0.1c0,0,0,0,0-0.1c0,0,0,0,0,0c0,0,0,0,0,0c0,0,0,0,0,0c0,0,0,0,0,0"/>
<line class="st1" x1="47.5" y1="62.9" x2="47.5" y2="62.9"/>
<line class="st1" x1="25.1" y1="58.5" x2="24.9" y2="58.5"/>
<line class="st1" x1="50.1" y1="67.7" x2="50.1" y2="67.7"/>
<path class="st1" d="M47.7,56c0-0.1,0.1-0.1,0.1-0.2"/>
<line class="st1" x1="41.9" y1="53" x2="41.5" y2="53"/>
<line class="st1" x1="41.5" y1="53" x2="40.7" y2="53"/>
<line class="st1" x1="40.7" y1="53" x2="39.8" y2="53"/>
<line class="st1" x1="39.8" y1="53" x2="39.1" y2="53"/>
<line class="st1" x1="24.8" y1="55.8" x2="24.8" y2="55.8"/>
<line class="st1" x1="24.8" y1="55.8" x2="24.8" y2="56.9"/>
<line class="st1" x1="24.8" y1="56.9" x2="24.8" y2="57"/>
<line class="st1" x1="24.8" y1="57" x2="24.8" y2="57.6"/>
<line class="st1" x1="24.8" y1="57.6" x2="24.8" y2="58.3"/>
<polyline class="st1" points="24.8,58.3 24.8,58.4 24.8,58.5 "/>
<polyline class="st1" points="46,59.1 45.6,59.1 45.1,59.1 "/>
<line class="st1" x1="45.1" y1="59.1" x2="44.3" y2="59.1"/>
<line class="st1" x1="43.3" y1="59.1" x2="43.3" y2="59.1"/>
<path class="st1" d="M42.5,59.1C42.5,59.1,42.5,59.2,42.5,59.1"/>
<path class="st1" d="M42.5,59.2C42.5,59.2,42.5,59.2,42.5,59.2"/>
<line class="st1" x1="47.9" y1="59.1" x2="48.5" y2="59.1"/>
<path class="st1" d="M28.3,57C28.3,57,28.3,57,28.3,57C28.3,56.9,28.3,56.9,28.3,57C28.3,56.9,28.3,56.9,28.3,57"/>
<path class="st1" d="M28.3,56.9C28.3,56.9,28.3,56.9,28.3,56.9C28.3,56.9,28.3,56.8,28.3,56.9C28.3,56.8,28.3,56.8,28.3,56.9
	c0-0.1,0-0.1,0-0.1c0,0,0,0,0,0"/>
<path class="st1" d="M28.1,57.4c0,0-0.1,0.1-0.1,0.1"/>
<line class="st1" x1="46.7" y1="52" x2="46.7" y2="52.2"/>
<line class="st1" x1="39.8" y1="52.2" x2="41" y2="52.2"/>
<line class="st1" x1="41.5" y1="52.2" x2="42.5" y2="52.2"/>
<line class="st1" x1="42.5" y1="52.2" x2="42.5" y2="52.2"/>
<line class="st1" x1="44.3" y1="52.2" x2="45.1" y2="52.2"/>
<line class="st1" x1="45.1" y1="52.2" x2="46" y2="52.2"/>
<line class="st1" x1="46" y1="52.2" x2="46.2" y2="52.2"/>
<line class="st1" x1="50.1" y1="67.7" x2="50.1" y2="67.7"/>
<polyline class="st1" points="46,53 45.6,53 45.1,53 "/>
<line class="st1" x1="45.1" y1="53" x2="44.3" y2="53"/>
<line class="st1" x1="44.3" y1="53" x2="43.7" y2="53"/>
<line class="st1" x1="39.8" y1="59.1" x2="40.7" y2="59.1"/>
<line class="st1" x1="40.7" y1="59.1" x2="41.5" y2="59.1"/>
<line class="st1" x1="41.5" y1="59.1" x2="42.3" y2="59.1"/>
<line class="st1" x1="38.8" y1="58.3" x2="38.8" y2="57.6"/>
<line class="st1" x1="38.8" y1="57.6" x2="38.8" y2="56.9"/>
<line class="st1" x1="38.8" y1="56.9" x2="38.8" y2="56.8"/>
<line class="st1" x1="38.8" y1="56.8" x2="38.8" y2="55.9"/>
<line class="st1" x1="38.8" y1="55.9" x2="38.8" y2="55.8"/>
<line class="st1" x1="38.8" y1="55.8" x2="38.8" y2="55.1"/>
<line class="st1" x1="44.3" y1="59.9" x2="44.3" y2="59.1"/>
<line class="st1" x1="41.5" y1="69.3" x2="40.7" y2="69.3"/>
<line class="st1" x1="42.5" y1="69.3" x2="41.5" y2="69.3"/>
<line class="st1" x1="45.1" y1="69.3" x2="45.1" y2="59.1"/>
<line class="st1" x1="26" y1="59.9" x2="25.5" y2="59.9"/>
<line class="st1" x1="44.3" y1="60.8" x2="44.3" y2="60.5"/>
<line class="st1" x1="44.3" y1="60.5" x2="44.3" y2="59.9"/>
<line class="st1" x1="39.5" y1="73.9" x2="39.5" y2="80.2"/>
<path class="st1" d="M25.4,59.8C25.4,59.8,25.4,59.8,25.4,59.8"/>
<path class="st1" d="M27.2,59.8C27.2,59.8,27.2,59.8,27.2,59.8"/>
<line class="st1" x1="15.9" y1="57.6" x2="15.9" y2="57"/>
<line class="st1" x1="15.9" y1="57" x2="15.9" y2="57"/>
<line class="st1" x1="15.9" y1="57" x2="15.9" y2="55.8"/>
<line class="st1" x1="15.9" y1="55.8" x2="15.9" y2="55.7"/>
<line class="st1" x1="15.9" y1="55.7" x2="15.9" y2="55.1"/>
<path class="st1" d="M15.9,58.3c0-0.1,0-0.2,0-0.3"/>
<path class="st1" d="M46.3,80.2c0,0.3-0.2,0.5-0.5,0.5"/>
<path class="st1" d="M46,69.4c0.1,0.1,0.2,0.3,0.2,0.4"/>
<line class="st1" x1="47.7" y1="55.9" x2="47.7" y2="55.9"/>
<line class="st1" x1="43.3" y1="69.3" x2="43.3" y2="69.3"/>
<line class="st1" x1="39.5" y1="69.8" x2="39.5" y2="73.9"/>
<line class="st1" x1="46.3" y1="69.8" x2="46.3" y2="73.9"/>
<path class="st1" d="M40.1,69.3c-0.1,0-0.2,0-0.4,0.1"/>
<path class="st1" d="M45.6,69.3c0.1,0,0.3,0,0.4,0.1"/>
<line class="st1" x1="45.6" y1="69.3" x2="45.1" y2="69.3"/>
<line class="st1" x1="43" y1="52.5" x2="43.3" y2="52.7"/>
<line class="st1" x1="45.8" y1="55.1" x2="45.8" y2="55.1"/>
<line class="st1" x1="43" y1="52.5" x2="43" y2="52.5"/>
<line class="st1" x1="45.8" y1="55.1" x2="45.6" y2="55.4"/>
<path class="st2" d="M47.2,58.2c0,0,0-0.1,0-0.1c-0.1-1.1-0.1-2.2-0.2-3.3c0-0.3,0-0.7-0.1-1l0,0c0-0.2,0-0.3,0-0.5
	c0-0.5-0.1-0.9-0.2-1.4c0-0.1,0-0.3-0.1-0.4c-0.1-0.3-0.1-0.7-0.2-1c0-0.2-0.1-0.4-0.1-0.6c-0.1-0.5-0.2-0.9-0.4-1.4
	c-0.1-0.4-0.3-0.8-0.5-1.2c-0.2-0.4-0.4-0.8-0.6-1.2c-0.2-0.4-0.5-0.7-0.7-1.1c-0.3-0.3-0.6-0.7-0.9-0.9c-0.3-0.3-0.7-0.6-1-0.8
	c-0.4-0.2-0.8-0.5-1.2-0.6c-0.4-0.2-0.9-0.3-1.3-0.5c-0.5-0.1-0.9-0.2-1.4-0.3c-0.5-0.1-1-0.1-1.5-0.1c-0.5,0-1,0.1-1.5,0.1
	c-0.5,0.1-1,0.2-1.5,0.3c-0.2,0.1-0.4,0.1-0.6,0.2l-0.6,0.2c-0.1,0-0.2,0.1-0.2,0.1c-0.1,0-0.2,0.1-0.3,0.1c-0.3,0.2-0.7,0.4-1,0.6
	c-0.4,0.3-0.7,0.6-1,1c-0.3,0.4-0.6,0.7-0.8,1.1c-0.2,0.4-0.4,0.8-0.6,1.3c-0.2,0.4-0.3,0.9-0.4,1.4c-0.1,0.5-0.2,0.9-0.2,1.4
	c-0.1,0.5-0.1,0.9-0.1,1.4c0,0.5,0,0.9,0,1.4c0,0.5,0,0.9,0.1,1.4c0,0.1,0,0.1,0,0.2l-0.7,0c0,0,0,0,0,0c0-0.5,0-1-0.1-1.4
	c0-0.5,0-1,0-1.4c0-0.5,0.1-1,0.1-1.5c0.1-0.5,0.1-1,0.2-1.5c0.1-0.5,0.2-1,0.4-1.5c0.2-0.5,0.4-1,0.6-1.4c0.3-0.5,0.5-0.9,0.9-1.3
	c0.3-0.4,0.7-0.8,1.1-1.1c0.2-0.2,0.4-0.3,0.7-0.5l0.7-0.4c0,0,0,0,0,0c0.5-0.2,1-0.4,1.5-0.6c0.5-0.2,1.1-0.3,1.6-0.4
	c0.5-0.1,1.1-0.1,1.6-0.1c0.5,0,1.1,0,1.6,0.1c0.5,0.1,1,0.2,1.5,0.3c0.5,0.1,0.9,0.3,1.4,0.5c0.4,0.2,0.9,0.4,1.3,0.7
	c0.4,0.3,0.8,0.5,1.1,0.9c0.3,0.3,0.7,0.7,1,1c0.3,0.4,0.6,0.7,0.8,1.1c0.2,0.4,0.5,0.8,0.7,1.2c0.2,0.4,0.4,0.9,0.5,1.3
	c0.2,0.5,0.3,0.9,0.4,1.4c0.1,0.5,0.2,1.1,0.3,1.6c0.1,0.6,0.2,1.2,0.2,1.9c0,0.2,0,0.4,0.1,0.5l0-0.1c0,0.5,0.1,1.1,0.1,1.6
	c0,0.2,0,0.4,0,0.6l0,0c0.1,0.7,0.1,1.4,0.2,2.2c0,0.3,0,0.7,0.1,1c0,0.1,0,0.2,0,0.3c0,0.4,0,0.9,0.1,1.3c0,0.4,0,0.8,0.1,1.2
	c0,0.2,0,0.4,0,0.6c0,0.2,0,0.3,0,0.5c0,1.2,0,2.3,0,3.5l-0.2-0.1c0-0.9,0-2,0-2.9c0-0.9-0.1-2-0.2-2.9c-0.1-1-0.3-1.9-0.7-2.8
	c-0.4-0.9-0.9-1.7-1.5-2.4l-0.2,0.3c0,0,0,0,0.1,0.1c0.2,0.2,0.4,0.5,0.6,0.7c0.2,0.3,0.3,0.5,0.5,0.8c0.3,0.6,0.5,1.1,0.6,1.7
	c0.1,0.6,0.2,1.2,0.3,1.8c0.1,0.6,0.1,1.1,0.1,1.7c0,0.1,0,0.2,0,0.2l0,0c0,0.2,0,0.4,0,0.6c0,0.3,0,0.5,0,0.8c0,0.3,0,0.5,0,0.8
	c0,0.3,0,0.5,0,0.8c0,0.2,0,0.3,0,0.5l-0.1,0l0.6,0.2"/>
<path class="st2" d="M35,44.1c-0.7-0.6-1.6-1.1-2.5-1.3c-0.4-0.1-0.8-0.1-1.2-0.1c-1.1,0.1-2.1,0.7-2.9,1.5c-0.4,0.4-0.7,0.8-1,1.3
	c-0.3,0.5-0.5,1-0.6,1.5c-0.3,1.1-0.4,2.2-0.4,3.3c0,1,0,2.3,0,3.3l-0.4,0c0,0,0,0,0,0c0-0.1,0-0.2,0-0.3c0-0.1,0-0.2,0-0.3
	c0-0.1,0-0.3,0-0.4c0-0.1,0-0.3,0-0.4c0-0.3,0-0.6,0-0.9c0-0.2,0-0.3,0-0.5c0-0.2,0-0.3,0-0.5c0-0.3,0-0.7,0-1c0-0.3,0.1-0.7,0.1-1
	c0-0.3,0.1-0.7,0.2-1c0.1-0.3,0.2-0.7,0.3-1c0.1-0.3,0.3-0.6,0.4-0.9c0.2-0.3,0.4-0.6,0.6-0.9c0.2-0.3,0.4-0.5,0.7-0.7
	c0.2-0.2,0.5-0.4,0.8-0.6c0.3-0.2,0.5-0.3,0.8-0.5c0.3-0.1,0.6-0.2,0.9-0.3c0.3-0.1,0.6-0.1,0.9-0.1c0.1,0,0.2,0,0.3,0
	c0.2,0,0.4,0,0.6,0.1c0.2,0,0.3,0.1,0.5,0.1c0.1,0,0.3,0.1,0.4,0.1c0.3,0.1,0.6,0.3,0.8,0.4c0.3,0.2,0.5,0.3,0.8,0.5
	c0.1,0.1,0.2,0.2,0.3,0.2c0,0,0.1,0.1,0.1,0.1c0.1,0.1,0.2,0.2,0.4,0.3c0.2,0.2,0.5,0.5,0.7,0.8c0.2,0.3,0.4,0.6,0.6,0.8
	c0.2,0.3,0.4,0.6,0.6,0.9c0.2,0.3,0.4,0.6,0.6,0.9c0.2,0.3,0.4,0.6,0.5,0.9c0.2,0.3,0.4,0.6,0.6,0.9c0.2,0.3,0.4,0.6,0.6,0.9
	c0,0,0,0,0.1,0.1c0.2,0.3,0.4,0.6,0.7,0.8c0.3,0.3,0.6,0.6,0.9,0.9c0.3,0.3,0.6,0.5,0.9,0.8l-0.2,0.3c-0.2-0.2-0.5-0.4-0.7-0.6
	c-0.2-0.2-0.5-0.4-0.7-0.7c-0.2-0.2-0.4-0.4-0.6-0.7c-0.2-0.2-0.3-0.4-0.5-0.6c-0.3-0.4-0.6-0.8-0.9-1.3c-0.2-0.4-0.5-0.8-0.7-1.1
	c-0.1-0.2-0.2-0.4-0.3-0.6c-0.1-0.2-0.2-0.4-0.3-0.6c-0.2-0.3-0.4-0.7-0.7-1c-0.1-0.2-0.2-0.3-0.4-0.5c-0.2-0.3-0.5-0.7-0.8-1
	c-0.1-0.2-0.3-0.3-0.5-0.5C35.2,44.3,35.1,44.2,35,44.1C35,44.1,35,44.1,35,44.1c-0.2-0.2-0.3-0.3-0.5-0.4c-0.3-0.2-0.6-0.4-1-0.6
	c-0.2-0.1-0.4-0.2-0.6-0.2"/>
<path class="st1" d="M50.3,68.4c0,0,0-0.1,0-0.1c0,0,0,0,0-0.1"/>
<line class="st1" x1="47.5" y1="70.3" x2="47.3" y2="70.2"/>
<line class="st1" x1="47.5" y1="66.3" x2="47.4" y2="66.3"/>
<path class="st1" d="M48.1,70.5c0,0.8,0,1.6,0,2.4c0,0.4,0,0.8,0,1.2c0,0.4,0,0.7,0,1.1c0,0.6,0,1.3,0,1.9c0,0.5,0,1,0,1.5
	c0,0.2,0,0.4,0,0.6c0,0.2,0,0.4,0,0.6c0,0.2,0,0.3,0,0.5c0,0.1,0,0.3-0.1,0.4c0,0.1,0,0.2-0.1,0.3c0,0.1-0.1,0.2-0.1,0.3
	c0,0.1-0.1,0.1-0.1,0.2c0,0.1-0.1,0.1-0.1,0.2c0,0-0.1,0.1-0.1,0.1c-0.1,0-0.1,0.1-0.2,0.1c-0.1,0-0.1,0.1-0.2,0.1c0,0-0.1,0-0.1,0
	c-0.1,0-0.1,0-0.2,0.1c0,0,0,0,0,0"/>
<path class="st1" d="M34,80.5c-0.1-0.1-0.1-0.1-0.2-0.1"/>
<line class="st1" x1="34.5" y1="81.1" x2="34" y2="80.5"/>
<path class="st1" d="M20.5,80.4c-0.1,0-0.1,0-0.2,0.1"/>
<line class="st1" x1="20.3" y1="80.5" x2="19.7" y2="81.1"/>
<path class="st1" d="M19.7,81.1c-0.2,0.2-0.4,0.3-0.6,0.3"/>
<path class="st1" d="M28.4,84.8c0.6,0,1.3,0,1.9,0"/>
<path class="st1" d="M35.3,44.4c-0.1-0.1-0.2-0.2-0.3-0.2"/>
<polyline class="st1" points="47.3,66.3 47.3,66.3 47.3,66.3 47.3,66.3 47.3,66.3 47.3,66.3 47.3,66.3 47.3,66.3 47.3,66.3 
	47.3,66.3 "/>
<path class="st1" d="M49,66.8c0.4,0.1,0.7,0.4,0.9,0.7"/>
<line class="st1" x1="47.3" y1="66.3" x2="47.3" y2="70.1"/>
<path class="st1" d="M50.3,68.4C50.3,68.5,50.3,68.5,50.3,68.4"/>
<path class="st1" d="M47.8,70.4c0.1,0,0.2,0,0.2,0.1"/>
<path class="st1" d="M47.3,70.2C47.3,70.2,47.3,70.2,47.3,70.2"/>
<path class="st1" d="M47.4,66.2C47.3,66.2,47.3,66.3,47.4,66.2C47.3,66.3,47.3,66.3,47.4,66.2"/>
<polyline class="st1" points="47.3,70.2 47.3,70.2 47.3,70.2 47.3,70.2 47.3,70.2 47.3,70.2 47.3,70.1 47.3,70.1 47.3,70.1 
	47.3,70.1 "/>
<path class="st1" d="M50.1,69.3C50.1,69.3,50.2,69.3,50.1,69.3c0-0.1,0.1-0.1,0.1-0.2"/>
<path class="st1" d="M50.2,69.2c0-0.1,0-0.1,0-0.2"/>
<path class="st1" d="M25.5,59.9C25.4,59.9,25.4,59.8,25.5,59.9"/>
<path class="st1" d="M27.1,59.9C27.1,59.9,27.2,59.8,27.1,59.9"/>
<line class="st1" x1="27.1" y1="59.9" x2="26.6" y2="59.9"/>
<path class="st1" d="M15.9,54.5c0-0.1,0-0.1,0-0.2"/>
<line class="st1" x1="15.9" y1="58.1" x2="15.9" y2="57.6"/>
<path class="st1" d="M13,58.1c0-1.2,0-2.4,0-3.5"/>
<polyline class="st1" points="15.9,58.5 13.2,58.5 13,58.5 "/>
<polyline class="st1" points="15.9,54.1 13.2,54.1 13,54.1 "/>
<path class="st1" d="M13,58.5C13,58.5,13,58.5,13,58.5c0-0.1,0-0.1,0-0.1c0,0,0-0.1,0-0.1c0-0.1,0-0.2,0-0.2"/>
<path class="st1" d="M15.9,58.5C15.9,58.5,15.9,58.5,15.9,58.5C15.9,58.5,15.9,58.5,15.9,58.5C15.9,58.5,15.9,58.5,15.9,58.5
	C15.9,58.5,15.9,58.5,15.9,58.5C15.9,58.5,15.9,58.4,15.9,58.5c0-0.1,0-0.2,0-0.2"/>
<path class="st1" d="M13,54.5c0-0.1,0-0.2,0-0.2c0,0,0-0.1,0-0.1c0,0,0,0,0-0.1c0,0,0,0,0,0c0,0,0,0,0,0c0,0,0,0,0,0"/>
<line class="st1" x1="47.3" y1="70.2" x2="47.3" y2="70.2"/>
<line class="st1" x1="47.1" y1="59.1" x2="47" y2="59.1"/>
<path class="st1" d="M39.6,55.4c-0.2-0.1-0.2-0.3-0.1-0.5"/>
<path class="st1" d="M49.8,56.4c0,0.5-0.3,0.9-0.8,1.1c-0.5,0.1-1-0.1-1.2-0.6"/>
<path class="st1" d="M49.8,56.4C49.8,56.4,49.8,56.4,49.8,56.4"/>
<path class="st1" d="M42.5,59.1C42.5,59.1,42.4,59.1,42.5,59.1c-0.1,0-0.2,0-0.2,0"/>
<line class="st1" x1="24.8" y1="55.1" x2="24.8" y2="55.8"/>
<line class="st1" x1="49.9" y1="69.7" x2="49.9" y2="69.7"/>
<line class="st1" x1="38.8" y1="55.1" x2="38.8" y2="54.3"/>
<line class="st1" x1="38.8" y1="54.3" x2="38.8" y2="53.8"/>
<path class="st1" d="M50.1,69.4C50.1,69.4,50.1,69.4,50.1,69.4"/>
<polyline class="st1" points="47,59.1 46.2,59.1 46.2,59.1 46,59.1 "/>
<line class="st1" x1="48.5" y1="59.1" x2="48.9" y2="59.1"/>
<line class="st1" x1="50.7" y1="57.6" x2="50.7" y2="55.1"/>
<line class="st1" x1="50.7" y1="55.1" x2="50.7" y2="54.3"/>
<path class="st1" d="M39.7,84.9c-0.1,0.1-0.1,0.2-0.1,0.3"/>
<line class="st1" x1="39.4" y1="85.2" x2="37.7" y2="85.2"/>
<path class="st1" d="M37.7,81.5C37.7,81.5,37.8,81.5,37.7,81.5"/>
<line class="st1" x1="45.3" y1="85.2" x2="45.1" y2="85.2"/>
<line class="st1" x1="39.4" y1="85.2" x2="39.6" y2="85.2"/>
<line class="st1" x1="44.7" y1="84.8" x2="44.7" y2="84.8"/>
<line class="st1" x1="45.5" y1="54.3" x2="45.4" y2="54.2"/>
<path class="st1" d="M45.4,54.2C45.4,54.2,45.4,54.2,45.4,54.2"/>
<path class="st1" d="M42.5,59.1C42.5,59.1,42.5,59.1,42.5,59.1"/>
<path class="st1" d="M39.9,57.3C40,57.4,40,57.4,39.9,57.3"/>
<path class="st1" d="M39.7,57.2C39.7,57.2,39.7,57.2,39.7,57.2C39.7,57.2,39.7,57.2,39.7,57.2C39.7,57.2,39.7,57.2,39.7,57.2
	C39.7,57.2,39.7,57.2,39.7,57.2"/>
<path class="st1" d="M42.7,59.3C42.8,59.3,42.8,59.3,42.7,59.3C42.8,59.3,42.8,59.3,42.7,59.3C42.8,59.3,42.8,59.3,42.7,59.3
	C42.8,59.4,42.8,59.4,42.7,59.3C42.8,59.4,42.8,59.4,42.7,59.3"/>
<path class="st1" d="M45.6,54.3C45.6,54.3,45.6,54.3,45.6,54.3"/>
<line class="st1" x1="45.6" y1="55.4" x2="45.5" y2="55.4"/>
<line class="st1" x1="45.9" y1="54.5" x2="45.9" y2="54.5"/>
<line class="st1" x1="45.8" y1="54.4" x2="45.7" y2="54.4"/>
<line class="st1" x1="43.4" y1="52.7" x2="43.4" y2="52.7"/>
<line class="st1" x1="45.6" y1="55.4" x2="45.8" y2="55.1"/>
<path class="st1" d="M28,57.5c-0.1,0.1-0.2,0.3-0.3,0.4"/>
<line class="st1" x1="24.8" y1="54.3" x2="24.8" y2="55.1"/>
<path class="st1" d="M28.2,57.3C28.2,57.3,28.2,57.3,28.2,57.3C28.2,57.3,28.2,57.3,28.2,57.3C28.2,57.3,28.2,57.2,28.2,57.3
	c0.1-0.1,0.1-0.1,0.1-0.1c0,0,0,0,0,0c0,0,0,0,0,0c0,0,0,0,0,0c0,0,0,0,0,0c0,0,0,0,0,0c0,0,0,0,0,0c0,0,0,0,0,0"/>
<path class="st1" d="M28.3,56.7c0-0.4,0-0.8,0-1.1c0-0.4,0-0.8,0-1.2"/>
<line class="st1" x1="27.7" y1="57.9" x2="27.7" y2="58.4"/>
<path class="st1" d="M28.2,57.3C28.2,57.3,28.2,57.3,28.2,57.3C28.1,57.4,28.1,57.4,28.2,57.3"/>
<line class="st1" x1="27.7" y1="58.4" x2="27.7" y2="58.5"/>
<line class="st1" x1="24.9" y1="58.5" x2="24.8" y2="58.5"/>
<line class="st1" x1="39.1" y1="52.2" x2="39.1" y2="50.8"/>
<path class="st1" d="M46.2,50.8c0.1,0,0.2,0,0.3,0"/>
<path class="st1" d="M39.1,50.8C39.1,50.8,39.1,50.8,39.1,50.8C39.2,50.8,39.2,50.8,39.1,50.8C39.2,50.8,39.2,50.8,39.1,50.8
	c0.1,0,0.1,0,0.1,0c0,0,0.1,0,0.1,0c0.1,0,0.2,0,0.3,0"/>
<path class="st1" d="M46.2,52.2c0.2,0,0.3,0,0.5,0"/>
<path class="st1" d="M39.1,52.2C39.1,52.2,39.2,52.2,39.1,52.2C39.2,52.2,39.2,52.2,39.1,52.2c0.1,0,0.1,0,0.1,0c0,0,0.1,0,0.1,0
	c0.1,0,0.2,0,0.2,0"/>
<line class="st1" x1="39.6" y1="52.2" x2="39.8" y2="52.2"/>
<line class="st1" x1="47.4" y1="66.3" x2="47.4" y2="66.3"/>
<line class="st1" x1="48.9" y1="59.1" x2="50.2" y2="59.1"/>
<line class="st1" x1="46.7" y1="53" x2="46" y2="53"/>
<line class="st1" x1="38.8" y1="59.1" x2="39.8" y2="59.1"/>
<path class="st1" d="M43.1,59.1C43.1,59.1,43,59.1,43.1,59.1"/>
<line class="st1" x1="50.7" y1="58.7" x2="50.7" y2="57.6"/>
<line class="st1" x1="38.8" y1="59.1" x2="38.8" y2="58.3"/>
<line class="st1" x1="47.5" y1="53.8" x2="50.2" y2="53.8"/>
<polyline class="st1" points="47.8,53.8 47.8,53.8 47.8,53.8 47.7,53.8 "/>
<line class="st1" x1="43.7" y1="53" x2="43.7" y2="53"/>
<path class="st1" d="M45,58.8c-0.1,0.2-0.4,0.2-0.5,0.1"/>
<path class="st1" d="M39.1,53.6c0,0.2-0.1,0.3-0.3,0.3"/>
<line class="st1" x1="38.9" y1="53.8" x2="38.8" y2="53.8"/>
<line class="st1" x1="39.1" y1="53" x2="39.1" y2="53.6"/>
<path class="st1" d="M50.7,54.3c0-0.3-0.2-0.5-0.5-0.5"/>
<path class="st1" d="M50.7,58.7c0,0.3-0.2,0.5-0.5,0.5"/>
<line class="st1" x1="20.5" y1="80.4" x2="20.9" y2="80.4"/>
<path class="st1" d="M18.7,81.4C18.7,81.4,18.7,81.4,18.7,81.4C18.7,81.4,18.7,81.4,18.7,81.4"/>
<path class="st1" d="M35.6,81.4C35.6,81.4,35.6,81.4,35.6,81.4C35.5,81.4,35.5,81.4,35.6,81.4"/>
<polyline class="st1" points="18.7,81.4 18.7,81.4 18.7,81.4 18.7,81.4 18.7,81.4 18.7,81.4 18.7,81.4 18.7,81.4 18.7,81.4 
	18.7,81.4 "/>
<polyline class="st1" points="18.8,81.4 18.8,81.4 18.8,81.4 18.8,81.4 18.8,81.4 18.8,81.4 18.7,81.4 18.7,81.4 18.7,81.4 
	18.7,81.4 "/>
<polyline class="st1" points="35.5,81.4 35.5,81.4 35.5,81.4 35.5,81.4 35.5,81.4 35.5,81.4 35.5,81.4 35.5,81.4 35.5,81.4 
	35.5,81.4 "/>
<polyline class="st1" points="35.6,81.4 35.6,81.4 35.6,81.4 35.6,81.4 35.6,81.4 35.6,81.4 35.6,81.4 35.6,81.4 35.6,81.4 
	35.6,81.4 "/>
<path class="st1" d="M19.1,81.4c0.2,0,0.5-0.1,0.6-0.3"/>
<line class="st1" x1="18.8" y1="85.2" x2="18.7" y2="85.2"/>
<line class="st1" x1="35.6" y1="85.2" x2="35.5" y2="85.2"/>
<line class="st1" x1="34" y1="80.5" x2="34.5" y2="81.1"/>
<path class="st1" d="M20.3,80.5c0,0,0.1-0.1,0.2-0.1"/>
<line class="st1" x1="19.7" y1="81.1" x2="20.3" y2="80.5"/>
<line class="st1" x1="18.7" y1="85.2" x2="18.7" y2="81.4"/>
<path class="st1" d="M34.5,81.1c0.2,0.2,0.4,0.3,0.6,0.3"/>
<line class="st1" x1="35.6" y1="85.2" x2="35.6" y2="84.4"/>
<line class="st1" x1="31.6" y1="85.2" x2="32.6" y2="85.2"/>
<line class="st1" x1="22.6" y1="85.2" x2="21.7" y2="85.2"/>
<polyline class="st1" points="22.8,85.2 22.8,85.2 22.8,85.2 22.8,85.2 22.7,85.2 22.7,85.2 22.7,85.2 22.7,85.2 22.7,85.2 
	22.7,85.2 22.7,85.2 22.7,85.2 22.7,85.2 22.6,85.2 22.6,85.2 22.6,85.2 22.6,85.2 22.6,85.2 "/>
<polyline class="st1" points="31.6,85.2 31.6,85.2 31.6,85.2 31.6,85.2 31.6,85.2 31.6,85.2 31.6,85.2 31.6,85.2 31.6,85.2 
	31.5,85.2 31.5,85.2 31.5,85.2 31.5,85.2 31.5,85.2 31.5,85.2 31.5,85.2 31.5,85.2 31.5,85.2 "/>
<path class="st1" d="M23.2,84.8c-0.3,0-0.5,0.2-0.5,0.5"/>
<path class="st1" d="M31.5,85.2c0-0.3-0.2-0.5-0.5-0.5"/>
<line class="st1" x1="23.2" y1="84.8" x2="27.1" y2="84.8"/>
<line class="st1" x1="37.7" y1="81.6" x2="35.6" y2="81.6"/>
<line class="st1" x1="37.7" y1="84.3" x2="35.6" y2="84.3"/>
<line class="st1" x1="47.3" y1="58.8" x2="47.7" y2="63.5"/>
<line class="st1" x1="26.3" y1="54.1" x2="26.3" y2="53.6"/>
<polygon points="25.2,83.2 24.3,83.2 24.3,83.2 24.3,83.1 25.2,81.9 25.2,81.7 23.8,81.7 23.8,82 24.5,82 24.6,82 24.5,82.1 
	23.7,83.4 23.7,83.6 25.2,83.6 "/>
<path d="M25.5,83.5c0.1,0.1,0.1,0.1,0.2,0.1s0.2,0,0.3,0s0.2,0,0.3,0c0.1,0,0.2-0.1,0.3-0.2v-0.1v0.1c0,0,0,0.1,0.1,0.1l0.1,0.1h0.4
	c0-0.1,0-0.2-0.1-0.3c0-0.1,0-0.2,0-0.2v-0.6c0-0.3-0.1-0.5-0.2-0.6c-0.2-0.1-0.4-0.2-0.7-0.2c-0.1,0-0.2,0-0.3,0
	c-0.1,0-0.2,0.1-0.4,0.1l0.1,0.4c0.1,0,0.2-0.1,0.3-0.1c0.1,0,0.1,0,0.2,0s0.3,0,0.3,0.1s0.1,0.2,0.1,0.3v0.6
	c-0.1,0.1-0.1,0.2-0.2,0.2c-0.1,0.1-0.2,0.1-0.2,0.1c-0.1,0-0.1,0-0.2-0.1c0,0-0.1-0.1-0.1-0.2c0-0.1,0-0.1,0.1-0.2
	c0-0.1,0.1-0.1,0.2-0.1s0.1-0.1,0.2-0.1c0-0.1,0.1-0.2,0.1-0.2c-0.2,0-0.4,0-0.5,0.1s-0.3,0.1-0.3,0.2c-0.1,0.1-0.1,0.1-0.2,0.2
	c0,0.1-0.1,0.2-0.1,0.2c0,0.1,0,0.2,0,0.2C25.4,83.3,25.4,83.4,25.5,83.5z"/>
<path d="M27.2,83.6h0.6l0.3-0.6l0.4,0.6h0.6l-0.7-1c-0.1-0.2-0.2-0.3-0.3-0.5c-0.1-0.2-0.2-0.3-0.3-0.5h-0.6l0.7,0.9L27.2,83.6z"/>
<path d="M29.3,83.3c0.1,0.1,0.2,0.2,0.3,0.3s0.3,0.1,0.5,0.1c0.1,0,0.3,0,0.4,0c0.1,0,0.3-0.1,0.4-0.1l-0.1-0.4
	c-0.1,0.1-0.2,0.1-0.3,0.1s-0.2,0-0.3,0c-0.2,0-0.3-0.1-0.4-0.2c-0.1-0.2-0.2-0.4-0.2-0.6c0-0.1,0-0.2,0-0.3s0.1-0.1,0.1-0.2
	s0.1-0.1,0.2-0.1c0.1,0,0.1,0,0.2,0c0.1,0,0.1,0,0.2,0l0.1,0.1l0.1,0.1c0,0.1,0,0.1,0,0.2h-0.4c-0.1,0-0.1,0-0.2,0.1
	c-0.2,0.2-0.2,0.2-0.2,0.3h1c0.1-0.2,0.1-0.3,0.1-0.5c0-0.2-0.1-0.3-0.1-0.4c-0.1-0.1-0.2-0.2-0.3-0.2c-0.1-0.1-0.3-0.1-0.4-0.1
	s-0.3,0-0.4,0.1c-0.1,0-0.2,0.1-0.3,0.2c-0.1,0.1-0.2,0.2-0.2,0.3C29,82.2,29,82.4,29,82.5s0,0.3,0.1,0.4
	C29.2,83.1,29.2,83.2,29.3,83.3z"/>
<path d="M28.3,82.4L28.3,82.4l0.7-0.7h-0.6L28.3,82c0,0.1,0,0.1,0,0.2C28.3,82.3,28.3,82.2,28.3,82.4C28.3,82.3,28.3,82.3,28.3,82.4
	z"/>
<g>
	<line class="st3" x1="37.8" y1="80.7" x2="37.8" y2="80.6"/>
	<line class="st3" x1="36.7" y1="78.1" x2="34.2" y2="78.1"/>
	<path class="st3" d="M37.2,79.2C37.2,79.2,37.2,79.2,37.2,79.2C37.2,79.2,37.2,79.2,37.2,79.2C37.2,79.2,37.2,79.2,37.2,79.2
		C37.1,79.2,37.1,79.2,37.2,79.2c-0.1,0-0.2,0-0.2,0c-0.1,0-0.1,0-0.2,0c-0.1,0-0.2,0-0.4,0"/>
	<line class="st3" x1="32.1" y1="79.7" x2="32.9" y2="79.7"/>
	<line class="st3" x1="21.3" y1="79.7" x2="22.2" y2="79.7"/>
	<line class="st3" x1="37.6" y1="78.1" x2="37.6" y2="78.5"/>
	<line class="st3" x1="20.6" y1="78.5" x2="20.4" y2="78.5"/>
	<line class="st3" x1="36.3" y1="78.5" x2="35.7" y2="78.5"/>
	<path class="st3" d="M37.6,78.1C37.6,78.1,37.6,78.1,37.6,78.1C37.6,78.1,37.6,78.1,37.6,78.1c-0.1,0-0.1,0-0.1,0c0,0-0.1,0-0.1,0
		c-0.1,0-0.2,0-0.2,0c-0.2,0-0.3,0-0.5,0"/>
	<path class="st3" d="M36.5,79.7c0.1,0,0.3,0,0.4,0"/>
	<path class="st3" d="M35.8,79.2c0.2,0,0.3,0,0.5,0"/>
	<path class="st3" d="M35.9,79.7c-0.1,0-0.2,0-0.2,0"/>
	<line class="st3" x1="34.2" y1="78.1" x2="16.6" y2="78.1"/>
	<path class="st3" d="M36.9,79.7c0.1,0,0.1,0,0.2,0c0,0,0.1,0,0.1,0c0,0,0,0,0,0c0,0,0,0,0,0c0,0,0,0,0,0"/>
	<path class="st3" d="M35.7,79.7c-0.8,0-1.7,0-2.5,0"/>
	<line class="st3" x1="34.4" y1="78.5" x2="34.2" y2="78.5"/>
	<line class="st3" x1="34.2" y1="78.5" x2="33.8" y2="78.5"/>
	<line class="st3" x1="33.8" y1="78.5" x2="33.6" y2="78.5"/>
	<line class="st3" x1="33.6" y1="78.5" x2="20.6" y2="78.5"/>
	<line class="st3" x1="22.2" y1="79.7" x2="32.1" y2="79.7"/>
	<line class="st3" x1="32.9" y1="79.7" x2="33.2" y2="79.7"/>
	<line class="st3" x1="36.3" y1="78.5" x2="36.3" y2="78.5"/>
	<line class="st3" x1="18.9" y1="80.7" x2="18.8" y2="80.7"/>
	<path class="st3" d="M18.8,80.7C18.8,80.7,18.8,80.7,18.8,80.7"/>
	<path class="st3" d="M17.2,80.7C17.2,80.7,17.1,80.7,17.2,80.7"/>
	<path class="st3" d="M16.7,80.7C16.7,80.7,16.7,80.7,16.7,80.7"/>
	<path class="st3" d="M16.5,80.7C16.5,80.7,16.5,80.7,16.5,80.7"/>
	<line class="st3" x1="17.1" y1="80.7" x2="17" y2="80.7"/>
	<line class="st3" x1="16.7" y1="80.7" x2="16.6" y2="80.7"/>
	<path class="st3" d="M16.9,80.7c0.1,0,0.1,0,0.2,0"/>
	<path class="st3" d="M17.3,80.7c0.1,0,0.2,0,0.3,0"/>
	<line class="st3" x1="16.9" y1="80.7" x2="16.7" y2="80.7"/>
	<line class="st3" x1="16.6" y1="80.7" x2="16.5" y2="80.7"/>
	<line class="st3" x1="16.5" y1="80.7" x2="16.5" y2="80.7"/>
	<line class="st3" x1="16.6" y1="80.7" x2="16.6" y2="80.7"/>
	<line class="st3" x1="18.8" y1="80.7" x2="18.7" y2="80.7"/>
	<line class="st3" x1="18.6" y1="80.7" x2="17.6" y2="80.7"/>
	<line class="st3" x1="16.5" y1="80.7" x2="16.5" y2="80.7"/>
	<line class="st3" x1="17.3" y1="80.7" x2="17.2" y2="80.7"/>
	<line class="st3" x1="37.8" y1="80.7" x2="37.8" y2="80.7"/>
	<path class="st3" d="M34.8,80.2C34.8,80.2,34.8,80.2,34.8,80.2"/>
	<line class="st3" x1="37.8" y1="80.7" x2="34.7" y2="80.7"/>
	<line class="st3" x1="37.8" y1="80.2" x2="37.1" y2="80.2"/>
	<line class="st3" x1="35.5" y1="80.2" x2="34.7" y2="80.2"/>
	<path class="st3" d="M35.6,79.8C35.6,79.8,35.6,79.7,35.6,79.8"/>
	<line class="st3" x1="35.4" y1="80.2" x2="35.6" y2="80.1"/>
	<line class="st3" x1="35.6" y1="80.1" x2="35.6" y2="79.8"/>
	<line class="st3" x1="37.8" y1="80.2" x2="37.8" y2="80.2"/>
	<line class="st3" x1="34.7" y1="80.2" x2="34.7" y2="80.2"/>
	<line class="st3" x1="34.8" y1="80.2" x2="34.7" y2="80.2"/>
	<line class="st3" x1="34.7" y1="80.6" x2="34.7" y2="80.7"/>
	<line class="st3" x1="37.8" y1="80.6" x2="37.8" y2="80.2"/>
	<line class="st3" x1="34.7" y1="80.6" x2="34.7" y2="80.2"/>
	<path class="st3" d="M37,79.8C37,79.8,36.9,79.7,37,79.8"/>
	<line class="st3" x1="37" y1="79.8" x2="37" y2="80.1"/>
	<line class="st3" x1="37" y1="80.1" x2="37.1" y2="80.2"/>
	<line class="st3" x1="35.7" y1="78.5" x2="34.4" y2="78.5"/>
	<line class="st3" x1="20.4" y1="78.5" x2="16.9" y2="78.5"/>
	<line class="st3" x1="16.6" y1="78.5" x2="16.6" y2="78.1"/>
	<path class="st3" d="M17.8,79.2c-0.1,0-0.2,0-0.4,0c-0.1,0-0.1,0-0.2,0c0,0-0.1,0-0.1,0c0,0,0,0-0.1,0c0,0,0,0,0,0c0,0,0,0,0,0"/>
	<line class="st3" x1="37.2" y1="79.7" x2="37.2" y2="79.2"/>
	<line class="st3" x1="36.3" y1="79.7" x2="36.5" y2="79.7"/>
	<line class="st3" x1="36.5" y1="79.2" x2="36.3" y2="79.2"/>
	<path class="st3" d="M36.3,79.7c-0.1,0-0.3,0-0.4,0"/>
	<path class="st3" d="M33.2,79.2c0.9,0,1.8,0,2.6,0"/>
	<line class="st3" x1="17.1" y1="79.7" x2="21.3" y2="79.7"/>
	<line class="st3" x1="33.2" y1="79.2" x2="21.1" y2="79.2"/>
	<path class="st3" d="M18,79.2c1,0,2.1,0,3.1,0"/>
	<path class="st3" d="M16.4,80.6v-0.4l0,0c0,0,0,0,0,0h0h0c0,0,0,0,0.1,0h0.1h0c0,0,0,0,0,0h0.1c0,0,0,0,0.1,0h0.1
		c0.1,0,0.1,0,0.2,0h0h0.1c0,0,0,0,0,0c0,0,0.1-0.1,0.1-0.1v-0.2c0-0.1,0-0.1,0.1-0.1l0,0c0.1,0,0.3,0,0.4,0H18c0.2,0,0.4,0,0.6,0h0
		c0.1,0,0.1,0,0.1,0.1v0.2l0.1,0.1c0,0,0,0,0,0h0.6h0c0,0,0,0,0.1,0h0l0,0v0.4l0,0c0,0,0,0,0,0h0h0c0,0,0,0-0.1,0h-0.1c0,0,0,0,0,0
		h-0.1c0,0,0,0-0.1,0h-0.2c0,0,0,0,0,0c0,0-0.1,0-0.1,0"/>
	<line class="st3" x1="18" y1="79.2" x2="17.8" y2="79.2"/>
	<line class="st3" x1="17.1" y1="79.7" x2="17.1" y2="79.2"/>
	<line class="st3" x1="37.6" y1="78.5" x2="36.3" y2="78.5"/>
	<path class="st3" d="M16.9,78.5c0,0-0.1,0-0.1,0c0,0,0,0-0.1,0c0,0,0,0,0,0c0,0,0,0,0,0c0,0,0,0,0,0c0,0,0,0,0,0"/>
	<rect x="17.8" y="78.5" class="st3" width="0.3" height="0.7"/>
	<rect x="36.1" y="78.5" class="st3" width="0.3" height="0.7"/>
</g>
</svg>
