<?xml version="1.0" encoding="utf-8"?>
<!-- Generator: Adobe Illustrator 24.1.3, SVG Export Plug-In . SVG Version: 6.00 Build 0)  -->
<svg version="1.1" id="Layer_1" xmlns="http://www.w3.org/2000/svg" xmlns:xlink="http://www.w3.org/1999/xlink" x="0px" y="0px"
	 viewBox="0 0 65 110" style="enable-background:new 0 0 65 110;" xml:space="preserve">
<style type="text/css">
	.st0{fill:#231F20;}
</style>
<path class="st0" d="M24,81.2h1.5v0.2l-0.9,1.4h0.9v0.3h-1.6v-0.3l0.9-1.3H24V81.2z"/>
<path class="st0" d="M27,83.2h-0.1c-0.2,0.2-0.4,0.2-0.6,0.2h-0.2c-0.2,0-0.3-0.1-0.3-0.2h-0.2v-0.5c0-0.1,0.1-0.1,0.2-0.2l0.3-0.2
	h0.5v0.2h-0.4v0.2c0,0.1,0.1,0.2,0.2,0.2h0.4V82c0.1-0.2,0-0.3-0.1-0.4H26l-0.2-0.4h0.7c0.5,0.1,0.8,0.4,0.9,0.9V83
	c-0.1,0.1-0.1,0.2,0,0.3c0,0,0,0,0,0L27,83.2z"/>
<path class="st0" d="M29.4,83.2h-0.5l-0.5-0.7l0,0l-0.3,0.6h-0.6l0.7-1l-0.8-1h0.7l0.3,0.5l0.3,0.5L29.4,83.2z"/>
<path class="st0" d="M30.8,81.9L30.8,81.9c0-0.1-0.1-0.1-0.1-0.2h-0.4l-0.2,0.2H30v0.3c0,0.2,0.1,0.4,0.2,0.6h0.4
	c0.1,0.1,0.1,0.1,0.2,0h0.3l0.2,0.4H30L29.7,83l-0.2-0.4v-0.3c0-0.2,0-0.3,0.1-0.5c0-0.1,0.1-0.2,0.2-0.3l0.3-0.2h0.8l0.3,0.2
	c0,0.1,0.1,0.2,0.1,0.4c0,0.1,0,0.3-0.1,0.4h-1.1l0.2-0.2h0.5V81.9z"/>
<path class="st0" d="M28.9,81.2h0.6L28.9,82h-0.2v-0.6L28.9,81.2z"/>
<path d="M15.8,57.7h-2.9c-0.2,0-0.3-0.1-0.3-0.3v-4.5c0-0.2,0.1-0.3,0.3-0.3h2.9c0.1,0.1,0.2,0.2,0.3,0.3v4.5
	C16.1,57.6,16,57.7,15.8,57.7z M13.1,57.2h2.5v-4.1h-2.5V57.2z"/>
<path d="M25,57.5h-9.1c-0.2,0-0.2-0.1-0.2-0.2s0-0.2,0.2-0.2H25c0.1,0,0.2,0.1,0.2,0.2S25.1,57.5,25,57.5z"/>
<path d="M25,53.4h-9.1c-0.2,0-0.2-0.1-0.2-0.2s0-0.2,0.2-0.2H25c0.1,0,0.2,0.1,0.2,0.2S25.1,53.4,25,53.4z"/>
<path d="M28,57.7h-3c-0.2,0-0.2-0.1-0.2-0.2l0,0v-4.3c0-0.1,0-0.1,0.1-0.2h3.7c0.2,0,0.3,0.1,0.3,0.2l0,0v2.7l0,0v0.4l-0.7,0.6v0.5
	C28.2,57.6,28.1,57.7,28,57.7z M25.2,57.2h2.5v-0.4l0,0l0.4-0.6v-2.8h-3L25.2,57.2z"/>
<path d="M27.3,59h-2c-0.1,0-0.1-0.1-0.1-0.2v-1.5c0-0.1,0-0.2,0.2-0.2l0,0l0.2,0.2v1.1h1.6v-1.1c0-0.1,0-0.2,0.2-0.2l0,0l0.2,0.2
	v1.3c0,0.1,0,0.1-0.1,0.2h-0.1C27.4,59,27.4,59,27.3,59z"/>
<path d="M39.1,53.4H28.6c-0.2,0-0.2-0.1-0.2-0.2s0-0.2,0.2-0.2h10.5c0.2,0,0.3,0.1,0.3,0.2l0,0C39.4,53.3,39.4,53.4,39.1,53.4z"/>
<path d="M39.1,57.5H28c-0.2,0-0.2-0.1-0.2-0.2l0,0l0.2-0.2h11.1c0.2,0,0.3,0.1,0.3,0.2l0,0C39.4,57.4,39.4,57.5,39.1,57.5z"/>
<path d="M45.6,55.2L45.6,55.2c-0.1-0.1-0.2-0.2-0.1-0.3l0.9-1.3l-2.9-2l-0.9,1.3h-0.3l-0.8-0.6h-0.3l-1,1.5l0,0V54
	c0.1,0.1,0,0.2-0.1,0.3s-0.2,0-0.3-0.1L39.6,54v-0.5l0,0l1.3-1.5l0,0l0.2-0.2h0.6l0.7,0.5l1-1.3h0.2l3.3,2.3l0,0v0.2l-1,1.5
	C45.8,55.1,45.7,55.2,45.6,55.2z"/>
<path d="M45.3,58.1H45c-0.1,0-0.2-0.1-0.2-0.3s0.1-0.2,0.3-0.2h0.3l1-1.5v-0.4c-0.1-0.1,0-0.2,0-0.3s0.2,0,0.3,0.1l0.2,0.3v0.5l0,0
	l-1,1.5h-0.1L45.5,58L45.3,58.1z"/>
<path d="M43.4,58.5L43.4,58.5l-3.3-2.3C40,56.1,39.9,56,40,55.9h0.3l3,2.1l0.7-1h0.3c0,0.1,0.1,0.2,0.1,0.3l-0.8,1.3L43.4,58.5z"/>
<path d="M39.1,58.3c-0.1,0-0.2-0.1-0.2-0.2l0,0l0,0v-5.4c0-0.1,0.1-0.2,0.2-0.2l0,0c0.2,0,0.3,0.1,0.3,0.2l0,0v5.4
	C39.5,58.2,39.4,58.3,39.1,58.3z"/>
<path d="M39.1,52.9L39.1,52.9c-0.1,0-0.1-0.2-0.1-0.3h0.1c0.2-0.2,0.3-0.5,0.3-0.8c0-0.1,0-0.2,0.2-0.2c0.1,0,0.2,0.1,0.2,0.2l0,0
	c-0.1,0.4-0.2,0.7-0.4,1C39.4,52.8,39.3,52.9,39.1,52.9z"/>
<path d="M43,52h-3.4c-0.2,0-0.2-0.1-0.2-0.2s0-0.2,0.2-0.2H43c0.1,0,0.2,0.1,0.2,0.2S43.1,52,43,52z"/>
<path d="M48.1,52h-3.8c-0.2,0-0.2-0.1-0.2-0.2s0-0.2,0.2-0.2h3.8c0.1,0,0.2,0.1,0.2,0.2S48.2,52,48.1,52z"/>
<path d="M43,58.3h-3.9c-0.1,0-0.2-0.1-0.2-0.2s0.1-0.2,0.2-0.2h3.8c0.2,0,0.2,0.1,0.2,0.2S43.1,58.3,43,58.3z"/>
<path d="M48.3,58.3h-4.8c-0.2,0-0.2-0.1-0.2-0.2s0-0.2,0.2-0.2h4.8c0.1,0,0.2,0.1,0.2,0.2S48.4,58.3,48.3,58.3z"/>
<path d="M35.9,85h-4.2c-0.2,0-0.2-0.1-0.2-0.2l0.2-0.2h3.9v-3.7c0-0.1,0.1-0.2,0.3-0.2c0.1,0,0.2,0.1,0.2,0.2v3.9
	C36.1,84.9,36,85,35.9,85z"/>
<path d="M37.8,79H16.4c-0.2,0-0.4-0.2-0.4-0.4l0,0l0,0v-0.7c-0.1-0.2,0.1-0.4,0.3-0.4h21.5c0.2,0,0.4,0.2,0.4,0.4l0,0l0,0v0.7
	C38.2,78.8,38,79,37.8,79L37.8,79z M16.7,78.3h20.9v-0.2H16.7L16.7,78.3z"/>
<path d="M31.3,84.5h-7.9c-0.2,0-0.3-0.1-0.3-0.2s0.1-0.2,0.3-0.2h7.8c0.2,0,0.3,0.1,0.3,0.2C31.5,84.4,31.4,84.5,31.3,84.5z"/>
<path d="M22.9,85h-4.2c-0.2,0-0.2-0.1-0.2-0.2v-3.9c-0.1-0.1,0-0.2,0.1-0.2s0.2,0.1,0.3,0.2l0,0v3.7h4l0.2,0.2
	C23.1,84.9,23,85,22.9,85z"/>
<path d="M34.1,80.1H20.5l-0.3-0.2c0.1-0.1,0.1-0.2,0.3-0.2h13.6c0.1,0,0.2,0.1,0.2,0.2L34.1,80.1z"/>
<path d="M22.9,85L22.9,85c-0.3,0-0.3-0.2-0.3-0.3v-0.2h0.6c0.2,0,0.3,0,0.3,0.2s0,0.2-0.2,0.3h-0.2v0.2L22.9,85z"/>
<path d="M31.7,85c-0.2,0-0.2-0.1-0.2-0.2v-0.2h-0.3c-0.1,0-0.2-0.1-0.2-0.3s0.1-0.2,0.3-0.2H32v0.2c-0.1,0.1-0.2,0.3-0.4,0.3
	L31.7,85z"/>
<path d="M38.1,81.7h-2.2l-0.3-0.2l0.3-0.2h2.2c0.1,0,0.2,0.1,0.2,0.2C38.3,81.6,38.3,81.7,38.1,81.7z"/>
<path d="M38.1,84.5h-2.2c-0.2,0-0.3-0.1-0.3-0.2l0.3-0.2h2.2l0.2,0.2C38.3,84.4,38.3,84.5,38.1,84.5z"/>
<path d="M40.1,85h-2c-0.1,0-0.2-0.1-0.2-0.2v-3.9c0-0.1,0.1-0.2,0.2-0.2c0.2,0,0.3,0.1,0.3,0.2v3.6h1.7c0.1,0,0.2,0.1,0.2,0.2
	L40.1,85z"/>
<path d="M47.1,85h-1.3c-0.2,0-0.2-0.1-0.2-0.2l0.2-0.2H47v-4.2h-7v0.3l-0.2,0.2l-0.3,0.2h-1.2c-0.2,0-0.2-0.1-0.2-0.2s0-0.2,0.2-0.2
	h1.2v-0.3l0,0v-0.2H47c0.1,0,0.2,0.1,0.2,0.2V85H47.1z"/>
<path d="M40.1,85L40.1,85c-0.2,0-0.2-0.1-0.2-0.3v-0.2h0.5c0.1,0,0.2,0.1,0.2,0.2c0.1,0.2,0,0.2-0.2,0.3H40.1l0.1,0.2
	C40.3,84.9,40.1,85,40.1,85z"/>
<path d="M45.8,85c-0.2,0-0.2-0.1-0.2-0.2v-0.2h-5l-0.2-0.2c0-0.1,0.1-0.2,0.2-0.2h5.5v0.2l-0.3,0.2V85z"/>
<path d="M46.6,55.8L46.6,55.8l-1-0.6c-0.1-0.1-0.2-0.2-0.1-0.3h0.3l0.9,0.6c0,0.1,0.1,0.2,0.1,0.3H46.6z"/>
<path d="M40.1,56.3L40.1,56.3C40,56.2,39.9,56.1,40,56l0.7-1L40,54.5c-0.1-0.1-0.2-0.2-0.1-0.3h0.3l0.9,0.6h0.1V55l-0.8,1.1
	L40.1,56.3z"/>
<path d="M45.1,58L45.1,58L44,57.4c-0.1-0.1-0.2-0.2-0.1-0.3h0.3l0.9,0.6c0,0.1,0.1,0.2,0.1,0.3H45.1z"/>
<path d="M48.1,58.3c-0.2,0-0.2-0.1-0.2-0.2s0-0.2,0.2-0.2h3.5v-4.7h-3.3c-0.2,0-0.2-0.1-0.2-0.2s0-0.2,0.2-0.2h4.1V53l0,0v4.4H52
	c0,0.1,0,0.1-0.1,0.1h-3.8V58.3z"/>
<path d="M48.1,49.7h-7.5c-0.1,0-0.2-0.1-0.2-0.2s0.1-0.2,0.2-0.2h7.5c0.2,0,0.3,0.1,0.3,0.2S48.3,49.7,48.1,49.7z"/>
<path d="M43.1,51.2h-3.5c-0.2,0-0.2-0.1-0.2-0.2l0,0v-1.5c0-0.1,0-0.2,0.2-0.2h1c0.2,0,0.3,0.1,0.3,0.2s-0.1,0.2-0.3,0.2h-0.9v1.1
	h3.4c0.1,0,0.2,0.1,0.2,0.2l0,0l0,0C43.3,51.1,43.3,51.2,43.1,51.2z"/>
<path d="M48.1,51.2h-6c-0.2,0-0.2-0.1-0.2-0.2s0-0.2,0.2-0.2h6c0.1,0,0.2,0.1,0.2,0.2S48.2,51.2,48.1,51.2z"/>
<path d="M42.1,68.7c-0.2,0-0.2-0.1-0.2-0.2V58.1c0-0.1,0-0.2,0.2-0.2c0.1,0,0.2,0.1,0.2,0.2l0,0v10.4C42.3,68.6,42.2,68.7,42.1,68.7
	z"/>
<path d="M44.9,68.7l-0.3-0.2V58.1c0-0.1,0.1-0.2,0.3-0.2c0.1,0,0.2,0.1,0.2,0.2l0,0v10.4C45.1,68.6,45,68.7,44.9,68.7z"/>
<path d="M46.6,79.3h-6.5c-0.1,0-0.2-0.1-0.2-0.3l0,0v-9.7c0-0.1,0.1-0.3,0.2-0.3h6.5c0.2,0,0.3,0.1,0.3,0.3l0,0l0,0V79
	C46.9,79.2,46.8,79.3,46.6,79.3C46.6,79.3,46.6,79.3,46.6,79.3z M40.4,78.8h6v-9.3h-6V78.8z"/>
<path d="M40.1,79.9l-0.2-0.2V69c0-0.1,0-0.2,0.2-0.2c0.1,0,0.2,0.1,0.2,0.2v10.6C40.3,79.7,40.2,79.8,40.1,79.9z"/>
<path d="M46.9,79.9l-0.3-0.2V69l0.3-0.2c0.1,0,0.2,0.1,0.2,0.2v10.6C47.1,79.8,47,79.9,46.9,79.9z"/>
<path d="M40.6,80.4h-0.8v-0.2c0-0.1,0-0.2,0.2-0.3s0.2,0,0.3,0.2v0.2h0.2c0.1,0.1,0.1,0.2,0.1,0.3l0,0
	C40.8,80.3,40.6,80.4,40.6,80.4z"/>
<path d="M46.4,80.4h-0.3c0-0.1,0.1-0.2,0.1-0.3h0.2v-0.2c0-0.1,0.2-0.2,0.3-0.2s0.2,0.2,0.2,0.3h-0.2l-0.4-0.2L46.4,80.4z"/>
<path d="M40.1,69.2L40.1,69.2c-0.2,0-0.2-0.1-0.2-0.3v-0.2l0,0l0.2-0.3h0.5c0.2,0,0.3,0.1,0.3,0.2l-0.3,0.2h-0.4V69
	C40.3,69.2,40.1,69.2,40.1,69.2z"/>
<path d="M46.9,69.2L46.6,69l-0.2-0.3h-5.8l-0.2-0.2c0-0.1,0-0.2,0.2-0.2h6.2l0.2,0.2v0.2l0,0c0,0.3,0,0.4-0.2,0.4L46.9,69.2z"/>
<path d="M49,69.9h-1.1c-0.1,0-0.1-0.1-0.1-0.2v-4.3c0-0.1,0-0.1,0.1-0.1h0.7l0.7,0.3l0.8,0.3l0.4,0.2l0.3,0.3l0.2,0.4l0.2,0.5v1.2
	L51,68.9l-0.3,0.3l-0.5,0.4l-0.4,0.2L49,69.9L49,69.9z M48.2,69.3l0.7,0.2h0.6l0.4-0.2l0.4-0.3l0.3-0.4l0.2-0.4v-1l-0.2-0.4
	l-0.4-0.4l-0.4-0.3l-0.5-0.2l-0.8-0.3L48,65.4L48.2,69.3z"/>
<path d="M50.3,56.6c-0.7,0-1.3-0.6-1.3-1.3c0-0.7,0.6-1.3,1.3-1.3c0,0,0,0,0,0c0.7,0,1.3,0.6,1.3,1.3l0,0C51.6,56,51,56.6,50.3,56.6
	z M50.3,54.4c-0.5,0-0.9,0.4-0.9,0.9c0,0.5,0.4,0.9,0.9,0.9c0.5,0,0.9-0.4,0.9-0.9C51.3,54.8,50.9,54.4,50.3,54.4z"/>
<path d="M47.6,81.3c-0.1,0-0.3-0.1-0.3-0.2s-0.1-0.5,0.1-0.6h0.2V69.7c0-0.2,0.1-0.4,0.3-0.4H48c0.2,0,0.4,0.2,0.4,0.4l0,0l0,0v10.7
	h-0.9L47.6,81.3z"/>
<path d="M18.7,81.1l-0.2-0.2c0-0.1,0-0.2,0.2-0.3l0.9-0.2l0.4-0.3l0.5-0.5h0.3v0.3l0,0L20,80.6l-0.5,0.3L18.7,81.1z"/>
<path d="M35.9,81.1L35.9,81.1l-0.8-0.2l-0.5-0.2l-0.5-0.5L33.9,80v-0.3c0.1-0.1,0.3-0.1,0.3,0l0.6,0.6l0.4,0.2l0.6,0.2
	C35.9,80.7,36,80.8,35.9,81.1L35.9,81.1z"/>
<path d="M21.8,80.1l-0.2-0.2v-1.2c-0.1-0.1,0-0.2,0.1-0.2s0.2,0.1,0.3,0.2l0,0v1.2L21.8,80.1z"/>
<path d="M32.4,80.1l-0.3-0.2v-1.2c0-0.1,0.1-0.2,0.3-0.2c0.1,0,0.2,0.1,0.2,0.2l0,0v1.2C32.6,80,32.6,80.1,32.4,80.1z"/>
<path d="M48.3,65.6c-0.2,0-0.4-0.2-0.4-0.4l0,0l0,0v-16c0-4.7-4.6-8.6-10.3-8.6s-10.3,3.8-10.3,8.6v3.7c-0.1,0.2-0.2,0.4-0.5,0.4
	s-0.3-0.2-0.3-0.4V49l0,0c0.2-5.1,5.1-9.2,11.2-9.2s11.1,4.2,11.2,9.4l0,0v16C48.8,65.5,48.6,65.6,48.3,65.6z"/>
<path d="M27.8,103.7V93.5h1.3v10.2H27.8z"/>
<path d="M32.3,94c0,0.5-0.4,0.9-0.9,0.9c-0.5,0-0.9-0.4-0.9-0.9c0-0.5,0.4-0.9,0.9-0.9C31.9,93.1,32.3,93.5,32.3,94z M30.8,103.7
	v-7.8H32v7.8L30.8,103.7z"/>
<path d="M35.3,96.8v4c-0.1,0.8,0.4,1.5,1.2,1.7h0.4c0.5,0,1.1-0.2,1.5-0.5l0.6,0.9c-0.6,0.5-1.4,0.7-2.2,0.8c-1.7,0-2.7-1-2.7-2.9
	v-4h-1.4v-1.1h1.4v-2.4h1.2v2.4h3.3v1.1H35.3z"/>
<path d="M46.5,99.6v0.4h-6.3c0.1,1.5,1.3,2.6,2.8,2.6l0,0c0.9,0,1.8-0.4,2.5-1l0.6,0.8c-0.8,0.9-2,1.3-3.2,1.3
	c-2.1,0-3.8-1.6-3.9-3.7v-0.4c-0.1-2,1.4-3.8,3.4-4h0.4C45,95.6,46.5,97.2,46.5,99.6z M40.3,99h5c0-1.4-1.1-2.5-2.5-2.5
	S40.3,97.6,40.3,99z"/>
<path d="M26.3,103.7H24l-1.7-2.3l-1.6,2.3h-2.2l2.6-3.7l-2.5-3.5h2.3l1.5,2.2l1.6-2.2h2.2l-2.6,3.5L26.3,103.7z"/>
</svg>
