<?xml version="1.0" encoding="utf-8"?>
<!-- Generator: Adobe Illustrator 25.1.0, SVG Export Plug-In . SVG Version: 6.00 Build 0)  -->
<svg version="1.1" id="katman_1" xmlns="http://www.w3.org/2000/svg" xmlns:xlink="http://www.w3.org/1999/xlink" x="0px" y="0px"
	 viewBox="0 0 99.21 141.73" style="enable-background:new 0 0 99.21 141.73;" xml:space="preserve">
<style type="text/css">
	.st0{fill:none;stroke:#020203;stroke-linecap:round;stroke-linejoin:round;}
	.st1{fill:none;stroke:#BFBDE0;stroke-linecap:round;stroke-linejoin:round;}
	.st2{fill:none;stroke:#4D4797;stroke-linecap:round;stroke-linejoin:round;}
	.st3{fill:none;stroke:#A1A0A0;stroke-linecap:round;stroke-linejoin:round;}
	.st4{fill:none;stroke:#CAD1EB;stroke-linecap:round;stroke-linejoin:round;}
</style>
<g>
	<path d="M46.67,127.01l4.84,6.65h-4.04l-2.96-4.28l-2.96,4.28h-4l4.84-6.65l-4.77-6.51h4.04l2.89,4.19l2.89-4.19h4.01L46.67,127.01
		z"/>
	<path d="M62.76,124.06c0,1.37-0.79,2.4-2.14,2.97c1.54,0.55,2.45,1.6,2.45,2.98c0,2.63-2.76,3.88-5.68,3.88
		c-2.25,0-4.09-0.7-5.25-1.93l1.95-1.98c0.82,0.76,1.93,1.18,3.13,1.18c1.27,0,2.29-0.45,2.29-1.41c0-0.92-1.16-1.4-2.57-1.4h-1.67
		v-2.68h1.69c1.28,0,2.27-0.47,2.27-1.36c0-0.87-0.88-1.33-2.08-1.33c-1.37,0-2.35,0.58-2.99,1.25l-1.96-1.98
		c1.11-1.15,2.7-1.99,5.1-1.99C60.51,120.26,62.76,121.77,62.76,124.06z"/>
</g>
<line class="st0" x1="8.13" y1="85.26" x2="8.13" y2="31.57"/>
<line class="st0" x1="92.87" y1="31.57" x2="92.87" y2="85.26"/>
<path class="st1" d="M8.91,31.77c27.73,0,55.45,0,83.18,0"/>
<line class="st1" x1="8.31" y1="84.46" x2="8.31" y2="32.37"/>
<path class="st1" d="M92.09,85.06c-27.73,0-55.45,0-83.18,0"/>
<path class="st0" d="M92.77,31.37c-28.18,0-56.36,0-84.55,0"/>
<polyline class="st2" points="8.13,85.26 9.56,85.26 50.5,85.26 91.44,85.26 92.87,85.26 "/>
<path class="st2" d="M17.34,109c-2.63,0-5.15-1.04-7.01-2.9s-2.9-4.38-2.9-7.01"/>
<polyline class="st2" points="8.13,31.57 9.56,31.57 50.5,31.57 91.44,31.57 92.87,31.57 "/>
<path class="st2" d="M17.34,7.83c-2.63,0-5.15,1.04-7.01,2.9s-2.9,4.38-2.9,7.01"/>
<path class="st2" d="M83.66,7.83c2.63,0,5.15,1.04,7.01,2.9s2.9,4.38,2.9,7.01"/>
<line class="st2" x1="92.87" y1="31.57" x2="93.17" y2="31.37"/>
<line class="st3" x1="18.64" y1="31.57" x2="18.64" y2="31.77"/>
<line class="st3" x1="18.64" y1="85.06" x2="18.64" y2="85.26"/>
<line class="st3" x1="82.36" y1="31.57" x2="82.36" y2="31.77"/>
<line class="st3" x1="82.36" y1="85.06" x2="82.36" y2="85.26"/>
<path class="st3" d="M63.44,31.57c0.07,0.07,0.13,0.13,0.2,0.2"/>
<line class="st3" x1="47.5" y1="31.57" x2="47.5" y2="31.77"/>
<path class="st3" d="M29.78,85.06c-0.07,0.07-0.13,0.13-0.2,0.2"/>
<path class="st3" d="M71.42,85.26c-0.07-0.07-0.13-0.13-0.2-0.2"/>
<path class="st3" d="M37.37,31.77c0.07-0.07,0.13-0.13,0.2-0.2"/>
<path class="st3" d="M56.85,85.06c-0.04,0.07-0.09,0.13-0.14,0.2"/>
<path class="st3" d="M44.3,85.26c-0.05-0.07-0.09-0.13-0.14-0.2"/>
<line class="st3" x1="20.15" y1="85.26" x2="20.15" y2="85.06"/>
<line class="st3" x1="80.85" y1="85.06" x2="80.85" y2="85.26"/>
<line class="st3" x1="53.51" y1="31.77" x2="53.51" y2="31.57"/>
<path class="st0" d="M8.03,31.17c0-4.47,0-8.95,0-13.42"/>
<path class="st0" d="M92.97,17.75c0,4.47,0,8.95,0,13.42"/>
<path class="st0" d="M17.34,8.43c22.11,0,44.21,0,66.32,0"/>
<polyline class="st2" points="93.17,85.46 93.17,88.87 93.17,99.08 "/>
<polyline class="st2" points="93.57,99.08 93.57,88.87 93.57,85.86 "/>
<polyline class="st2" points="7.83,85.46 7.83,88.87 7.83,99.08 "/>
<polyline class="st2" points="17.34,109 50.5,109 83.66,109 "/>
<polyline class="st2" points="83.66,108.6 50.5,108.6 17.34,108.6 "/>
<path class="st2" d="M83.66,109c2.63,0,5.15-1.04,7.01-2.9s2.9-4.38,2.9-7.01"/>
<path class="st2" d="M7.43,85.86c0-0.22,0.18-0.4,0.4-0.4"/>
<polyline class="st2" points="93.17,31.37 93.17,27.96 93.17,17.75 "/>
<polyline class="st2" points="93.57,17.75 93.57,27.96 93.57,30.97 "/>
<polyline class="st2" points="7.83,31.37 7.83,27.96 7.83,17.75 "/>
<polyline class="st2" points="17.34,7.83 50.5,7.83 83.66,7.83 "/>
<polyline class="st2" points="83.66,8.23 50.5,8.23 17.34,8.23 "/>
<path class="st2" d="M7.43,30.97c0,0.22,0.18,0.4,0.4,0.4"/>
<path class="st1" d="M92.09,31.77c0.33,0,0.6,0.27,0.6,0.6"/>
<path class="st1" d="M8.31,32.37c0-0.33,0.27-0.6,0.6-0.6"/>
<path class="st1" d="M8.91,85.06c-0.33,0-0.6-0.27-0.6-0.6"/>
<path class="st1" d="M92.69,84.46c0,0.33-0.27,0.6-0.6,0.6"/>
<line class="st1" x1="92.69" y1="32.37" x2="92.69" y2="84.46"/>
<path class="st0" d="M8.03,17.75c0-2.47,0.98-4.84,2.73-6.59c1.75-1.75,4.12-2.73,6.59-2.73"/>
<path class="st0" d="M8.23,31.37c-0.11,0-0.2-0.09-0.2-0.2"/>
<path class="st0" d="M92.97,31.17c0,0.11-0.09,0.2-0.2,0.2"/>
<path class="st0" d="M83.66,8.43c2.47,0,4.84,0.98,6.59,2.73c1.75,1.75,2.73,4.12,2.73,6.59"/>
<polyline class="st2" points="7.43,99.08 7.43,88.87 7.43,85.86 "/>
<path class="st2" d="M7.83,99.08c0,2.52,1,4.94,2.79,6.73c1.78,1.78,4.2,2.79,6.73,2.79"/>
<path class="st2" d="M93.17,99.08c0,2.52-1,4.94-2.79,6.73c-1.78,1.78-4.2,2.79-6.73,2.79"/>
<line class="st2" x1="8.13" y1="85.26" x2="7.83" y2="85.46"/>
<path class="st2" d="M93.57,85.86c0-0.22-0.18-0.4-0.4-0.4"/>
<line class="st2" x1="92.87" y1="85.26" x2="93.17" y2="85.46"/>
<polyline class="st2" points="7.43,17.75 7.43,27.96 7.43,30.97 "/>
<path class="st2" d="M7.83,17.75c0-2.52,1-4.94,2.79-6.73c1.78-1.78,4.2-2.79,6.73-2.79"/>
<path class="st2" d="M93.17,17.75c0-2.52-1-4.94-2.79-6.73c-1.78-1.78-4.2-2.79-6.73-2.79"/>
<line class="st2" x1="8.13" y1="31.57" x2="7.83" y2="31.37"/>
<path class="st2" d="M93.57,30.97c0,0.22-0.18,0.4-0.4,0.4"/>
<polyline class="st0" points="44.24,31.77 44.24,40.88 46.06,41.42 "/>
<line class="st0" x1="50.3" y1="42.68" x2="51.7" y2="42.68"/>
<line class="st0" x1="51.7" y1="42.68" x2="51.7" y2="43.28"/>
<line class="st0" x1="51.7" y1="43.28" x2="50.3" y2="43.28"/>
<line class="st0" x1="50.3" y1="43.28" x2="50.3" y2="42.68"/>
<path class="st0" d="M50.63,43.28c0.03,0,0.05,0.01,0.07,0.04"/>
<line class="st0" x1="51" y1="43.68" x2="50.93" y2="43.68"/>
<line class="st0" x1="51.06" y1="43.68" x2="51" y2="43.68"/>
<polyline class="st0" points="49.33,41.42 49.33,42.52 49.39,42.58 52.48,42.58 52.54,42.52 52.54,41.42 "/>
<path class="st0" d="M51.36,43.28c-0.03,0-0.05,0.01-0.07,0.04"/>
<path class="st0" d="M50.9,43.66c0.01,0.01,0.02,0.02,0.03,0.02"/>
<path class="st0" d="M51.1,43.66c-0.01,0.01-0.02,0.02-0.03,0.02"/>
<path class="st0" d="M51.29,43.32c-0.07,0.11-0.13,0.23-0.2,0.34"/>
<path class="st0" d="M50.9,43.66c-0.07-0.11-0.13-0.23-0.2-0.34"/>
<line class="st0" x1="46.06" y1="41.42" x2="54.28" y2="41.42"/>
<rect x="46.68" y="31.77" class="st0" width="6.99" height="7.88"/>
<polyline class="st0" points="56.1,31.77 56.1,40.88 54.28,41.42 "/>
<polyline class="st0" points="53.77,41.42 53.77,42.47 55.35,42.47 55.35,41.1 "/>
<polyline class="st0" points="17.51,85.26 17.51,58.41 17.51,31.57 "/>
<polyline class="st0" points="83.49,31.57 83.49,58.41 83.49,85.26 "/>
<line class="st0" x1="61.33" y1="26.82" x2="61.33" y2="12.85"/>
<line class="st0" x1="39.67" y1="26.82" x2="39.67" y2="12.85"/>
<line class="st0" x1="39.67" y1="12.85" x2="61.33" y2="12.85"/>
<line class="st0" x1="39.67" y1="26.82" x2="61.33" y2="26.82"/>
<line class="st4" x1="51.31" y1="109" x2="51.31" y2="109"/>
<line class="st4" x1="49.7" y1="109" x2="49.7" y2="109"/>
<polygon class="st0" points="46.07,95.97 46.07,95.51 43.1,95.51 43.1,96.26 44.65,96.26 44.81,96.23 44.69,96.36 42.88,99.07 
	42.88,99.53 46.09,99.53 46.09,98.76 44.33,98.76 44.16,98.79 44.27,98.66 "/>
<path class="st0" d="M52.99,97.22l1.22-1.71h-1.2l-0.29,0.53c-0.05,0.11-0.08,0.22-0.08,0.33c0,0.11,0.02,0.22,0.05,0.33
	c0.03,0.11,0.08,0.2,0.13,0.29C52.88,97.08,52.94,97.16,52.99,97.22z"/>
<path class="st0" d="M52.21,98.29l0.78,1.24c0.38,0,0.77,0,1.15,0c-0.89-1.34-1.77-2.68-2.66-4.02h-1.24l1.43,1.99l-1.35,2.03
	c0.4,0,0.8,0,1.2,0L52.21,98.29z"/>
<path class="st0" d="M57.88,99.27l-0.28-0.72c-0.23,0.1-0.44,0.18-0.61,0.22c-0.18,0.04-0.36,0.07-0.54,0.07
	c-0.33,0-0.6-0.12-0.81-0.37c-0.21-0.25-0.31-0.6-0.31-1.05c0-0.22,0.03-0.41,0.08-0.57c0.06-0.16,0.13-0.29,0.22-0.39
	c0.09-0.1,0.19-0.18,0.3-0.22c0.11-0.05,0.22-0.07,0.33-0.07c0.12,0,0.23,0.02,0.32,0.07c0.09,0.05,0.17,0.12,0.23,0.2
	c0.06,0.08,0.1,0.18,0.13,0.29c0.03,0.11,0.03,0.22,0.02,0.34c-0.23,0-0.47,0-0.7,0c-0.14,0-0.26,0.06-0.37,0.18
	c-0.11,0.12-0.19,0.27-0.25,0.46c0.74,0,1.48,0,2.22,0c0.12-0.33,0.16-0.64,0.12-0.92c-0.03-0.28-0.13-0.53-0.27-0.73
	c-0.15-0.2-0.34-0.36-0.59-0.48c-0.24-0.11-0.51-0.17-0.8-0.17c-0.28,0-0.55,0.05-0.81,0.14c-0.25,0.09-0.47,0.23-0.66,0.4
	c-0.19,0.17-0.34,0.39-0.44,0.64c-0.11,0.25-0.16,0.54-0.16,0.86c0,0.26,0.04,0.53,0.12,0.78c0.08,0.26,0.21,0.49,0.38,0.7
	c0.17,0.2,0.39,0.37,0.65,0.5c0.26,0.13,0.57,0.19,0.94,0.19c0.25,0,0.5-0.03,0.75-0.08C57.32,99.5,57.59,99.41,57.88,99.27z"/>
<path class="st0" d="M48.97,98.99L49,99.14c0.03,0.08,0.07,0.15,0.11,0.22c0.04,0.07,0.1,0.13,0.18,0.17c0.27,0,0.54,0,0.81,0
	c-0.05-0.18-0.08-0.35-0.1-0.52c-0.02-0.16-0.03-0.32-0.03-0.46c0-0.48,0-0.96,0-1.44c0-0.55-0.15-0.97-0.45-1.26
	c-0.3-0.29-0.74-0.43-1.3-0.43c-0.18,0-0.4,0.02-0.65,0.07c-0.25,0.05-0.49,0.12-0.73,0.22l0.27,0.68c0.18-0.07,0.35-0.11,0.5-0.14
	c0.15-0.03,0.29-0.04,0.42-0.04c0.28,0,0.49,0.08,0.65,0.24c0.15,0.16,0.23,0.38,0.23,0.65c0,0.39,0,0.78,0,1.18
	c-0.14,0.16-0.28,0.29-0.43,0.39c-0.15,0.1-0.31,0.15-0.46,0.15c-0.14,0-0.25-0.05-0.35-0.14c-0.1-0.09-0.15-0.2-0.15-0.34
	c0-0.13,0.04-0.24,0.13-0.34c0.09-0.1,0.23-0.16,0.44-0.19c0.17-0.03,0.29-0.11,0.38-0.25c0.08-0.13,0.14-0.29,0.16-0.47
	c-0.42,0.03-0.77,0.09-1.04,0.17c-0.28,0.09-0.5,0.19-0.67,0.31c-0.17,0.12-0.28,0.26-0.35,0.41c-0.07,0.15-0.1,0.31-0.1,0.47
	c0,0.16,0.03,0.3,0.08,0.44c0.06,0.14,0.14,0.26,0.25,0.37c0.11,0.11,0.24,0.19,0.39,0.26c0.15,0.06,0.32,0.1,0.51,0.1
	c0.2,0,0.39-0.03,0.57-0.1c0.18-0.06,0.39-0.2,0.63-0.41L48.97,98.99z"/>
<line class="st0" x1="67.63" y1="31.86" x2="67.63" y2="32.26"/>
<line class="st0" x1="32.17" y1="75.22" x2="32.17" y2="64.81"/>
<line class="st0" x1="36.57" y1="64.81" x2="36.57" y2="75.22"/>
<line class="st0" x1="37.58" y1="75.82" x2="37.58" y2="77.03"/>
<line class="st0" x1="31.16" y1="75.82" x2="31.16" y2="77.03"/>
<line class="st0" x1="26.36" y1="77.03" x2="26.36" y2="78.23"/>
<line class="st0" x1="74.44" y1="77.03" x2="74.44" y2="78.23"/>
<line class="st0" x1="65.22" y1="32.26" x2="65.22" y2="31.77"/>
<line class="st0" x1="67.63" y1="31.77" x2="67.63" y2="31.86"/>
<path class="st0" d="M8.23,85.46c28.18,0,56.36,0,84.55,0"/>
<path class="st0" d="M83.66,108.4c-22.11,0-44.21,0-66.32,0"/>
<path class="st0" d="M92.97,85.66c0,4.47,0,8.95,0,13.42"/>
<path class="st0" d="M8.03,99.08c0-4.47,0-8.95,0-13.42"/>
<path class="st0" d="M92.97,99.08c0,2.47-0.98,4.84-2.73,6.59c-1.75,1.75-4.12,2.73-6.59,2.73"/>
<path class="st0" d="M92.77,85.46c0.11,0,0.2,0.09,0.2,0.2"/>
<path class="st0" d="M8.03,85.66c0-0.11,0.09-0.2,0.2-0.2"/>
<path class="st0" d="M17.34,108.4c-2.47,0-4.84-0.98-6.59-2.73c-1.75-1.75-2.73-4.12-2.73-6.59"/>
<line class="st0" x1="74.43" y1="75.82" x2="74.43" y2="75.22"/>
<line class="st0" x1="26.35" y1="75.82" x2="26.35" y2="75.22"/>
<line class="st0" x1="26.35" y1="75.22" x2="74.43" y2="75.22"/>
<line class="st0" x1="74.43" y1="75.82" x2="26.35" y2="75.82"/>
<line class="st0" x1="63.22" y1="75.82" x2="63.22" y2="77.03"/>
<line class="st0" x1="69.63" y1="75.82" x2="69.63" y2="77.03"/>
<line class="st0" x1="68.63" y1="64.81" x2="68.63" y2="75.22"/>
<line class="st0" x1="74.44" y1="77.03" x2="26.36" y2="77.03"/>
<line class="st0" x1="26.36" y1="78.23" x2="74.44" y2="78.23"/>
<path class="st0" d="M33.19,64.81c0-10.85,0-21.7,0-32.55"/>
<path class="st0" d="M35.55,32.26c0,10.85,0,21.7,0,32.55"/>
<line class="st0" x1="33.19" y1="85.06" x2="33.19" y2="78.23"/>
<line class="st0" x1="35.55" y1="78.23" x2="35.55" y2="85.06"/>
<polyline class="st0" points="36.57,64.81 36.57,75.22 36.57,75.22 "/>
<line class="st0" x1="32.17" y1="75.22" x2="32.17" y2="75.22"/>
<line class="st0" x1="64.22" y1="75.22" x2="64.22" y2="75.22"/>
<line class="st0" x1="67.63" y1="32.26" x2="67.63" y2="64.81"/>
<line class="st0" x1="64.22" y1="75.22" x2="64.22" y2="64.81"/>
<line class="st0" x1="65.22" y1="64.81" x2="65.22" y2="32.26"/>
<line class="st0" x1="65.22" y1="85.06" x2="65.22" y2="78.23"/>
<line class="st0" x1="67.63" y1="78.23" x2="67.63" y2="85.06"/>
<line class="st0" x1="36.57" y1="64.81" x2="32.17" y2="64.81"/>
<line class="st0" x1="68.63" y1="64.81" x2="64.22" y2="64.81"/>
<g>
</g>
<g>
</g>
<g>
</g>
<g>
</g>
<g>
</g>
<g>
</g>
</svg>
