<?xml version="1.0" encoding="utf-8"?>
<!-- Generator: Adobe Illustrator 25.4.1, SVG Export Plug-In . SVG Version: 6.00 Build 0)  -->
<!DOCTYPE svg PUBLIC "-//W3C//DTD SVG 1.1//EN" "http://www.w3.org/Graphics/SVG/1.1/DTD/svg11.dtd" [
	<!ENTITY st0 "fill:none;stroke:#000000;stroke-width:0.8807;stroke-miterlimit:10;">
	<!ENTITY st1 "stroke:#000000;stroke-width:0.1468;stroke-miterlimit:10;">
	<!ENTITY st2 "fill:none;stroke:#FFFFFF;stroke-width:0.8807;stroke-miterlimit:10;">
	<!ENTITY st3 "fill:none;stroke:#000000;stroke-width:0.7023;stroke-miterlimit:10;">
	<!ENTITY st4 "fill:none;stroke:#FFFFFF;stroke-width:0.7023;stroke-miterlimit:10;">
	<!ENTITY st5 "fill:none;stroke:#000000;stroke-width:0.7027;stroke-miterlimit:10;">
	<!ENTITY st6 "fill:none;stroke:#FFFFFF;stroke-width:0.7027;stroke-miterlimit:10;">
	<!ENTITY st7 "stroke:#000000;stroke-width:0.1171;stroke-miterlimit:10;">
	<!ENTITY st8 "fill:none;stroke:#000000;stroke-width:0.5848;stroke-miterlimit:10;">
]>
<svg version="1.1" id="Layer_3" xmlns="http://www.w3.org/2000/svg" xmlns:xlink="http://www.w3.org/1999/xlink" x="0px" y="0px"
	 viewBox="0 0 65 110" style="enable-background:new 0 0 65 110;" xml:space="preserve">
<g>
	<path style="&st3;" d="M34.5,46.4c0,0.3,0,1-0.1,1.3c-0.1,0.5-0.5,0.9-1,1.1c-0.1,0.1-0.3,0.1-0.4,0.1c-0.9,0-3.4,0-4.3,0
		c0-1.1,0-3.1,0-4.2c0.8,0,3.4,0,4.2,0c0.1,0,0.3,0,0.4,0.1C34,45,34.5,45.7,34.5,46.4z"/>
	<path style="&st3;" d="M34.3,46.4c0-0.7-0.5-1.3-1.1-1.4c-0.9-0.3-1.9,0.5-1.9,1.4c0,1,0.9,1.7,1.8,1.4
		C33.8,47.7,34.3,47.1,34.3,46.4z"/>
	<path style="&st3;" d="M33.6,46.4c0,0.3-0.2,0.7-0.5,0.7c-0.5,0.1-1-0.2-1-0.7c0-0.5,0.5-0.8,0.9-0.7
		C33.3,45.8,33.6,46.1,33.6,46.4z"/>
	<path style="&st4;" d="M33.8,46.4c0,0.4-0.3,0.9-0.7,1c-0.6,0.2-1.2-0.3-1.3-0.9c0-0.6,0.6-1.1,1.2-1
		C33.5,45.6,33.8,45.9,33.8,46.4z"/>
	<path style="&st3;" d="M33.6,46.4c0-0.3-0.2-0.7-0.6-0.7c-0.5-0.1-0.9,0.2-0.9,0.7c0,0.5,0.5,0.9,0.9,0.7
		C33.3,47.1,33.6,46.8,33.6,46.4z"/>
	<path style="&st3;" d="M53,37.3c0,0.1,0,6.1,0,6.2c0,0.1,0,0.1-0.1,0.2c-0.1,0.1-0.2,0.2-0.3,0.3c-0.1,0-0.3,0-0.3,0v0H12.7v0
		c0,0-0.2,0-0.2,0c0,0,0,0-0.1,0c0,0-0.1,0-0.1,0c-0.1,0-0.2-0.1-0.3-0.2c0-0.1-0.1-0.2-0.1-0.2c0-0.8-0.1-6.6,0.1-7.2
		c0.3-1.4,1.2-2.7,2.4-3.4c0.6-0.3,1.2-0.6,1.8-0.7C27.5,32,38.6,32,48.1,32C50.9,32.2,53.1,34.5,53,37.3z"/>
	<path style="&st3;" d="M52.8,72.6c-0.1,1,0.2,6.6-0.2,7.5c-0.4,1.4-1.5,2.7-2.8,3.2c-0.5,0.2-1,0.3-1.5,0.4c-0.1,0-0.2,0-0.3,0
		c-0.1,0-30.5,0-30.7,0c-0.7,0-1.5-0.2-2.2-0.5c-1.3-0.6-2.3-1.8-2.7-3.2c-0.4-0.9-0.1-6.5-0.2-7.5c0-0.1,0.1-0.2,0.2-0.2
		c0,0,0.3,0,0.3,0c-0.1,2,1.3,3.9,3.2,4.5c0.3,0.1,0.7,0.2,1.1,0.2c0.4,0,30.5,0,30.8,0c0.5,0,0.9-0.1,1.4-0.2
		c1.9-0.6,3.3-2.5,3.2-4.5c0.1,0,0.2,0,0.3,0C52.7,72.5,52.8,72.5,52.8,72.6z"/>
	<path style="&st3;" d="M52.3,72.4c0.1,2-1.3,3.9-3.2,4.5c-0.3,0.1-0.7,0.2-1.1,0.2c-0.4,0-30.5,0-30.8,0c-0.5,0-0.9-0.1-1.4-0.2
		c-1.9-0.6-3.3-2.5-3.2-4.5c0,0,0.5,0,0.5,0c0,0,0.1-0.1,0.1-0.1c0,0,0-0.1-0.1-0.1c-0.1,0-0.4,0-0.5,0c0-0.1,0-28,0-28
		c0,0.1,0.1,0.2,0.2,0.3c0,0,0.1,0,0.1,0c0,0,4.6,0,4.7,0c0,0.6,0,29.3,0,30.9c-0.1,0-0.3,0-0.4,0c0,0-0.1,0.1-0.1,0.1
		c0,0,0,0.1,0.1,0.1c0.1,0,0.3,0,0.3,0c0.1,0,0,0.1,0.1,0.2c0,0.1,0.1,0.2,0.2,0.3c0.1,0.1,0.2,0.1,0.3,0.1c0,0,0.1,0,0.1,0
		c0,0,0,0,0.1,0c0,0.1,0,0.3,0,0.3c0,0,0,0.1,0.1,0.1c0,0,0.1,0,0.1-0.1c0,0,0-0.3,0-0.4c8.9,0,19.1,0,28.1,0c0,0.1,0,0.3,0,0.4
		c0,0.1,0.1,0.1,0.1,0.1c0,0,0.1,0,0.1-0.1c0,0,0-0.3,0-0.3c0,0,0,0,0-0.1c0,0,0,0,0.1,0c0.2,0,0.4-0.1,0.5-0.3
		c0-0.1,0.1-0.2,0.1-0.2c0,0,0-0.1,0-0.1c0-0.1,0.3,0,0.3,0c0,0,0.1,0,0.1-0.1c0-0.1,0-0.1-0.1-0.1c0,0-0.3,0-0.4,0V47.2v-2v-0.7
		c0,0,4.6,0,4.7,0c0,0,0.1,0,0.1,0c0.1,0,0.2-0.2,0.2-0.3v28c-0.1,0-0.4,0-0.5,0c0,0-0.1,0.1-0.1,0.1c0,0,0,0.1,0.1,0.1
		C51.9,72.4,52.3,72.4,52.3,72.4z"/>
	<polygon style="&st3;" points="52.3,44.2 52.3,44.2 52.3,44.2 52.3,44.2 52.3,44.2 52.3,44.3 52.3,44.3 52.3,44.3 52.3,44.3 
		52.3,44.3 52.3,44.3 52.3,44.3 52.3,44.3 52.3,44.3 52.3,44.3 52.3,44.3 52.3,44.4 52.3,44.4 52.3,44.4 52.3,44.4 52.3,44.4 
		52.2,44.4 52.2,44.4 52.2,44.4 52.2,44.4 52.2,44.4 52.2,44.4 52.2,44.4 52.2,44.4 52.2,44.5 52.2,44.5 52.2,44.5 52.2,44.5 
		52.2,44.5 52.1,44.5 52.1,44.5 52.1,44.5 52.1,44.5 52.1,44.5 52.1,44.5 52.1,44.5 52.1,44.5 52.1,44.5 52.1,44.5 52,44.5 52,44.5 
		52,44.5 47.4,44.5 34.8,44.5 28.8,44.5 17.6,44.5 13,44.5 13,44.5 13,44.5 13,44.5 12.9,44.5 12.9,44.5 12.9,44.5 12.9,44.5 
		12.9,44.5 12.9,44.5 12.9,44.5 12.9,44.5 12.9,44.5 12.9,44.5 12.9,44.5 12.8,44.5 12.8,44.5 12.8,44.5 12.8,44.4 12.8,44.4 
		12.8,44.4 12.8,44.4 12.8,44.4 12.8,44.4 12.8,44.4 12.8,44.4 12.8,44.4 12.8,44.4 12.7,44.4 12.7,44.4 12.7,44.4 12.7,44.3 
		12.7,44.3 12.7,44.3 12.7,44.3 12.7,44.3 12.7,44.3 12.7,44.3 12.7,44.3 12.7,44.3 12.7,44.3 12.7,44.3 12.7,44.2 12.7,44.2 
		12.7,44.2 12.7,44.2 12.7,44.2 12.7,43.9 52.3,43.9 52.3,44.2 	"/>
	<polygon style="&st3;" points="47.4,84.6 47.4,84.6 47.4,84.6 47.4,84.6 47.4,84.6 47.4,84.6 47.4,84.6 47.4,84.6 47.4,84.6 
		47.4,84.6 47.4,84.6 47.4,84.7 47.4,84.7 47.4,84.7 47.4,84.7 47.4,84.7 47.4,84.7 47.4,84.7 47.4,84.7 47.4,84.7 47.4,84.7 
		47.4,84.7 47.4,84.7 47.4,84.7 47.3,84.7 47.3,84.7 47.3,84.7 47.3,84.7 47.3,84.7 47.3,84.7 47.3,84.7 47.3,84.7 47.3,84.8 
		47.3,84.8 47.3,84.8 47.3,84.8 47.3,84.8 47.3,84.8 47.3,84.8 47.3,84.8 47.2,84.8 47.2,84.8 47.2,84.8 47.2,84.8 47.2,84.8 
		47.2,84.8 45.9,84.8 44.6,84.8 44.6,84.8 44.6,84.8 44.6,84.8 44.6,84.8 44.6,84.8 44.6,84.8 44.6,84.8 44.6,84.8 44.5,84.8 
		44.5,84.8 44.5,84.8 44.5,84.8 44.5,84.8 44.5,84.7 44.5,84.7 44.5,84.7 44.5,84.7 44.5,84.7 44.5,84.7 44.5,84.7 44.5,84.7 
		44.5,84.7 44.5,84.7 44.5,84.7 44.5,84.7 44.5,84.7 44.4,84.7 44.4,84.7 44.4,84.7 44.4,84.7 44.4,84.7 44.4,84.7 44.4,84.7 
		44.4,84.7 44.4,84.6 44.4,84.6 44.4,84.6 44.4,84.6 44.4,84.6 44.4,84.6 44.4,84.6 44.4,84.6 44.4,84.6 44.4,84.6 44.4,84.6 
		44.4,84.6 44.4,83.8 45.9,83.8 47.4,83.8 47.4,84.6 	"/>
	<polygon style="&st3;" points="47.4,45.2 47.4,47.2 41.1,47.2 39.9,47.2 35.1,47.2 35.1,45.3 35.1,45.3 35.1,45.3 35.1,45.3 
		35.1,45.3 35.1,45.3 35.1,45.2 35.1,45.2 35.1,45.2 35.1,45.2 35.1,45.2 	"/>
	<polygon style="&st3;" points="41.1,63.1 41.1,69 39.9,69 39.9,63.1 39.9,47.2 41.1,47.2 	"/>
	<polygon style="&st3;" points="35.1,48 35.1,49.1 34.8,49.1 34.6,49.1 34.5,49.1 30.5,49.1 29.8,49.1 28.8,49.1 28.8,49 29.8,49 
		32.8,49 32.9,49 32.9,49 33,49 33.1,48.9 33.1,48.9 33.2,48.9 33.2,48.9 33.3,48.9 33.3,48.9 33.4,48.9 33.4,48.8 33.5,48.8 
		33.6,48.8 33.6,48.8 33.7,48.7 33.7,48.7 33.8,48.7 33.8,48.7 33.8,48.6 33.9,48.6 33.9,48.5 34,48.5 34,48.5 34.1,48.4 34.1,48.4 
		34.1,48.3 34.2,48.3 34.2,48.3 34.2,48.2 34.3,48.2 34.3,48.1 34.3,48.1 34.4,48 34.4,47.9 34.4,47.9 34.4,47.8 34.4,47.8 
		34.5,47.7 34.5,47.7 34.5,47.6 34.5,47.6 34.5,47.5 34.5,47.5 34.5,47.4 34.5,47.3 34.5,47.3 34.5,46.4 34.5,46.4 34.5,46.3 
		34.5,46.3 34.5,46.2 34.5,46.1 34.5,46.1 34.5,46 34.5,46 34.4,45.9 34.4,45.9 34.4,45.8 34.4,45.8 34.4,45.7 34.3,45.7 34.3,45.6 
		34.3,45.5 34.2,45.5 34.2,45.5 34.2,45.4 34.1,45.4 34.1,45.3 34.1,45.3 34,45.2 34,45.2 33.9,45.2 33.9,45.1 33.8,45.1 33.8,45 
		33.8,45 33.7,45 33.7,45 33.6,44.9 33.6,44.9 33.5,44.9 33.4,44.9 33.4,44.8 33.3,44.8 33.3,44.8 33.2,44.8 33.2,44.8 33.1,44.8 
		33.1,44.8 33,44.7 32.9,44.7 32.9,44.7 32.8,44.7 29.8,44.7 28.8,44.7 28.8,44.5 34.8,44.5 34.8,44.9 34.9,45 35,45 35,45 35,45 
		35,45 35,45 35,45 35,45.1 35,45.1 35,45.1 35,45.1 35,45.1 35,45.1 35.1,45.2 35.1,45.2 35.1,45.2 35.1,45.2 35.1,45.2 35.1,45.2 
		35.1,45.2 35.1,45.3 35.1,45.3 35.1,45.3 35.1,45.3 35.1,45.3 35.1,45.3 35.1,47.2 	"/>
	<polygon style="&st3;" points="34.9,49.6 34.9,50.1 34.5,50.1 34.5,50.1 34.3,50.1 32.9,50.1 32.8,50.1 32.5,50.1 32.1,50.1 
		32.1,50.1 30.7,50.1 30.7,50.1 30.6,50.1 30.6,50.1 30.2,50.1 30.2,49.6 30.2,49.5 30.2,49.5 30.2,49.5 30.2,49.5 30.2,49.5 
		30.2,49.5 30.2,49.5 30.2,49.5 30.2,49.5 30.2,49.5 30.2,49.5 30.2,49.5 30.2,49.5 30.2,49.5 30.2,49.5 30.2,49.5 30.2,49.5 
		30.2,49.5 30.2,49.5 30.2,49.5 30.2,49.5 30.2,49.4 30.2,49.4 30.2,49.4 30.2,49.4 30.2,49.4 30.3,49.4 30.3,49.4 30.3,49.4 
		30.3,49.4 30.3,49.4 30.3,49.4 30.3,49.4 30.4,49.4 30.4,49.3 30.4,49.3 30.4,49.3 30.5,49.3 30.5,49.3 30.5,49.3 30.5,49.1 
		34.5,49.1 34.5,49.3 34.5,49.3 34.6,49.3 34.6,49.3 34.6,49.3 34.7,49.3 34.7,49.3 34.7,49.4 34.7,49.4 34.8,49.4 34.8,49.4 
		34.8,49.4 34.8,49.4 34.8,49.4 34.8,49.4 34.8,49.4 34.8,49.4 34.8,49.4 34.8,49.4 34.8,49.4 34.9,49.5 34.9,49.5 34.9,49.5 
		34.9,49.5 34.9,49.5 34.9,49.5 34.9,49.5 34.9,49.5 34.9,49.5 34.9,49.5 34.9,49.5 34.9,49.5 34.9,49.5 34.9,49.5 34.9,49.5 
		34.9,49.5 34.9,49.5 34.9,49.5 34.9,49.5 34.9,49.5 34.9,49.5 	"/>
	<rect x="32.1" y="72.6" style="&st3;" width="0.8" height="3.6"/>
	<polygon style="&st3;" points="32.9,66.7 32.9,71.3 32.1,71.3 32.1,66.7 32.1,65.4 32.1,50.1 32.9,50.1 32.9,65.4 	"/>
	<polygon style="&st3;" points="28.7,45.2 28.7,47.2 25.1,47.2 23.9,47.2 17.6,47.2 17.6,45.2 	"/>
	<g>
		<polygon style="&st3;" points="44,71.3 44,72.6 42.1,72.6 38.9,72.6 32.9,72.6 32.1,72.6 26.1,72.6 22.9,72.6 21,72.6 21,71.3 
			23.4,71.3 25.5,71.3 32.1,71.3 32.9,71.3 39.5,71.3 41.5,71.3 		"/>
		<polygon style="&st3;" points="42.1,72.6 42.1,73.2 41.5,73.2 39.5,73.2 38.9,73.2 38.9,72.6 		"/>
		<polygon style="&st3;" points="41.5,73.2 41.5,75.6 41.1,75.6 39.9,75.6 39.5,75.6 39.5,73.2 		"/>
		<polygon style="&st3;" points="41.5,69 41.5,71.3 39.5,71.3 39.5,69 39.9,69 41.1,69 		"/>
		<polygon style="&st3;" points="41.1,76.2 41.1,76.2 39.9,76.2 39.9,76.2 39.9,76.2 39.9,75.6 41.1,75.6 41.1,76.2 		"/>
		<polygon style="&st3;" points="26.1,72.6 26.1,73.2 25.5,73.2 23.4,73.2 22.9,73.2 22.9,72.6 		"/>
		<polygon style="&st3;" points="25.5,73.2 25.5,75.6 25.1,75.6 23.9,75.6 23.4,75.6 23.4,73.2 		"/>
		<polygon style="&st3;" points="25.5,69 25.5,71.3 23.4,71.3 23.4,69 23.9,69 25.1,69 		"/>
		<polygon style="&st3;" points="25.1,76.2 25.1,76.2 23.9,76.2 23.9,75.6 25.1,75.6 25.1,76.2 		"/>
	</g>
	<polygon style="&st3;" points="25.1,63.1 25.1,69 23.9,69 23.9,63.1 23.9,47.2 25.1,47.2 	"/>
	<polygon style="&st3;" points="20.6,84.6 20.6,84.6 20.6,84.6 20.6,84.6 20.6,84.6 20.6,84.6 20.6,84.6 20.6,84.6 20.6,84.6 
		20.6,84.6 20.6,84.6 20.6,84.7 20.6,84.7 20.6,84.7 20.6,84.7 20.6,84.7 20.6,84.7 20.6,84.7 20.6,84.7 20.6,84.7 20.6,84.7 
		20.5,84.7 20.5,84.7 20.5,84.7 20.5,84.7 20.5,84.7 20.5,84.7 20.5,84.7 20.5,84.7 20.5,84.7 20.5,84.7 20.5,84.7 20.5,84.8 
		20.5,84.8 20.5,84.8 20.5,84.8 20.5,84.8 20.5,84.8 20.5,84.8 20.4,84.8 20.4,84.8 20.4,84.8 20.4,84.8 20.4,84.8 20.4,84.8 
		20.4,84.8 19.1,84.8 17.8,84.8 17.8,84.8 17.8,84.8 17.8,84.8 17.8,84.8 17.8,84.8 17.8,84.8 17.7,84.8 17.7,84.8 17.7,84.8 
		17.7,84.8 17.7,84.8 17.7,84.8 17.7,84.8 17.7,84.7 17.7,84.7 17.7,84.7 17.7,84.7 17.7,84.7 17.7,84.7 17.7,84.7 17.7,84.7 
		17.7,84.7 17.7,84.7 17.7,84.7 17.6,84.7 17.6,84.7 17.6,84.7 17.6,84.7 17.6,84.7 17.6,84.7 17.6,84.7 17.6,84.7 17.6,84.7 
		17.6,84.7 17.6,84.6 17.6,84.6 17.6,84.6 17.6,84.6 17.6,84.6 17.6,84.6 17.6,84.6 17.6,84.6 17.6,84.6 17.6,84.6 17.6,84.6 
		17.6,84.6 17.6,83.8 19.1,83.8 20.6,83.8 20.6,84.6 	"/>
	<path d="M30.5,48.1l0.3-0.4h-0.3c0,0-0.1,0.1-0.1,0.2C30.4,47.9,30.5,48,30.5,48.1z"/>
	<polygon points="30.8,48.7 30.1,47.7 29.8,47.7 30.2,48.2 29.8,48.7 30.2,48.7 30.3,48.4 30.5,48.7 	"/>
	<path style="&st3;" d="M13.9,63h-1.2V53h1.2c0.5,0,0.8,0.4,0.8,0.8v8.4C14.7,62.7,14.4,63,13.9,63z"/>
	<path style="&st3;" d="M51.1,63h1.2V53h-1.2c-0.5,0-0.8,0.4-0.8,0.8v8.4C50.3,62.7,50.6,63,51.1,63z"/>
	<path style="&st3;" d="M25.5,40.8v-5.7c0-0.8,0.6-1.4,1.4-1.4h11.1c0.8,0,1.4,0.6,1.4,1.4v5.7c0,0.8-0.6,1.4-1.4,1.4H26.9
		C26.1,42.2,25.5,41.6,25.5,40.8z M27.2,41.1h10.5c0.1,0,0.2-0.1,0.2-0.2V35c0-0.1-0.1-0.2-0.2-0.2H27.2c-0.1,0-0.2,0.1-0.2,0.2v5.8
		C27,41,27.1,41.1,27.2,41.1z"/>
	<path style="&st3;" d="M37.3,31.8h-9.6c-0.1,0-0.2,0.1-0.2,0.2v0h10.1v0C37.5,31.9,37.4,31.8,37.3,31.8z"/>
	<g>
		<path d="M28.7,78.9h1.5v0.2l-0.9,1.4l-0.1,0.1l0.1,0h0.9V81h-1.6v-0.2l0.9-1.4l0.1-0.1l-0.1,0h-0.8V78.9z"/>
		<path d="M31.9,81C31.9,81,31.9,81,31.9,81c-0.1-0.1-0.1-0.2-0.1-0.2l0-0.1l0,0.1c-0.1,0.1-0.2,0.2-0.3,0.2c-0.1,0-0.2,0.1-0.3,0.1
			c-0.1,0-0.2,0-0.3-0.1c-0.1,0-0.1-0.1-0.2-0.1c-0.1-0.1-0.1-0.1-0.1-0.2s0-0.1,0-0.2c0-0.1,0-0.2,0.1-0.2c0-0.1,0.1-0.1,0.2-0.2
			c0.1-0.1,0.2-0.1,0.3-0.2s0.3-0.1,0.5-0.1c0,0.1,0,0.2-0.1,0.2c0,0.1-0.1,0.1-0.2,0.1c-0.1,0-0.2,0.1-0.2,0.1
			c0,0.1-0.1,0.1-0.1,0.2c0,0.1,0,0.1,0.1,0.2c0.1,0,0.1,0.1,0.2,0.1c0.1,0,0.2,0,0.2-0.1c0.1-0.1,0.2-0.1,0.2-0.2v-0.6
			c0-0.1,0-0.3-0.1-0.3c-0.1-0.1-0.2-0.1-0.3-0.1c-0.1,0-0.1,0-0.2,0c-0.1,0-0.2,0-0.3,0.1l-0.1-0.4c0.1-0.1,0.2-0.1,0.4-0.1
			c0.1,0,0.2,0,0.3,0c0.3,0,0.5,0.1,0.7,0.2c0.2,0.2,0.2,0.4,0.2,0.7v0.8c0,0.1,0,0.2,0,0.2c0,0.1,0,0.2,0.1,0.3H31.9z"/>
		<path d="M35.8,79.8c0-0.1,0-0.1,0-0.2c0-0.1,0-0.1-0.1-0.2c0,0-0.1-0.1-0.1-0.1c0,0-0.1,0-0.2,0c-0.1,0-0.1,0-0.2,0
			c-0.1,0-0.1,0.1-0.2,0.1c0,0.1-0.1,0.1-0.1,0.2s0,0.2,0,0.3c0,0.2,0.1,0.4,0.2,0.5c0.1,0.1,0.2,0.2,0.4,0.2c0.1,0,0.2,0,0.3,0
			c0.1,0,0.2-0.1,0.3-0.1l0.1,0.4C36.2,81,36,81,35.9,81.1c-0.1,0-0.3,0-0.4,0c-0.2,0-0.3,0-0.5-0.1c-0.1-0.1-0.2-0.2-0.3-0.3
			c-0.1-0.1-0.2-0.2-0.2-0.4c0-0.1-0.1-0.3-0.1-0.4c0-0.2,0-0.3,0.1-0.5c0.1-0.1,0.1-0.2,0.2-0.3c0.1-0.1,0.2-0.2,0.3-0.2
			c0.1,0,0.3-0.1,0.4-0.1c0.1,0,0.3,0,0.4,0.1c0.1,0.1,0.2,0.1,0.3,0.2c0.1,0.1,0.1,0.2,0.1,0.4c0,0.1,0,0.3-0.1,0.5h-1.1
			c0-0.1,0.1-0.2,0.1-0.2s0.1-0.1,0.2-0.1H35.8z"/>
		<g>
			<path d="M34.4,81L33.7,80c-0.1-0.2-0.2-0.3-0.3-0.5c-0.1-0.2-0.2-0.3-0.3-0.5h-0.6l0.7,1L32.5,81h0.6l0.4-0.6l0.4,0.6H34.4z"/>
			<g>
				<path d="M33.8,78.9h0.6l-0.6,0.9c0,0-0.1-0.1-0.1-0.1c0,0-0.1-0.1-0.1-0.2c0-0.1,0-0.1,0-0.2c0-0.1,0-0.1,0-0.2L33.8,78.9z"/>
			</g>
		</g>
	</g>
	<polygon style="&st3;" points="32.6,51.1 33.2,50.1 31.8,50.1 32.4,51.1 	"/>
</g>
<g>
	<path d="M29.5,98.4l3.6,5.3h-2.5l-2.4-3.7l-2.4,3.7h-2.4l3.6-5.3l-3.5-5.2h2.5l2.3,3.6l2.3-3.6H33L29.5,98.4z"/>
	<path d="M41,96c0,1.1-0.6,1.9-1.6,2.4c1.1,0.4,1.8,1.3,1.8,2.4c0,2.1-1.9,3.1-3.9,3.1c-1.6,0-2.9-0.6-3.7-1.5l1.2-1.3
		c0.6,0.6,1.5,1,2.4,1c1,0,1.8-0.4,1.8-1.4c0-0.9-0.9-1.4-2.1-1.4h-1.2v-1.8h1.2c1,0,1.8-0.5,1.8-1.3c0-0.8-0.8-1.3-1.7-1.3
		c-1,0-1.7,0.5-2.1,1.1l-1.3-1.3c0.7-0.9,1.8-1.6,3.5-1.6C39.5,93,41,94.2,41,96z"/>
</g>
</svg>
