<?xml version="1.0" encoding="utf-8"?>
<!-- Generator: Adobe Illustrator 23.1.1, SVG Export Plug-In . SVG Version: 6.00 Build 0)  -->
<svg version="1.1" id="Layer_1" xmlns="http://www.w3.org/2000/svg" xmlns:xlink="http://www.w3.org/1999/xlink" x="0px" y="0px"
	 viewBox="0 0 65 110" style="enable-background:new 0 0 65 110;" xml:space="preserve">
<g>
	<path d="M31.2,50.5c-1,0-1.8,0.8-1.8,1.9s0.8,1.9,1.8,1.9s1.8-0.8,1.8-1.9S32.2,50.5,31.2,50.5z M31.2,53.2c-0.5,0-0.8-0.4-0.8-0.9
		s0.4-0.9,0.8-0.9s0.8,0.4,0.8,0.9S31.7,53.2,31.2,53.2z"/>
	<path d="M60.9,49.7h-2v-9.5c0-3.3-2.7-5.9-5.9-5.9H9.3c-3.3,0-5.9,2.7-5.9,5.9v43.1c0,1,0.8,1.8,1.8,1.8h10h32.5h9.4
		c1,0,1.8-0.8,1.8-1.8V58.7c0,0,0-0.1,0-0.1h2V49.7z M5.1,84.1c-0.4,0-0.8-0.4-0.8-0.8V40.2c0-2.7,2.2-4.9,4.9-4.9h43.7
		c2.7,0,4.9,2.2,4.9,4.9v9.5h-3.7v8.9h1.5c0.3,0,0.5,0.2,0.5,0.5c0,0.3-0.2,0.5-0.5,0.5c-0.8,0-1.5,0.7-1.5,1.5s0.7,1.5,1.5,1.5
		c0.3,0,0.5,0.2,0.5,0.5c0,0.3-0.2,0.5-0.5,0.5c-0.8,0-1.5,0.7-1.5,1.5s0.7,1.5,1.5,1.5c0.3,0,0.5,0.2,0.5,0.5
		c0,0.3-0.2,0.5-0.5,0.5c-0.8,0-1.5,0.7-1.5,1.5c0,0.8,0.7,1.5,1.5,1.5c0.3,0,0.5,0.2,0.5,0.5c0,0.3-0.2,0.5-0.5,0.5
		c-0.8,0-1.5,0.7-1.5,1.5s0.7,1.5,1.5,1.5c0.3,0,0.5,0.2,0.5,0.5c0,0.3-0.2,0.5-0.5,0.5c-0.8,0-1.5,0.7-1.5,1.5
		c0,0.8,0.7,1.5,1.5,1.5c0.3,0,0.5,0.2,0.5,0.5c0,0.3-0.2,0.5-0.5,0.5c-0.3,0-0.5,0.2-0.5,0.5s-0.2,0.5-0.5,0.5
		c-0.3,0-0.5-0.2-0.5-0.5c0-0.8-0.7-1.5-1.5-1.5s-1.5,0.7-1.5,1.5c0,0.1,0,0.1,0,0.1h0c0,0.3-0.3,0.5-0.6,0.5
		c-0.3,0-0.6-0.2-0.6-0.5c0-0.8-0.7-1.5-1.6-1.5c-0.2,0-0.5,0.1-0.7,0.1v-0.9h0.1c2.6,0,4.6-2.1,4.6-4.6v-6v-7v-5.9v-4.3v-4.3
		c0-2.6-2.1-4.6-4.6-4.6H14.5c-2.6,0-4.6,2.1-4.6,4.6v14.5v7v6c0,2.6,2.1,4.6,4.6,4.6h0.7v6H5.1z M19.1,77.1V76h24.6v1.1H19.1z
		 M43.7,78.1v6H19.1v-6H43.7z M16.2,75v-0.3h30.4V75H16.2z M44.7,76h2.4c0.3,0,0.5-0.2,0.5-0.5v-1.3c0-0.3-0.2-0.5-0.5-0.5H15.7
		c-0.3,0-0.5,0.2-0.5,0.5v1.3c0,0.3,0.2,0.5,0.5,0.5h2.5v1.1h-3h-0.7c-2,0-3.6-1.6-3.6-3.6v-6v-7v-5.4h16.3v1.2
		c0,0.3,0.2,0.5,0.5,0.5H30c0,0.1,0.1,0.1,0.1,0.2l1,0.7c0,0,0,0,0,0c0.1,0.1,0.2,0.1,0.3,0.1c0,0,0,0,0,0c0,0,0,0,0,0s0,0,0,0
		c0,0,0,0,0,0c0.1,0,0.2,0,0.3-0.1c0,0,0,0,0,0l1-0.7c0.1,0,0.1-0.1,0.1-0.2h2.2c0.3,0,0.5-0.2,0.5-0.5v-1.2h15.8v5.4v7v6
		c0,2-1.6,3.6-3.6,3.6h-0.1h-3V76z M28.2,55.8v-6.4h6.4v0.8c0,0,0,0.1,0,0.1v4.3c0,0,0,0.1,0,0.1v1.1H28.2z M35.6,50.8h15.8v3.3
		H35.6V50.8z M51.4,49.8H35.6v-0.9c0-0.3-0.2-0.5-0.5-0.5h-7.4c-0.3,0-0.5,0.2-0.5,0.5v0.9H10.8v-3.8c0-2,1.6-3.6,3.6-3.6h33.2
		c2,0,3.6,1.6,3.6,3.6V49.8z M27.2,50.8v3.3h-16v-3.3H27.2z M16.2,78.1h2v6h-2V78.1z M44.7,84.1v-6h2v6H44.7z M57.9,58.7v24.6
		c0,0.4-0.4,0.8-0.8,0.8h-9.4v-3.6c0-0.1,0.1-0.1,0.1-0.2c0-0.3,0.3-0.5,0.6-0.5c0.3,0,0.6,0.2,0.6,0.5c0,0.8,0.7,1.5,1.6,1.5
		c0.9,0,1.6-0.7,1.6-1.5h0c0,0,0-0.1,0-0.1c0-0.3,0.2-0.5,0.5-0.5s0.5,0.2,0.5,0.5c0,0.8,0.7,1.5,1.5,1.5c0.7,0,1.2-0.5,1.4-1.1
		c0.6-0.2,1.1-0.8,1.1-1.4c0-0.8-0.7-1.5-1.5-1.5c-0.3,0-0.5-0.2-0.5-0.5c0-0.3,0.2-0.5,0.5-0.5c0.8,0,1.5-0.7,1.5-1.5
		s-0.7-1.5-1.5-1.5c-0.3,0-0.5-0.2-0.5-0.5s0.2-0.5,0.5-0.5c0.8,0,1.5-0.7,1.5-1.5s-0.7-1.5-1.5-1.5c-0.3,0-0.5-0.2-0.5-0.5
		c0-0.3,0.2-0.5,0.5-0.5c0.8,0,1.5-0.7,1.5-1.5c0-0.8-0.7-1.5-1.5-1.5c-0.3,0-0.5-0.2-0.5-0.5c0-0.3,0.2-0.5,0.5-0.5
		c0.8,0,1.5-0.7,1.5-1.5c0-0.8-0.7-1.5-1.5-1.5c-0.3,0-0.5-0.2-0.5-0.5s0.2-0.5,0.5-0.5c0.8,0,1.5-0.7,1.5-1.5c0-0.2,0-0.3-0.1-0.5
		L57.9,58.7C57.9,58.7,57.9,58.7,57.9,58.7z M59.9,57.6h-4.7v-6.9h4.7V57.6z"/>
	<polygon points="29.3,39.5 28.4,39.5 28.4,39.5 28.4,39.4 29.3,38.1 29.3,37.8 27.8,37.8 27.8,38.2 28.6,38.2 28.7,38.2 28.6,38.3 
		27.7,39.7 27.7,39.9 29.3,39.9 	"/>
	<path d="M29.7,39.8c0.1,0.1,0.1,0.1,0.2,0.1c0.1,0,0.2,0,0.3,0c0.1,0,0.2,0,0.3,0s0.2-0.1,0.3-0.2l0-0.1l0,0.1c0,0,0,0.1,0.1,0.1
		c0,0,0.1,0.1,0.1,0.1h0.4c0-0.1,0-0.2-0.1-0.3c0-0.1,0-0.2,0-0.2v-0.7c0-0.3-0.1-0.5-0.2-0.6c-0.2-0.1-0.4-0.2-0.7-0.2
		c-0.1,0-0.2,0-0.3,0s-0.2,0.1-0.4,0.1l0.1,0.4c0.1,0,0.2-0.1,0.3-0.1c0.1,0,0.1,0,0.2,0c0.1,0,0.3,0,0.3,0.1s0.1,0.2,0.1,0.3v0.6
		c-0.1,0.1-0.1,0.2-0.2,0.2c-0.1,0.1-0.2,0.1-0.2,0.1c-0.1,0-0.1,0-0.2-0.1c0,0-0.1-0.1-0.1-0.2c0-0.1,0-0.1,0.1-0.2
		c0-0.1,0.1-0.1,0.2-0.1c0.1,0,0.1-0.1,0.2-0.1c0-0.1,0.1-0.2,0.1-0.2c-0.2,0-0.4,0-0.5,0.1s-0.3,0.1-0.3,0.2
		c-0.1,0.1-0.1,0.1-0.2,0.2c0,0.1-0.1,0.2-0.1,0.2c0,0.1,0,0.2,0,0.2C29.6,39.6,29.6,39.7,29.7,39.8z"/>
	<path d="M31.5,39.9h0.6l0.3-0.6l0.4,0.6h0.6l-0.7-1.1c-0.1-0.2-0.2-0.3-0.3-0.5c-0.1-0.2-0.2-0.3-0.3-0.5h-0.6l0.7,1L31.5,39.9z"/>
	<path d="M33.7,39.6c0.1,0.1,0.2,0.2,0.3,0.3c0.1,0.1,0.3,0.1,0.5,0.1c0.1,0,0.3,0,0.4,0c0.1,0,0.3-0.1,0.4-0.1l-0.1-0.4
		c-0.1,0.1-0.2,0.1-0.3,0.1c-0.1,0-0.2,0-0.3,0c-0.2,0-0.3-0.1-0.4-0.2C34.1,39.2,34,39,34,38.8c0-0.1,0-0.2,0-0.3
		c0-0.1,0.1-0.1,0.1-0.2c0-0.1,0.1-0.1,0.2-0.1c0.1,0,0.1,0,0.2,0c0.1,0,0.1,0,0.2,0c0,0,0.1,0.1,0.1,0.1c0,0,0.1,0.1,0.1,0.1
		c0,0.1,0,0.1,0,0.2h-0.4c-0.1,0-0.1,0-0.2,0.1c-0.1,0.1-0.1,0.1-0.1,0.2h1.1c0.1-0.2,0.1-0.3,0.1-0.5s-0.1-0.3-0.1-0.4
		c-0.1-0.1-0.2-0.2-0.3-0.2c-0.1-0.1-0.3-0.1-0.4-0.1c-0.1,0-0.3,0-0.4,0.1c-0.1,0-0.2,0.1-0.3,0.2c-0.1,0.1-0.2,0.2-0.2,0.3
		c-0.1,0.1-0.1,0.3-0.1,0.4c0,0.1,0,0.3,0.1,0.4C33.6,39.4,33.6,39.5,33.7,39.6z"/>
	<path d="M32.7,38.6c0,0,0.1,0.1,0.1,0.1l0.6-0.9h-0.6l-0.1,0.3c0,0.1,0,0.1,0,0.2s0,0.1,0,0.2C32.7,38.5,32.7,38.5,32.7,38.6z"/>
	<rect x="55.7" y="53.8" width="3.5" height="1.5"/>
	<polygon points="14.7,95.6 19.8,95.6 14.7,102.1 14.7,103.7 22.4,103.7 22.4,101.9 17.3,101.9 22.4,95.4 22.4,93.8 14.7,93.8 	"/>
	<rect x="22.7" y="98.5" width="4.1" height="1.6"/>
	<polygon points="29.9,93.8 27.9,93.8 27.9,103.7 35,103.7 35,101.8 29.9,101.8 	"/>
	<rect x="35.4" y="96.9" width="1.8" height="6.8"/>
	<path d="M36.3,93.5c-0.7,0-1.2,0.5-1.2,1.2s0.5,1.2,1.2,1.2c0.7,0,1.2-0.5,1.2-1.2S36.9,93.5,36.3,93.5z"/>
	<path d="M41.8,102.1c-0.6,0-1-0.3-1-1.2v-2.5h2.5v-1.6h-2.5v-2h-1.8v2h-1.3v1.6h1.3v2.6c0,1.8,0.9,2.7,2.5,2.7c1,0,1.7-0.3,2.3-0.7
		l-0.7-1.4C42.7,101.9,42.2,102.1,41.8,102.1z"/>
	<path d="M46.9,96.7c-2,0-3.4,1.5-3.4,3.6s1.5,3.6,3.5,3.6c1.2,0,2.1-0.3,2.9-1l-1.1-1.2c-0.5,0.4-1.1,0.7-1.7,0.7
		c-0.9,0-1.6-0.4-1.7-1.4h4.8c0-0.2,0-0.4,0-0.6C50.2,98.1,48.9,96.7,46.9,96.7z M45.4,99.6c0.2-0.8,0.7-1.4,1.5-1.4
		c0.8,0,1.3,0.5,1.5,1.4H45.4z"/>
</g>
</svg>
